<?xml version="1.0" encoding="utf-8" standalone="no"?>
<!DOCTYPE svg PUBLIC "-//W3C//DTD SVG 1.1//EN"
  "http://www.w3.org/Graphics/SVG/1.1/DTD/svg11.dtd">
<svg xmlns:xlink="http://www.w3.org/1999/xlink" width="972.583089pt" height="593.796937pt" viewBox="0 0 972.583089 593.796937" xmlns="http://www.w3.org/2000/svg" version="1.1">
 <metadata>
  <rdf:RDF xmlns:dc="http://purl.org/dc/elements/1.1/" xmlns:cc="http://creativecommons.org/ns#" xmlns:rdf="http://www.w3.org/1999/02/22-rdf-syntax-ns#">
   <cc:Work>
    <dc:type rdf:resource="http://purl.org/dc/dcmitype/StillImage"/>
    <dc:date>2026-07-09T11:42:33.287119</dc:date>
    <dc:format>image/svg+xml</dc:format>
    <dc:creator>
     <cc:Agent>
      <dc:title>Matplotlib v3.11.0, https://matplotlib.org/</dc:title>
     </cc:Agent>
    </dc:creator>
   </cc:Work>
  </rdf:RDF>
 </metadata>
 <defs>
  <style type="text/css">*{stroke-linejoin: round; stroke-linecap: butt}</style>
 </defs>
 <g id="figure_1">
  <g id="patch_1">
   <path d="M 0 593.796937 
L 972.583089 593.796937 
L 972.583089 0 
L 0 0 
z
" style="fill: #fcfcfd"/>
  </g>
  <g id="axes_1">
   <g id="patch_2">
    <path d="M 113.904 552.096 
L 573.930212 552.096 
L 573.930212 118.656 
L 113.904 118.656 
z
" style="fill: #ffffff"/>
   </g>
   <g id="matplotlib.axis_1">
    <g id="xtick_1">
     <g id="text_1">
      <!-- 0.0 -->
      <g style="fill: #6f768a" transform="translate(106.747594 568.433891) scale(0.09 -0.09)">
       <defs>
        <path id="DejaVuSans-13" d="M 2034 4250 
Q 1547 4250 1301 3770 
Q 1056 3291 1056 2328 
Q 1056 1369 1301 889 
Q 1547 409 2034 409 
Q 2525 409 2770 889 
Q 3016 1369 3016 2328 
Q 3016 3291 2770 3770 
Q 2525 4250 2034 4250 
z
M 2034 4750 
Q 2819 4750 3233 4129 
Q 3647 3509 3647 2328 
Q 3647 1150 3233 529 
Q 2819 -91 2034 -91 
Q 1250 -91 836 529 
Q 422 1150 422 2328 
Q 422 3509 836 4129 
Q 1250 4750 2034 4750 
z
" transform="scale(0.015625)"/>
        <path id="DejaVuSans-11" d="M 684 794 
L 1344 794 
L 1344 0 
L 684 0 
L 684 794 
z
" transform="scale(0.015625)"/>
       </defs>
       <use xlink:href="#DejaVuSans-13"/>
       <use xlink:href="#DejaVuSans-11" transform="translate(63.625 0)"/>
       <use xlink:href="#DejaVuSans-13" transform="translate(95.40625 0)"/>
      </g>
     </g>
    </g>
    <g id="xtick_2">
     <g id="text_2">
      <!-- 0.5 -->
      <g style="fill: #6f768a" transform="translate(177.159779 568.433891) scale(0.09 -0.09)">
       <defs>
        <path id="DejaVuSans-18" d="M 691 4666 
L 3169 4666 
L 3169 4134 
L 1269 4134 
L 1269 2991 
Q 1406 3038 1543 3061 
Q 1681 3084 1819 3084 
Q 2600 3084 3056 2656 
Q 3513 2228 3513 1497 
Q 3513 744 3044 326 
Q 2575 -91 1722 -91 
Q 1428 -91 1123 -41 
Q 819 9 494 109 
L 494 744 
Q 775 591 1075 516 
Q 1375 441 1709 441 
Q 2250 441 2565 725 
Q 2881 1009 2881 1497 
Q 2881 1984 2565 2268 
Q 2250 2553 1709 2553 
Q 1456 2553 1204 2497 
Q 953 2441 691 2322 
L 691 4666 
z
" transform="scale(0.015625)"/>
       </defs>
       <use xlink:href="#DejaVuSans-13"/>
       <use xlink:href="#DejaVuSans-11" transform="translate(63.625 0)"/>
       <use xlink:href="#DejaVuSans-18" transform="translate(95.40625 0)"/>
      </g>
     </g>
    </g>
    <g id="xtick_3">
     <g id="text_3">
      <!-- 1.0 -->
      <g style="fill: #6f768a" transform="translate(247.571964 568.433891) scale(0.09 -0.09)">
       <defs>
        <path id="DejaVuSans-14" d="M 794 531 
L 1825 531 
L 1825 4091 
L 703 3866 
L 703 4441 
L 1819 4666 
L 2450 4666 
L 2450 531 
L 3481 531 
L 3481 0 
L 794 0 
L 794 531 
z
" transform="scale(0.015625)"/>
       </defs>
       <use xlink:href="#DejaVuSans-14"/>
       <use xlink:href="#DejaVuSans-11" transform="translate(63.625 0)"/>
       <use xlink:href="#DejaVuSans-13" transform="translate(95.40625 0)"/>
      </g>
     </g>
    </g>
    <g id="xtick_4">
     <g id="text_4">
      <!-- 1.5 -->
      <g style="fill: #6f768a" transform="translate(317.984149 568.433891) scale(0.09 -0.09)">
       <use xlink:href="#DejaVuSans-14"/>
       <use xlink:href="#DejaVuSans-11" transform="translate(63.625 0)"/>
       <use xlink:href="#DejaVuSans-18" transform="translate(95.40625 0)"/>
      </g>
     </g>
    </g>
    <g id="xtick_5">
     <g id="text_5">
      <!-- 2.0 -->
      <g style="fill: #6f768a" transform="translate(388.396334 568.433891) scale(0.09 -0.09)">
       <defs>
        <path id="DejaVuSans-15" d="M 1228 531 
L 3431 531 
L 3431 0 
L 469 0 
L 469 531 
Q 828 903 1448 1529 
Q 2069 2156 2228 2338 
Q 2531 2678 2651 2914 
Q 2772 3150 2772 3378 
Q 2772 3750 2511 3984 
Q 2250 4219 1831 4219 
Q 1534 4219 1204 4116 
Q 875 4013 500 3803 
L 500 4441 
Q 881 4594 1212 4672 
Q 1544 4750 1819 4750 
Q 2544 4750 2975 4387 
Q 3406 4025 3406 3419 
Q 3406 3131 3298 2873 
Q 3191 2616 2906 2266 
Q 2828 2175 2409 1742 
Q 1991 1309 1228 531 
z
" transform="scale(0.015625)"/>
       </defs>
       <use xlink:href="#DejaVuSans-15"/>
       <use xlink:href="#DejaVuSans-11" transform="translate(63.625 0)"/>
       <use xlink:href="#DejaVuSans-13" transform="translate(95.40625 0)"/>
      </g>
     </g>
    </g>
    <g id="xtick_6">
     <g id="text_6">
      <!-- 2.5 -->
      <g style="fill: #6f768a" transform="translate(458.808518 568.433891) scale(0.09 -0.09)">
       <use xlink:href="#DejaVuSans-15"/>
       <use xlink:href="#DejaVuSans-11" transform="translate(63.625 0)"/>
       <use xlink:href="#DejaVuSans-18" transform="translate(95.40625 0)"/>
      </g>
     </g>
    </g>
    <g id="xtick_7">
     <g id="text_7">
      <!-- 3.0 -->
      <g style="fill: #6f768a" transform="translate(529.220703 568.433891) scale(0.09 -0.09)">
       <defs>
        <path id="DejaVuSans-16" d="M 2597 2516 
Q 3050 2419 3304 2112 
Q 3559 1806 3559 1356 
Q 3559 666 3084 287 
Q 2609 -91 1734 -91 
Q 1441 -91 1130 -33 
Q 819 25 488 141 
L 488 750 
Q 750 597 1062 519 
Q 1375 441 1716 441 
Q 2309 441 2620 675 
Q 2931 909 2931 1356 
Q 2931 1769 2642 2001 
Q 2353 2234 1838 2234 
L 1294 2234 
L 1294 2753 
L 1863 2753 
Q 2328 2753 2575 2939 
Q 2822 3125 2822 3475 
Q 2822 3834 2567 4026 
Q 2313 4219 1838 4219 
Q 1578 4219 1281 4162 
Q 984 4106 628 3988 
L 628 4550 
Q 988 4650 1302 4700 
Q 1616 4750 1894 4750 
Q 2613 4750 3031 4423 
Q 3450 4097 3450 3541 
Q 3450 3153 3228 2886 
Q 3006 2619 2597 2516 
z
" transform="scale(0.015625)"/>
       </defs>
       <use xlink:href="#DejaVuSans-16"/>
       <use xlink:href="#DejaVuSans-11" transform="translate(63.625 0)"/>
       <use xlink:href="#DejaVuSans-13" transform="translate(95.40625 0)"/>
      </g>
     </g>
    </g>
    <g id="text_8">
     <!-- Average throughput (MiB/s) -->
     <g style="fill: #1f2430" transform="translate(261.135856 583.714125) scale(0.12 -0.12)">
      <defs>
       <path id="DejaVuSans-24" d="M 2188 4044 
L 1331 1722 
L 3047 1722 
L 2188 4044 
z
M 1831 4666 
L 2547 4666 
L 4325 0 
L 3669 0 
L 3244 1197 
L 1141 1197 
L 716 0 
L 50 0 
L 1831 4666 
z
" transform="scale(0.015625)"/>
       <path id="DejaVuSans-59" d="M 191 3500 
L 800 3500 
L 1894 563 
L 2988 3500 
L 3597 3500 
L 2284 0 
L 1503 0 
L 191 3500 
z
" transform="scale(0.015625)"/>
       <path id="DejaVuSans-48" d="M 3597 1894 
L 3597 1613 
L 953 1613 
Q 991 1019 1311 708 
Q 1631 397 2203 397 
Q 2534 397 2845 478 
Q 3156 559 3463 722 
L 3463 178 
Q 3153 47 2828 -22 
Q 2503 -91 2169 -91 
Q 1331 -91 842 396 
Q 353 884 353 1716 
Q 353 2575 817 3079 
Q 1281 3584 2069 3584 
Q 2775 3584 3186 3129 
Q 3597 2675 3597 1894 
z
M 3022 2063 
Q 3016 2534 2758 2815 
Q 2500 3097 2075 3097 
Q 1594 3097 1305 2825 
Q 1016 2553 972 2059 
L 3022 2063 
z
" transform="scale(0.015625)"/>
       <path id="DejaVuSans-55" d="M 2631 2963 
Q 2534 3019 2420 3045 
Q 2306 3072 2169 3072 
Q 1681 3072 1420 2755 
Q 1159 2438 1159 1844 
L 1159 0 
L 581 0 
L 581 3500 
L 1159 3500 
L 1159 2956 
Q 1341 3275 1631 3429 
Q 1922 3584 2338 3584 
Q 2397 3584 2469 3576 
Q 2541 3569 2628 3553 
L 2631 2963 
z
" transform="scale(0.015625)"/>
       <path id="DejaVuSans-44" d="M 2194 1759 
Q 1497 1759 1228 1600 
Q 959 1441 959 1056 
Q 959 750 1161 570 
Q 1363 391 1709 391 
Q 2188 391 2477 730 
Q 2766 1069 2766 1631 
L 2766 1759 
L 2194 1759 
z
M 3341 1997 
L 3341 0 
L 2766 0 
L 2766 531 
Q 2569 213 2275 61 
Q 1981 -91 1556 -91 
Q 1019 -91 701 211 
Q 384 513 384 1019 
Q 384 1609 779 1909 
Q 1175 2209 1959 2209 
L 2766 2209 
L 2766 2266 
Q 2766 2663 2505 2880 
Q 2244 3097 1772 3097 
Q 1472 3097 1187 3025 
Q 903 2953 641 2809 
L 641 3341 
Q 956 3463 1253 3523 
Q 1550 3584 1831 3584 
Q 2591 3584 2966 3190 
Q 3341 2797 3341 1997 
z
" transform="scale(0.015625)"/>
       <path id="DejaVuSans-4a" d="M 2906 1791 
Q 2906 2416 2648 2759 
Q 2391 3103 1925 3103 
Q 1463 3103 1205 2759 
Q 947 2416 947 1791 
Q 947 1169 1205 825 
Q 1463 481 1925 481 
Q 2391 481 2648 825 
Q 2906 1169 2906 1791 
z
M 3481 434 
Q 3481 -459 3084 -895 
Q 2688 -1331 1869 -1331 
Q 1566 -1331 1297 -1286 
Q 1028 -1241 775 -1147 
L 775 -588 
Q 1028 -725 1275 -790 
Q 1522 -856 1778 -856 
Q 2344 -856 2625 -561 
Q 2906 -266 2906 331 
L 2906 616 
Q 2728 306 2450 153 
Q 2172 0 1784 0 
Q 1141 0 747 490 
Q 353 981 353 1791 
Q 353 2603 747 3093 
Q 1141 3584 1784 3584 
Q 2172 3584 2450 3431 
Q 2728 3278 2906 2969 
L 2906 3500 
L 3481 3500 
L 3481 434 
z
" transform="scale(0.015625)"/>
       <path id="DejaVuSans-3" transform="scale(0.015625)"/>
       <path id="DejaVuSans-57" d="M 1172 4494 
L 1172 3500 
L 2356 3500 
L 2356 3053 
L 1172 3053 
L 1172 1153 
Q 1172 725 1289 603 
Q 1406 481 1766 481 
L 2356 481 
L 2356 0 
L 1766 0 
Q 1100 0 847 248 
Q 594 497 594 1153 
L 594 3053 
L 172 3053 
L 172 3500 
L 594 3500 
L 594 4494 
L 1172 4494 
z
" transform="scale(0.015625)"/>
       <path id="DejaVuSans-4b" d="M 3513 2113 
L 3513 0 
L 2938 0 
L 2938 2094 
Q 2938 2591 2744 2837 
Q 2550 3084 2163 3084 
Q 1697 3084 1428 2787 
Q 1159 2491 1159 1978 
L 1159 0 
L 581 0 
L 581 4863 
L 1159 4863 
L 1159 2956 
Q 1366 3272 1645 3428 
Q 1925 3584 2291 3584 
Q 2894 3584 3203 3211 
Q 3513 2838 3513 2113 
z
" transform="scale(0.015625)"/>
       <path id="DejaVuSans-52" d="M 1959 3097 
Q 1497 3097 1228 2736 
Q 959 2375 959 1747 
Q 959 1119 1226 758 
Q 1494 397 1959 397 
Q 2419 397 2687 759 
Q 2956 1122 2956 1747 
Q 2956 2369 2687 2733 
Q 2419 3097 1959 3097 
z
M 1959 3584 
Q 2709 3584 3137 3096 
Q 3566 2609 3566 1747 
Q 3566 888 3137 398 
Q 2709 -91 1959 -91 
Q 1206 -91 779 398 
Q 353 888 353 1747 
Q 353 2609 779 3096 
Q 1206 3584 1959 3584 
z
" transform="scale(0.015625)"/>
       <path id="DejaVuSans-58" d="M 544 1381 
L 544 3500 
L 1119 3500 
L 1119 1403 
Q 1119 906 1312 657 
Q 1506 409 1894 409 
Q 2359 409 2629 706 
Q 2900 1003 2900 1516 
L 2900 3500 
L 3475 3500 
L 3475 0 
L 2900 0 
L 2900 538 
Q 2691 219 2414 64 
Q 2138 -91 1772 -91 
Q 1169 -91 856 284 
Q 544 659 544 1381 
z
M 1991 3584 
L 1991 3584 
z
" transform="scale(0.015625)"/>
       <path id="DejaVuSans-53" d="M 1159 525 
L 1159 -1331 
L 581 -1331 
L 581 3500 
L 1159 3500 
L 1159 2969 
Q 1341 3281 1617 3432 
Q 1894 3584 2278 3584 
Q 2916 3584 3314 3078 
Q 3713 2572 3713 1747 
Q 3713 922 3314 415 
Q 2916 -91 2278 -91 
Q 1894 -91 1617 61 
Q 1341 213 1159 525 
z
M 3116 1747 
Q 3116 2381 2855 2742 
Q 2594 3103 2138 3103 
Q 1681 3103 1420 2742 
Q 1159 2381 1159 1747 
Q 1159 1113 1420 752 
Q 1681 391 2138 391 
Q 2594 391 2855 752 
Q 3116 1113 3116 1747 
z
" transform="scale(0.015625)"/>
       <path id="DejaVuSans-b" d="M 1984 4856 
Q 1566 4138 1362 3434 
Q 1159 2731 1159 2009 
Q 1159 1288 1364 580 
Q 1569 -128 1984 -844 
L 1484 -844 
Q 1016 -109 783 600 
Q 550 1309 550 2009 
Q 550 2706 781 3412 
Q 1013 4119 1484 4856 
L 1984 4856 
z
" transform="scale(0.015625)"/>
       <path id="DejaVuSans-30" d="M 628 4666 
L 1569 4666 
L 2759 1491 
L 3956 4666 
L 4897 4666 
L 4897 0 
L 4281 0 
L 4281 4097 
L 3078 897 
L 2444 897 
L 1241 4097 
L 1241 0 
L 628 0 
L 628 4666 
z
" transform="scale(0.015625)"/>
       <path id="DejaVuSans-4c" d="M 603 3500 
L 1178 3500 
L 1178 0 
L 603 0 
L 603 3500 
z
M 603 4863 
L 1178 4863 
L 1178 4134 
L 603 4134 
L 603 4863 
z
" transform="scale(0.015625)"/>
       <path id="DejaVuSans-25" d="M 1259 2228 
L 1259 519 
L 2272 519 
Q 2781 519 3026 730 
Q 3272 941 3272 1375 
Q 3272 1813 3026 2020 
Q 2781 2228 2272 2228 
L 1259 2228 
z
M 1259 4147 
L 1259 2741 
L 2194 2741 
Q 2656 2741 2882 2914 
Q 3109 3088 3109 3444 
Q 3109 3797 2882 3972 
Q 2656 4147 2194 4147 
L 1259 4147 
z
M 628 4666 
L 2241 4666 
Q 2963 4666 3353 4366 
Q 3744 4066 3744 3513 
Q 3744 3084 3544 2831 
Q 3344 2578 2956 2516 
Q 3422 2416 3680 2098 
Q 3938 1781 3938 1306 
Q 3938 681 3513 340 
Q 3088 0 2303 0 
L 628 0 
L 628 4666 
z
" transform="scale(0.015625)"/>
       <path id="DejaVuSans-12" d="M 1625 4666 
L 2156 4666 
L 531 -594 
L 0 -594 
L 1625 4666 
z
" transform="scale(0.015625)"/>
       <path id="DejaVuSans-56" d="M 2834 3397 
L 2834 2853 
Q 2591 2978 2328 3040 
Q 2066 3103 1784 3103 
Q 1356 3103 1142 2972 
Q 928 2841 928 2578 
Q 928 2378 1081 2264 
Q 1234 2150 1697 2047 
L 1894 2003 
Q 2506 1872 2764 1633 
Q 3022 1394 3022 966 
Q 3022 478 2636 193 
Q 2250 -91 1575 -91 
Q 1294 -91 989 -36 
Q 684 19 347 128 
L 347 722 
Q 666 556 975 473 
Q 1284 391 1588 391 
Q 1994 391 2212 530 
Q 2431 669 2431 922 
Q 2431 1156 2273 1281 
Q 2116 1406 1581 1522 
L 1381 1569 
Q 847 1681 609 1914 
Q 372 2147 372 2553 
Q 372 3047 722 3315 
Q 1072 3584 1716 3584 
Q 2034 3584 2315 3537 
Q 2597 3491 2834 3397 
z
" transform="scale(0.015625)"/>
       <path id="DejaVuSans-c" d="M 513 4856 
L 1013 4856 
Q 1481 4119 1714 3412 
Q 1947 2706 1947 2009 
Q 1947 1309 1714 600 
Q 1481 -109 1013 -844 
L 513 -844 
Q 928 -128 1133 580 
Q 1338 1288 1338 2009 
Q 1338 2731 1133 3434 
Q 928 4138 513 4856 
z
" transform="scale(0.015625)"/>
      </defs>
      <use xlink:href="#DejaVuSans-24"/>
      <use xlink:href="#DejaVuSans-59" transform="translate(62.546875 0)"/>
      <use xlink:href="#DejaVuSans-48" transform="translate(121.734375 0)"/>
      <use xlink:href="#DejaVuSans-55" transform="translate(183.265625 0)"/>
      <use xlink:href="#DejaVuSans-44" transform="translate(224.375 0)"/>
      <use xlink:href="#DejaVuSans-4a" transform="translate(285.65625 0)"/>
      <use xlink:href="#DejaVuSans-48" transform="translate(349.140625 0)"/>
      <use xlink:href="#DejaVuSans-3" transform="translate(410.671875 0)"/>
      <use xlink:href="#DejaVuSans-57" transform="translate(442.453125 0)"/>
      <use xlink:href="#DejaVuSans-4b" transform="translate(481.65625 0)"/>
      <use xlink:href="#DejaVuSans-55" transform="translate(545.03125 0)"/>
      <use xlink:href="#DejaVuSans-52" transform="translate(583.9375 0)"/>
      <use xlink:href="#DejaVuSans-58" transform="translate(645.125 0)"/>
      <use xlink:href="#DejaVuSans-4a" transform="translate(708.5 0)"/>
      <use xlink:href="#DejaVuSans-4b" transform="translate(771.984375 0)"/>
      <use xlink:href="#DejaVuSans-53" transform="translate(835.359375 0)"/>
      <use xlink:href="#DejaVuSans-58" transform="translate(898.84375 0)"/>
      <use xlink:href="#DejaVuSans-57" transform="translate(962.21875 0)"/>
      <use xlink:href="#DejaVuSans-3" transform="translate(1001.421875 0)"/>
      <use xlink:href="#DejaVuSans-b" transform="translate(1033.203125 0)"/>
      <use xlink:href="#DejaVuSans-30" transform="translate(1072.21875 0)"/>
      <use xlink:href="#DejaVuSans-4c" transform="translate(1158.5 0)"/>
      <use xlink:href="#DejaVuSans-25" transform="translate(1186.28125 0)"/>
      <use xlink:href="#DejaVuSans-12" transform="translate(1254.890625 0)"/>
      <use xlink:href="#DejaVuSans-56" transform="translate(1288.578125 0)"/>
      <use xlink:href="#DejaVuSans-c" transform="translate(1340.671875 0)"/>
     </g>
    </g>
   </g>
   <g id="matplotlib.axis_2">
    <g id="ytick_1">
     <g id="text_9">
      <!-- JP direct -->
      <g style="fill: #6f768a" transform="translate(67.731813 158.195297) scale(0.09 -0.09)">
       <defs>
        <path id="DejaVuSans-2d" d="M 628 4666 
L 1259 4666 
L 1259 325 
Q 1259 -519 939 -900 
Q 619 -1281 -91 -1281 
L -331 -1281 
L -331 -750 
L -134 -750 
Q 284 -750 456 -515 
Q 628 -281 628 325 
L 628 4666 
z
" transform="scale(0.015625)"/>
        <path id="DejaVuSans-33" d="M 1259 4147 
L 1259 2394 
L 2053 2394 
Q 2494 2394 2734 2622 
Q 2975 2850 2975 3272 
Q 2975 3691 2734 3919 
Q 2494 4147 2053 4147 
L 1259 4147 
z
M 628 4666 
L 2053 4666 
Q 2838 4666 3239 4311 
Q 3641 3956 3641 3272 
Q 3641 2581 3239 2228 
Q 2838 1875 2053 1875 
L 1259 1875 
L 1259 0 
L 628 0 
L 628 4666 
z
" transform="scale(0.015625)"/>
        <path id="DejaVuSans-47" d="M 2906 2969 
L 2906 4863 
L 3481 4863 
L 3481 0 
L 2906 0 
L 2906 525 
Q 2725 213 2448 61 
Q 2172 -91 1784 -91 
Q 1150 -91 751 415 
Q 353 922 353 1747 
Q 353 2572 751 3078 
Q 1150 3584 1784 3584 
Q 2172 3584 2448 3432 
Q 2725 3281 2906 2969 
z
M 947 1747 
Q 947 1113 1208 752 
Q 1469 391 1925 391 
Q 2381 391 2643 752 
Q 2906 1113 2906 1747 
Q 2906 2381 2643 2742 
Q 2381 3103 1925 3103 
Q 1469 3103 1208 2742 
Q 947 2381 947 1747 
z
" transform="scale(0.015625)"/>
        <path id="DejaVuSans-46" d="M 3122 3366 
L 3122 2828 
Q 2878 2963 2633 3030 
Q 2388 3097 2138 3097 
Q 1578 3097 1268 2742 
Q 959 2388 959 1747 
Q 959 1106 1268 751 
Q 1578 397 2138 397 
Q 2388 397 2633 464 
Q 2878 531 3122 666 
L 3122 134 
Q 2881 22 2623 -34 
Q 2366 -91 2075 -91 
Q 1284 -91 818 406 
Q 353 903 353 1747 
Q 353 2603 823 3093 
Q 1294 3584 2113 3584 
Q 2378 3584 2631 3529 
Q 2884 3475 3122 3366 
z
" transform="scale(0.015625)"/>
       </defs>
       <use xlink:href="#DejaVuSans-2d"/>
       <use xlink:href="#DejaVuSans-33" transform="translate(29.5 0)"/>
       <use xlink:href="#DejaVuSans-3" transform="translate(89.796875 0)"/>
       <use xlink:href="#DejaVuSans-47" transform="translate(121.578125 0)"/>
       <use xlink:href="#DejaVuSans-4c" transform="translate(185.0625 0)"/>
       <use xlink:href="#DejaVuSans-55" transform="translate(212.84375 0)"/>
       <use xlink:href="#DejaVuSans-48" transform="translate(251.75 0)"/>
       <use xlink:href="#DejaVuSans-46" transform="translate(313.28125 0)"/>
       <use xlink:href="#DejaVuSans-57" transform="translate(368.265625 0)"/>
      </g>
     </g>
    </g>
    <g id="ytick_2">
     <g id="text_10">
      <!-- Tokyo primary -->
      <g style="fill: #6f768a" transform="translate(41.121344 230.435297) scale(0.09 -0.09)">
       <defs>
        <path id="DejaVuSans-37" d="M -19 4666 
L 3928 4666 
L 3928 4134 
L 2272 4134 
L 2272 0 
L 1638 0 
L 1638 4134 
L -19 4134 
L -19 4666 
z
" transform="scale(0.015625)"/>
        <path id="DejaVuSans-4e" d="M 581 4863 
L 1159 4863 
L 1159 1991 
L 2875 3500 
L 3609 3500 
L 1753 1863 
L 3688 0 
L 2938 0 
L 1159 1709 
L 1159 0 
L 581 0 
L 581 4863 
z
" transform="scale(0.015625)"/>
        <path id="DejaVuSans-5c" d="M 2059 -325 
Q 1816 -950 1584 -1140 
Q 1353 -1331 966 -1331 
L 506 -1331 
L 506 -850 
L 844 -850 
Q 1081 -850 1212 -737 
Q 1344 -625 1503 -206 
L 1606 56 
L 191 3500 
L 800 3500 
L 1894 763 
L 2988 3500 
L 3597 3500 
L 2059 -325 
z
" transform="scale(0.015625)"/>
        <path id="DejaVuSans-50" d="M 3328 2828 
Q 3544 3216 3844 3400 
Q 4144 3584 4550 3584 
Q 5097 3584 5394 3201 
Q 5691 2819 5691 2113 
L 5691 0 
L 5113 0 
L 5113 2094 
Q 5113 2597 4934 2840 
Q 4756 3084 4391 3084 
Q 3944 3084 3684 2787 
Q 3425 2491 3425 1978 
L 3425 0 
L 2847 0 
L 2847 2094 
Q 2847 2600 2669 2842 
Q 2491 3084 2119 3084 
Q 1678 3084 1418 2786 
Q 1159 2488 1159 1978 
L 1159 0 
L 581 0 
L 581 3500 
L 1159 3500 
L 1159 2956 
Q 1356 3278 1631 3431 
Q 1906 3584 2284 3584 
Q 2666 3584 2933 3390 
Q 3200 3197 3328 2828 
z
" transform="scale(0.015625)"/>
       </defs>
       <use xlink:href="#DejaVuSans-37"/>
       <use xlink:href="#DejaVuSans-52" transform="translate(44.09375 0)"/>
       <use xlink:href="#DejaVuSans-4e" transform="translate(105.28125 0)"/>
       <use xlink:href="#DejaVuSans-5c" transform="translate(159.625 0)"/>
       <use xlink:href="#DejaVuSans-52" transform="translate(218.8125 0)"/>
       <use xlink:href="#DejaVuSans-3" transform="translate(280 0)"/>
       <use xlink:href="#DejaVuSans-53" transform="translate(311.78125 0)"/>
       <use xlink:href="#DejaVuSans-55" transform="translate(375.265625 0)"/>
       <use xlink:href="#DejaVuSans-4c" transform="translate(416.375 0)"/>
       <use xlink:href="#DejaVuSans-50" transform="translate(444.15625 0)"/>
       <use xlink:href="#DejaVuSans-44" transform="translate(541.5625 0)"/>
       <use xlink:href="#DejaVuSans-55" transform="translate(602.84375 0)"/>
       <use xlink:href="#DejaVuSans-5c" transform="translate(643.953125 0)"/>
      </g>
     </g>
    </g>
    <g id="ytick_3">
     <g id="text_11">
      <!-- Tokyo Windows pkg -->
      <g style="fill: #6f768a" transform="translate(16.670875 302.675297) scale(0.09 -0.09)">
       <defs>
        <path id="DejaVuSans-3a" d="M 213 4666 
L 850 4666 
L 1831 722 
L 2809 4666 
L 3519 4666 
L 4500 722 
L 5478 4666 
L 6119 4666 
L 4947 0 
L 4153 0 
L 3169 4050 
L 2175 0 
L 1381 0 
L 213 4666 
z
" transform="scale(0.015625)"/>
        <path id="DejaVuSans-51" d="M 3513 2113 
L 3513 0 
L 2938 0 
L 2938 2094 
Q 2938 2591 2744 2837 
Q 2550 3084 2163 3084 
Q 1697 3084 1428 2787 
Q 1159 2491 1159 1978 
L 1159 0 
L 581 0 
L 581 3500 
L 1159 3500 
L 1159 2956 
Q 1366 3272 1645 3428 
Q 1925 3584 2291 3584 
Q 2894 3584 3203 3211 
Q 3513 2838 3513 2113 
z
" transform="scale(0.015625)"/>
        <path id="DejaVuSans-5a" d="M 269 3500 
L 844 3500 
L 1563 769 
L 2278 3500 
L 2956 3500 
L 3675 769 
L 4391 3500 
L 4966 3500 
L 4050 0 
L 3372 0 
L 2619 2869 
L 1863 0 
L 1184 0 
L 269 3500 
z
" transform="scale(0.015625)"/>
       </defs>
       <use xlink:href="#DejaVuSans-37"/>
       <use xlink:href="#DejaVuSans-52" transform="translate(44.09375 0)"/>
       <use xlink:href="#DejaVuSans-4e" transform="translate(105.28125 0)"/>
       <use xlink:href="#DejaVuSans-5c" transform="translate(159.625 0)"/>
       <use xlink:href="#DejaVuSans-52" transform="translate(218.8125 0)"/>
       <use xlink:href="#DejaVuSans-3" transform="translate(280 0)"/>
       <use xlink:href="#DejaVuSans-3a" transform="translate(311.78125 0)"/>
       <use xlink:href="#DejaVuSans-4c" transform="translate(408.453125 0)"/>
       <use xlink:href="#DejaVuSans-51" transform="translate(436.234375 0)"/>
       <use xlink:href="#DejaVuSans-47" transform="translate(499.609375 0)"/>
       <use xlink:href="#DejaVuSans-52" transform="translate(563.09375 0)"/>
       <use xlink:href="#DejaVuSans-5a" transform="translate(624.28125 0)"/>
       <use xlink:href="#DejaVuSans-56" transform="translate(706.0625 0)"/>
       <use xlink:href="#DejaVuSans-3" transform="translate(758.15625 0)"/>
       <use xlink:href="#DejaVuSans-53" transform="translate(789.9375 0)"/>
       <use xlink:href="#DejaVuSans-4e" transform="translate(853.421875 0)"/>
       <use xlink:href="#DejaVuSans-4a" transform="translate(911.328125 0)"/>
      </g>
     </g>
    </g>
    <g id="ytick_4">
     <g id="text_12">
      <!-- JP relay -&gt; MY -->
      <g style="fill: #6f768a" transform="translate(41.308375 374.915297) scale(0.09 -0.09)">
       <defs>
        <path id="DejaVuSans-4f" d="M 603 4863 
L 1178 4863 
L 1178 0 
L 603 0 
L 603 4863 
z
" transform="scale(0.015625)"/>
        <path id="DejaVuSans-10" d="M 313 2009 
L 1997 2009 
L 1997 1497 
L 313 1497 
L 313 2009 
z
" transform="scale(0.015625)"/>
        <path id="DejaVuSans-21" d="M 678 3150 
L 678 3719 
L 4684 2266 
L 4684 1747 
L 678 294 
L 678 863 
L 3897 2003 
L 678 3150 
z
" transform="scale(0.015625)"/>
        <path id="DejaVuSans-3c" d="M -13 4666 
L 666 4666 
L 1959 2747 
L 3244 4666 
L 3922 4666 
L 2272 2222 
L 2272 0 
L 1638 0 
L 1638 2222 
L -13 4666 
z
" transform="scale(0.015625)"/>
       </defs>
       <use xlink:href="#DejaVuSans-2d"/>
       <use xlink:href="#DejaVuSans-33" transform="translate(29.5 0)"/>
       <use xlink:href="#DejaVuSans-3" transform="translate(89.796875 0)"/>
       <use xlink:href="#DejaVuSans-55" transform="translate(121.578125 0)"/>
       <use xlink:href="#DejaVuSans-48" transform="translate(160.484375 0)"/>
       <use xlink:href="#DejaVuSans-4f" transform="translate(222.015625 0)"/>
       <use xlink:href="#DejaVuSans-44" transform="translate(249.796875 0)"/>
       <use xlink:href="#DejaVuSans-5c" transform="translate(311.078125 0)"/>
       <use xlink:href="#DejaVuSans-3" transform="translate(370.265625 0)"/>
       <use xlink:href="#DejaVuSans-10" transform="translate(402.046875 0)"/>
       <use xlink:href="#DejaVuSans-21" transform="translate(438.125 0)"/>
       <use xlink:href="#DejaVuSans-3" transform="translate(521.921875 0)"/>
       <use xlink:href="#DejaVuSans-30" transform="translate(553.703125 0)"/>
       <use xlink:href="#DejaVuSans-3c" transform="translate(639.984375 0)"/>
      </g>
     </g>
    </g>
    <g id="ytick_5">
     <g id="text_13">
      <!-- Malaysia vps@my -->
      <g style="fill: #6f768a" transform="translate(23.394156 447.155297) scale(0.09 -0.09)">
       <defs>
        <path id="DejaVuSans-23" d="M 2381 1678 
Q 2381 1231 2603 976 
Q 2825 722 3213 722 
Q 3597 722 3817 978 
Q 4038 1234 4038 1678 
Q 4038 2116 3813 2373 
Q 3588 2631 3206 2631 
Q 2828 2631 2604 2375 
Q 2381 2119 2381 1678 
z
M 4084 744 
Q 3897 503 3655 389 
Q 3413 275 3091 275 
Q 2553 275 2217 664 
Q 1881 1053 1881 1678 
Q 1881 2303 2218 2693 
Q 2556 3084 3091 3084 
Q 3413 3084 3656 2967 
Q 3900 2850 4084 2613 
L 4084 3022 
L 4531 3022 
L 4531 722 
Q 4988 791 5245 1139 
Q 5503 1488 5503 2041 
Q 5503 2375 5404 2669 
Q 5306 2963 5106 3213 
Q 4781 3622 4314 3839 
Q 3847 4056 3297 4056 
Q 2913 4056 2559 3954 
Q 2206 3853 1906 3653 
Q 1416 3334 1139 2817 
Q 863 2300 863 1697 
Q 863 1200 1042 765 
Q 1222 331 1563 0 
Q 1891 -325 2322 -495 
Q 2753 -666 3244 -666 
Q 3647 -666 4036 -530 
Q 4425 -394 4750 -141 
L 5031 -488 
Q 4641 -791 4180 -952 
Q 3719 -1113 3244 -1113 
Q 2666 -1113 2153 -908 
Q 1641 -703 1241 -313 
Q 841 78 631 592 
Q 422 1106 422 1697 
Q 422 2266 634 2781 
Q 847 3297 1241 3688 
Q 1644 4084 2172 4295 
Q 2700 4506 3291 4506 
Q 3953 4506 4520 4234 
Q 5088 3963 5472 3463 
Q 5706 3156 5829 2797 
Q 5953 2438 5953 2053 
Q 5953 1231 5456 756 
Q 4959 281 4084 263 
L 4084 744 
z
" transform="scale(0.015625)"/>
       </defs>
       <use xlink:href="#DejaVuSans-30"/>
       <use xlink:href="#DejaVuSans-44" transform="translate(86.28125 0)"/>
       <use xlink:href="#DejaVuSans-4f" transform="translate(147.5625 0)"/>
       <use xlink:href="#DejaVuSans-44" transform="translate(175.34375 0)"/>
       <use xlink:href="#DejaVuSans-5c" transform="translate(236.625 0)"/>
       <use xlink:href="#DejaVuSans-56" transform="translate(295.8125 0)"/>
       <use xlink:href="#DejaVuSans-4c" transform="translate(347.90625 0)"/>
       <use xlink:href="#DejaVuSans-44" transform="translate(375.6875 0)"/>
       <use xlink:href="#DejaVuSans-3" transform="translate(436.96875 0)"/>
       <use xlink:href="#DejaVuSans-59" transform="translate(468.75 0)"/>
       <use xlink:href="#DejaVuSans-53" transform="translate(527.9375 0)"/>
       <use xlink:href="#DejaVuSans-56" transform="translate(591.421875 0)"/>
       <use xlink:href="#DejaVuSans-23" transform="translate(643.515625 0)"/>
       <use xlink:href="#DejaVuSans-50" transform="translate(743.515625 0)"/>
       <use xlink:href="#DejaVuSans-5c" transform="translate(840.921875 0)"/>
      </g>
     </g>
    </g>
    <g id="ytick_6">
     <g id="text_14">
      <!-- Malaysia shared -->
      <g style="fill: #6f768a" transform="translate(31.556031 519.395297) scale(0.09 -0.09)">
       <use xlink:href="#DejaVuSans-30"/>
       <use xlink:href="#DejaVuSans-44" transform="translate(86.28125 0)"/>
       <use xlink:href="#DejaVuSans-4f" transform="translate(147.5625 0)"/>
       <use xlink:href="#DejaVuSans-44" transform="translate(175.34375 0)"/>
       <use xlink:href="#DejaVuSans-5c" transform="translate(236.625 0)"/>
       <use xlink:href="#DejaVuSans-56" transform="translate(295.8125 0)"/>
       <use xlink:href="#DejaVuSans-4c" transform="translate(347.90625 0)"/>
       <use xlink:href="#DejaVuSans-44" transform="translate(375.6875 0)"/>
       <use xlink:href="#DejaVuSans-3" transform="translate(436.96875 0)"/>
       <use xlink:href="#DejaVuSans-56" transform="translate(468.75 0)"/>
       <use xlink:href="#DejaVuSans-4b" transform="translate(520.84375 0)"/>
       <use xlink:href="#DejaVuSans-44" transform="translate(584.21875 0)"/>
       <use xlink:href="#DejaVuSans-55" transform="translate(645.5 0)"/>
       <use xlink:href="#DejaVuSans-48" transform="translate(684.40625 0)"/>
       <use xlink:href="#DejaVuSans-47" transform="translate(745.9375 0)"/>
      </g>
     </g>
    </g>
   </g>
   <g id="patch_3">
    <path d="M 113.904 125.88 
L 552.024202 125.88 
L 552.024202 154.776 
L 113.904 154.776 
z
" clip-path="url(#pc92ef2cb02)" style="fill: #aec2ef; stroke: #1f2430; stroke-width: 0.7; stroke-linejoin: miter"/>
   </g>
   <g id="patch_4">
    <path d="M 113.904 198.12 
L 489.435564 198.12 
L 489.435564 227.016 
L 113.904 227.016 
z
" clip-path="url(#pc92ef2cb02)" style="fill: #aec2ef; stroke: #1f2430; stroke-width: 0.7; stroke-linejoin: miter"/>
   </g>
   <g id="patch_5">
    <path d="M 113.904 270.36 
L 458.141289 270.36 
L 458.141289 299.256 
L 113.904 299.256 
z
" clip-path="url(#pc92ef2cb02)" style="fill: #aec2ef; stroke: #1f2430; stroke-width: 0.7; stroke-linejoin: miter"/>
   </g>
   <g id="patch_6">
    <path d="M 113.904 342.6 
L 339.222911 342.6 
L 339.222911 371.496 
L 113.904 371.496 
z
" clip-path="url(#pc92ef2cb02)" style="fill: #aec2ef; stroke: #1f2430; stroke-width: 0.7; stroke-linejoin: miter"/>
   </g>
   <g id="patch_7">
    <path d="M 113.904 414.84 
L 236.100744 414.84 
L 236.100744 443.736 
L 113.904 443.736 
z
" clip-path="url(#pc92ef2cb02)" style="fill: #aec2ef; stroke: #1f2430; stroke-width: 0.7; stroke-linejoin: miter"/>
   </g>
   <g id="patch_8">
    <path d="M 113.904 487.08 
L 212.376681 487.08 
L 212.376681 515.976 
L 113.904 515.976 
z
" clip-path="url(#pc92ef2cb02)" style="fill: #aec2ef; stroke: #1f2430; stroke-width: 0.7; stroke-linejoin: miter"/>
   </g>
   <g id="patch_9">
    <path d="M 113.904 154.776 
L 242.064675 154.776 
L 242.064675 183.672 
L 113.904 183.672 
z
" clip-path="url(#pc92ef2cb02)" style="fill: #e09e7e; stroke: #1f2430; stroke-width: 0.7; stroke-linejoin: miter"/>
   </g>
   <g id="patch_10">
    <path d="M 113.904 227.016 
L 277.085343 227.016 
L 277.085343 255.912 
L 113.904 255.912 
z
" clip-path="url(#pc92ef2cb02)" style="fill: #e09e7e; stroke: #1f2430; stroke-width: 0.7; stroke-linejoin: miter"/>
   </g>
   <g id="patch_11">
    <path d="M 113.904 299.256 
L 262.928047 299.256 
L 262.928047 328.152 
L 113.904 328.152 
z
" clip-path="url(#pc92ef2cb02)" style="fill: #e09e7e; stroke: #1f2430; stroke-width: 0.7; stroke-linejoin: miter"/>
   </g>
   <g id="patch_12">
    <path d="M 113.904 371.496 
L 227.609366 371.496 
L 227.609366 400.392 
L 113.904 400.392 
z
" clip-path="url(#pc92ef2cb02)" style="fill: #e09e7e; stroke: #1f2430; stroke-width: 0.7; stroke-linejoin: miter"/>
   </g>
   <g id="patch_13">
    <path d="M 113.904 443.736 
L 167.792647 443.736 
L 167.792647 472.632 
L 113.904 472.632 
z
" clip-path="url(#pc92ef2cb02)" style="fill: #e09e7e; stroke: #1f2430; stroke-width: 0.7; stroke-linejoin: miter"/>
   </g>
   <g id="patch_14">
    <path d="M 113.904 515.976 
L 152.657105 515.976 
L 152.657105 544.872 
L 113.904 544.872 
z
" clip-path="url(#pc92ef2cb02)" style="fill: #e09e7e; stroke: #1f2430; stroke-width: 0.7; stroke-linejoin: miter"/>
   </g>
   <g id="patch_15">
    <path d="M 113.904 154.776 
L 113.904 154.776 
L 113.904 154.776 
L 113.904 154.776 
z
" clip-path="url(#pc92ef2cb02)" style="fill: #aec2ef; stroke: #1f2430; stroke-width: 0.7; stroke-linejoin: miter"/>
   </g>
   <g id="patch_16">
    <path d="M 113.904 154.776 
L 113.904 154.776 
L 113.904 154.776 
L 113.904 154.776 
z
" clip-path="url(#pc92ef2cb02)" style="fill: #e09e7e; stroke: #1f2430; stroke-width: 0.7; stroke-linejoin: miter"/>
   </g>
   <g id="line2d_1">
    <path clip-path="url(#pc92ef2cb02)" style="fill: none; stroke: #424242; stroke-width: 2.25; stroke-linecap: round"/>
   </g>
   <g id="line2d_2">
    <path clip-path="url(#pc92ef2cb02)" style="fill: none; stroke: #424242; stroke-width: 2.25; stroke-linecap: round"/>
   </g>
   <g id="line2d_3">
    <path clip-path="url(#pc92ef2cb02)" style="fill: none; stroke: #424242; stroke-width: 2.25; stroke-linecap: round"/>
   </g>
   <g id="line2d_4">
    <path clip-path="url(#pc92ef2cb02)" style="fill: none; stroke: #424242; stroke-width: 2.25; stroke-linecap: round"/>
   </g>
   <g id="line2d_5">
    <path clip-path="url(#pc92ef2cb02)" style="fill: none; stroke: #424242; stroke-width: 2.25; stroke-linecap: round"/>
   </g>
   <g id="line2d_6">
    <path clip-path="url(#pc92ef2cb02)" style="fill: none; stroke: #424242; stroke-width: 2.25; stroke-linecap: round"/>
   </g>
   <g id="line2d_7">
    <path clip-path="url(#pc92ef2cb02)" style="fill: none; stroke: #424242; stroke-width: 2.25; stroke-linecap: round"/>
   </g>
   <g id="line2d_8">
    <path clip-path="url(#pc92ef2cb02)" style="fill: none; stroke: #424242; stroke-width: 2.25; stroke-linecap: round"/>
   </g>
   <g id="line2d_9">
    <path clip-path="url(#pc92ef2cb02)" style="fill: none; stroke: #424242; stroke-width: 2.25; stroke-linecap: round"/>
   </g>
   <g id="line2d_10">
    <path clip-path="url(#pc92ef2cb02)" style="fill: none; stroke: #424242; stroke-width: 2.25; stroke-linecap: round"/>
   </g>
   <g id="line2d_11">
    <path clip-path="url(#pc92ef2cb02)" style="fill: none; stroke: #424242; stroke-width: 2.25; stroke-linecap: round"/>
   </g>
   <g id="line2d_12">
    <path clip-path="url(#pc92ef2cb02)" style="fill: none; stroke: #424242; stroke-width: 2.25; stroke-linecap: round"/>
   </g>
   <g id="patch_17">
    <path d="M 113.904 552.096 
L 113.904 118.656 
" style="fill: none; stroke: #d7dbe7; stroke-width: 1.25; stroke-linejoin: miter; stroke-linecap: square"/>
   </g>
   <g id="patch_18">
    <path d="M 113.904 552.096 
L 573.930212 552.096 
" style="fill: none; stroke: #d7dbe7; stroke-width: 1.25; stroke-linejoin: miter; stroke-linecap: square"/>
   </g>
   <g id="text_15">
    <!-- 3.11 -->
    <g style="fill: #1f2430" transform="translate(557.657177 142.406125) scale(0.08 -0.08)">
     <defs>
      <path id="DejaVuSansMono-16" d="M 2425 2497 
Q 2884 2375 3128 2064 
Q 3372 1753 3372 1288 
Q 3372 644 2939 276 
Q 2506 -91 1741 -91 
Q 1419 -91 1084 -31 
Q 750 28 428 141 
L 428 769 
Q 747 603 1056 522 
Q 1366 441 1672 441 
Q 2191 441 2469 675 
Q 2747 909 2747 1350 
Q 2747 1756 2469 1995 
Q 2191 2234 1716 2234 
L 1234 2234 
L 1234 2753 
L 1716 2753 
Q 2150 2753 2394 2943 
Q 2638 3134 2638 3475 
Q 2638 3834 2411 4026 
Q 2184 4219 1766 4219 
Q 1488 4219 1191 4156 
Q 894 4094 569 3969 
L 569 4550 
Q 947 4650 1242 4700 
Q 1538 4750 1766 4750 
Q 2447 4750 2855 4408 
Q 3263 4066 3263 3500 
Q 3263 3116 3048 2859 
Q 2834 2603 2425 2497 
z
" transform="scale(0.015625)"/>
      <path id="DejaVuSansMono-11" d="M 1528 953 
L 2316 953 
L 2316 0 
L 1528 0 
L 1528 953 
z
" transform="scale(0.015625)"/>
      <path id="DejaVuSansMono-14" d="M 844 531 
L 1825 531 
L 1825 4097 
L 769 3859 
L 769 4434 
L 1819 4666 
L 2450 4666 
L 2450 531 
L 3419 531 
L 3419 0 
L 844 0 
L 844 531 
z
" transform="scale(0.015625)"/>
     </defs>
     <use xlink:href="#DejaVuSansMono-16"/>
     <use xlink:href="#DejaVuSansMono-11" transform="translate(60.203125 0)"/>
     <use xlink:href="#DejaVuSansMono-14" transform="translate(120.40625 0)"/>
     <use xlink:href="#DejaVuSansMono-14" transform="translate(180.609375 0)"/>
    </g>
   </g>
   <g id="text_16">
    <!-- 2.67 -->
    <g style="fill: #1f2430" transform="translate(495.068538 214.646125) scale(0.08 -0.08)">
     <defs>
      <path id="DejaVuSansMono-15" d="M 1166 531 
L 3309 531 
L 3309 0 
L 475 0 
L 475 531 
Q 1059 1147 1496 1619 
Q 1934 2091 2100 2284 
Q 2413 2666 2522 2902 
Q 2631 3138 2631 3384 
Q 2631 3775 2401 3997 
Q 2172 4219 1772 4219 
Q 1488 4219 1175 4116 
Q 863 4013 513 3803 
L 513 4441 
Q 834 4594 1145 4672 
Q 1456 4750 1759 4750 
Q 2444 4750 2861 4386 
Q 3278 4022 3278 3431 
Q 3278 3131 3139 2831 
Q 3000 2531 2688 2169 
Q 2513 1966 2180 1606 
Q 1847 1247 1166 531 
z
" transform="scale(0.015625)"/>
      <path id="DejaVuSansMono-19" d="M 3097 4563 
L 3097 3981 
Q 2900 4097 2678 4158 
Q 2456 4219 2216 4219 
Q 1616 4219 1306 3767 
Q 997 3316 997 2438 
Q 1147 2750 1412 2917 
Q 1678 3084 2022 3084 
Q 2697 3084 3067 2670 
Q 3438 2256 3438 1497 
Q 3438 741 3056 325 
Q 2675 -91 1984 -91 
Q 1172 -91 794 492 
Q 416 1075 416 2328 
Q 416 3509 870 4129 
Q 1325 4750 2188 4750 
Q 2419 4750 2650 4701 
Q 2881 4653 3097 4563 
z
M 1972 2591 
Q 1569 2591 1337 2300 
Q 1106 2009 1106 1497 
Q 1106 984 1337 693 
Q 1569 403 1972 403 
Q 2391 403 2603 679 
Q 2816 956 2816 1497 
Q 2816 2041 2603 2316 
Q 2391 2591 1972 2591 
z
" transform="scale(0.015625)"/>
      <path id="DejaVuSansMono-1a" d="M 434 4666 
L 3372 4666 
L 3372 4397 
L 1703 0 
L 1044 0 
L 2669 4134 
L 434 4134 
L 434 4666 
z
" transform="scale(0.015625)"/>
     </defs>
     <use xlink:href="#DejaVuSansMono-15"/>
     <use xlink:href="#DejaVuSansMono-11" transform="translate(60.203125 0)"/>
     <use xlink:href="#DejaVuSansMono-19" transform="translate(120.40625 0)"/>
     <use xlink:href="#DejaVuSansMono-1a" transform="translate(180.609375 0)"/>
    </g>
   </g>
   <g id="text_17">
    <!-- 2.44 -->
    <g style="fill: #1f2430" transform="translate(463.774264 286.886125) scale(0.08 -0.08)">
     <defs>
      <path id="DejaVuSansMono-17" d="M 2297 4091 
L 825 1625 
L 2297 1625 
L 2297 4091 
z
M 2194 4666 
L 2925 4666 
L 2925 1625 
L 3547 1625 
L 3547 1113 
L 2925 1113 
L 2925 0 
L 2297 0 
L 2297 1113 
L 319 1113 
L 319 1709 
L 2194 4666 
z
" transform="scale(0.015625)"/>
     </defs>
     <use xlink:href="#DejaVuSansMono-15"/>
     <use xlink:href="#DejaVuSansMono-11" transform="translate(60.203125 0)"/>
     <use xlink:href="#DejaVuSansMono-17" transform="translate(120.40625 0)"/>
     <use xlink:href="#DejaVuSansMono-17" transform="translate(180.609375 0)"/>
    </g>
   </g>
   <g id="text_18">
    <!-- 1.60 -->
    <g style="fill: #1f2430" transform="translate(344.855886 359.126125) scale(0.08 -0.08)">
     <defs>
      <path id="DejaVuSansMono-13" d="M 1509 2344 
Q 1509 2516 1629 2641 
Q 1750 2766 1919 2766 
Q 2094 2766 2219 2641 
Q 2344 2516 2344 2344 
Q 2344 2169 2220 2047 
Q 2097 1925 1919 1925 
Q 1744 1925 1626 2044 
Q 1509 2163 1509 2344 
z
M 1925 4250 
Q 1484 4250 1267 3775 
Q 1050 3300 1050 2328 
Q 1050 1359 1267 884 
Q 1484 409 1925 409 
Q 2369 409 2586 884 
Q 2803 1359 2803 2328 
Q 2803 3300 2586 3775 
Q 2369 4250 1925 4250 
z
M 1925 4750 
Q 2672 4750 3055 4137 
Q 3438 3525 3438 2328 
Q 3438 1134 3055 521 
Q 2672 -91 1925 -91 
Q 1178 -91 797 521 
Q 416 1134 416 2328 
Q 416 3525 797 4137 
Q 1178 4750 1925 4750 
z
" transform="scale(0.015625)"/>
     </defs>
     <use xlink:href="#DejaVuSansMono-14"/>
     <use xlink:href="#DejaVuSansMono-11" transform="translate(60.203125 0)"/>
     <use xlink:href="#DejaVuSansMono-19" transform="translate(120.40625 0)"/>
     <use xlink:href="#DejaVuSansMono-13" transform="translate(180.609375 0)"/>
    </g>
   </g>
   <g id="text_19">
    <!-- 0.87 -->
    <g style="fill: #1f2430" transform="translate(241.733719 431.366125) scale(0.08 -0.08)">
     <defs>
      <path id="DejaVuSansMono-1b" d="M 1925 2216 
Q 1503 2216 1273 1980 
Q 1044 1744 1044 1313 
Q 1044 881 1276 642 
Q 1509 403 1925 403 
Q 2350 403 2579 639 
Q 2809 875 2809 1313 
Q 2809 1741 2576 1978 
Q 2344 2216 1925 2216 
z
M 1375 2478 
Q 972 2581 745 2862 
Q 519 3144 519 3541 
Q 519 4097 897 4423 
Q 1275 4750 1925 4750 
Q 2578 4750 2956 4423 
Q 3334 4097 3334 3541 
Q 3334 3144 3107 2862 
Q 2881 2581 2478 2478 
Q 2947 2375 3195 2062 
Q 3444 1750 3444 1253 
Q 3444 622 3041 265 
Q 2638 -91 1925 -91 
Q 1213 -91 811 264 
Q 409 619 409 1247 
Q 409 1747 657 2061 
Q 906 2375 1375 2478 
z
M 1147 3481 
Q 1147 3106 1347 2909 
Q 1547 2713 1925 2713 
Q 2306 2713 2506 2909 
Q 2706 3106 2706 3481 
Q 2706 3863 2507 4063 
Q 2309 4263 1925 4263 
Q 1547 4263 1347 4061 
Q 1147 3859 1147 3481 
z
" transform="scale(0.015625)"/>
     </defs>
     <use xlink:href="#DejaVuSansMono-13"/>
     <use xlink:href="#DejaVuSansMono-11" transform="translate(60.203125 0)"/>
     <use xlink:href="#DejaVuSansMono-1b" transform="translate(120.40625 0)"/>
     <use xlink:href="#DejaVuSansMono-1a" transform="translate(180.609375 0)"/>
    </g>
   </g>
   <g id="text_20">
    <!-- 0.70 -->
    <g style="fill: #1f2430" transform="translate(218.009655 503.606125) scale(0.08 -0.08)">
     <use xlink:href="#DejaVuSansMono-13"/>
     <use xlink:href="#DejaVuSansMono-11" transform="translate(60.203125 0)"/>
     <use xlink:href="#DejaVuSansMono-1a" transform="translate(120.40625 0)"/>
     <use xlink:href="#DejaVuSansMono-13" transform="translate(180.609375 0)"/>
    </g>
   </g>
   <g id="text_21">
    <!-- 0.91 -->
    <g style="fill: #1f2430" transform="translate(247.69765 171.302125) scale(0.08 -0.08)">
     <defs>
      <path id="DejaVuSansMono-1c" d="M 1863 2069 
Q 2266 2069 2495 2359 
Q 2725 2650 2725 3163 
Q 2725 3675 2495 3965 
Q 2266 4256 1863 4256 
Q 1444 4256 1231 3979 
Q 1019 3703 1019 3163 
Q 1019 2619 1230 2344 
Q 1441 2069 1863 2069 
z
M 738 97 
L 738 678 
Q 934 563 1156 502 
Q 1378 441 1619 441 
Q 2219 441 2526 892 
Q 2834 1344 2834 2222 
Q 2688 1909 2422 1742 
Q 2156 1575 1813 1575 
Q 1138 1575 767 1990 
Q 397 2406 397 3169 
Q 397 3922 776 4336 
Q 1156 4750 1850 4750 
Q 2663 4750 3041 4165 
Q 3419 3581 3419 2328 
Q 3419 1150 2964 529 
Q 2509 -91 1644 -91 
Q 1416 -91 1184 -42 
Q 953 6 738 97 
z
" transform="scale(0.015625)"/>
     </defs>
     <use xlink:href="#DejaVuSansMono-13"/>
     <use xlink:href="#DejaVuSansMono-11" transform="translate(60.203125 0)"/>
     <use xlink:href="#DejaVuSansMono-1c" transform="translate(120.40625 0)"/>
     <use xlink:href="#DejaVuSansMono-14" transform="translate(180.609375 0)"/>
    </g>
   </g>
   <g id="text_22">
    <!-- 1.16 -->
    <g style="fill: #1f2430" transform="translate(282.718318 243.542125) scale(0.08 -0.08)">
     <use xlink:href="#DejaVuSansMono-14"/>
     <use xlink:href="#DejaVuSansMono-11" transform="translate(60.203125 0)"/>
     <use xlink:href="#DejaVuSansMono-14" transform="translate(120.40625 0)"/>
     <use xlink:href="#DejaVuSansMono-19" transform="translate(180.609375 0)"/>
    </g>
   </g>
   <g id="text_23">
    <!-- 1.06 -->
    <g style="fill: #1f2430" transform="translate(268.561022 315.782125) scale(0.08 -0.08)">
     <use xlink:href="#DejaVuSansMono-14"/>
     <use xlink:href="#DejaVuSansMono-11" transform="translate(60.203125 0)"/>
     <use xlink:href="#DejaVuSansMono-13" transform="translate(120.40625 0)"/>
     <use xlink:href="#DejaVuSansMono-19" transform="translate(180.609375 0)"/>
    </g>
   </g>
   <g id="text_24">
    <!-- 0.81 -->
    <g style="fill: #1f2430" transform="translate(233.242341 388.022125) scale(0.08 -0.08)">
     <use xlink:href="#DejaVuSansMono-13"/>
     <use xlink:href="#DejaVuSansMono-11" transform="translate(60.203125 0)"/>
     <use xlink:href="#DejaVuSansMono-1b" transform="translate(120.40625 0)"/>
     <use xlink:href="#DejaVuSansMono-14" transform="translate(180.609375 0)"/>
    </g>
   </g>
   <g id="text_25">
    <!-- 0.38 -->
    <g style="fill: #1f2430" transform="translate(173.425622 460.262125) scale(0.08 -0.08)">
     <use xlink:href="#DejaVuSansMono-13"/>
     <use xlink:href="#DejaVuSansMono-11" transform="translate(60.203125 0)"/>
     <use xlink:href="#DejaVuSansMono-16" transform="translate(120.40625 0)"/>
     <use xlink:href="#DejaVuSansMono-1b" transform="translate(180.609375 0)"/>
    </g>
   </g>
   <g id="text_26">
    <!-- 0.28 -->
    <g style="fill: #1f2430" transform="translate(158.29008 532.502125) scale(0.08 -0.08)">
     <use xlink:href="#DejaVuSansMono-13"/>
     <use xlink:href="#DejaVuSansMono-11" transform="translate(60.203125 0)"/>
     <use xlink:href="#DejaVuSansMono-15" transform="translate(120.40625 0)"/>
     <use xlink:href="#DejaVuSansMono-1b" transform="translate(180.609375 0)"/>
    </g>
   </g>
   <g id="legend_1">
    <g id="patch_19">
     <path d="M 118.304 102.944622 
L 140.304 102.944622 
L 140.304 95.244622 
L 118.304 95.244622 
z
" style="fill: #aec2ef; stroke: #1f2430; stroke-width: 0.7; stroke-linejoin: miter"/>
    </g>
    <g id="text_27">
     <!-- Download -->
     <g style="fill: #262626" transform="translate(149.104 102.944622) scale(0.11 -0.11)">
      <defs>
       <path id="DejaVuSans-27" d="M 1259 4147 
L 1259 519 
L 2022 519 
Q 2988 519 3436 956 
Q 3884 1394 3884 2338 
Q 3884 3275 3436 3711 
Q 2988 4147 2022 4147 
L 1259 4147 
z
M 628 4666 
L 1925 4666 
Q 3281 4666 3915 4102 
Q 4550 3538 4550 2338 
Q 4550 1131 3912 565 
Q 3275 0 1925 0 
L 628 0 
L 628 4666 
z
" transform="scale(0.015625)"/>
      </defs>
      <use xlink:href="#DejaVuSans-27"/>
      <use xlink:href="#DejaVuSans-52" transform="translate(77 0)"/>
      <use xlink:href="#DejaVuSans-5a" transform="translate(138.1875 0)"/>
      <use xlink:href="#DejaVuSans-51" transform="translate(219.96875 0)"/>
      <use xlink:href="#DejaVuSans-4f" transform="translate(283.34375 0)"/>
      <use xlink:href="#DejaVuSans-52" transform="translate(311.125 0)"/>
      <use xlink:href="#DejaVuSans-44" transform="translate(372.3125 0)"/>
      <use xlink:href="#DejaVuSans-47" transform="translate(433.59375 0)"/>
     </g>
    </g>
    <g id="patch_20">
     <path d="M 225.782594 102.944622 
L 247.782594 102.944622 
L 247.782594 95.244622 
L 225.782594 95.244622 
z
" style="fill: #e09e7e; stroke: #1f2430; stroke-width: 0.7; stroke-linejoin: miter"/>
    </g>
    <g id="text_28">
     <!-- Upload -->
     <g style="fill: #262626" transform="translate(256.582594 102.944622) scale(0.11 -0.11)">
      <defs>
       <path id="DejaVuSans-38" d="M 556 4666 
L 1191 4666 
L 1191 1831 
Q 1191 1081 1462 751 
Q 1734 422 2344 422 
Q 2950 422 3222 751 
Q 3494 1081 3494 1831 
L 3494 4666 
L 4128 4666 
L 4128 1753 
Q 4128 841 3676 375 
Q 3225 -91 2344 -91 
Q 1459 -91 1007 375 
Q 556 841 556 1753 
L 556 4666 
z
" transform="scale(0.015625)"/>
      </defs>
      <use xlink:href="#DejaVuSans-38"/>
      <use xlink:href="#DejaVuSans-53" transform="translate(73.1875 0)"/>
      <use xlink:href="#DejaVuSans-4f" transform="translate(136.671875 0)"/>
      <use xlink:href="#DejaVuSans-52" transform="translate(164.453125 0)"/>
      <use xlink:href="#DejaVuSans-44" transform="translate(225.640625 0)"/>
      <use xlink:href="#DejaVuSans-47" transform="translate(286.921875 0)"/>
     </g>
    </g>
   </g>
  </g>
  <g id="axes_2">
   <g id="patch_21">
    <path d="M 643.486176 552.096 
L 956.304 552.096 
L 956.304 118.656 
L 643.486176 118.656 
z
" style="fill: #ffffff"/>
   </g>
   <g id="matplotlib.axis_3">
    <g id="xtick_8">
     <g id="text_29">
      <!-- 0 -->
      <g style="fill: #6f768a" transform="translate(640.623051 568.433891) scale(0.09 -0.09)">
       <use xlink:href="#DejaVuSans-13"/>
      </g>
     </g>
    </g>
    <g id="xtick_9">
     <g id="text_30">
      <!-- 250 -->
      <g style="fill: #6f768a" transform="translate(681.998555 568.433891) scale(0.09 -0.09)">
       <use xlink:href="#DejaVuSans-15"/>
       <use xlink:href="#DejaVuSans-18" transform="translate(63.625 0)"/>
       <use xlink:href="#DejaVuSans-13" transform="translate(127.25 0)"/>
      </g>
     </g>
    </g>
    <g id="xtick_10">
     <g id="text_31">
      <!-- 500 -->
      <g style="fill: #6f768a" transform="translate(729.10031 568.433891) scale(0.09 -0.09)">
       <use xlink:href="#DejaVuSans-18"/>
       <use xlink:href="#DejaVuSans-13" transform="translate(63.625 0)"/>
       <use xlink:href="#DejaVuSans-13" transform="translate(127.25 0)"/>
      </g>
     </g>
    </g>
    <g id="xtick_11">
     <g id="text_32">
      <!-- 750 -->
      <g style="fill: #6f768a" transform="translate(776.202064 568.433891) scale(0.09 -0.09)">
       <defs>
        <path id="DejaVuSans-1a" d="M 525 4666 
L 3525 4666 
L 3525 4397 
L 1831 0 
L 1172 0 
L 2766 4134 
L 525 4134 
L 525 4666 
z
" transform="scale(0.015625)"/>
       </defs>
       <use xlink:href="#DejaVuSans-1a"/>
       <use xlink:href="#DejaVuSans-18" transform="translate(63.625 0)"/>
       <use xlink:href="#DejaVuSans-13" transform="translate(127.25 0)"/>
      </g>
     </g>
    </g>
    <g id="xtick_12">
     <g id="text_33">
      <!-- 1000 -->
      <g style="fill: #6f768a" transform="translate(820.440694 568.433891) scale(0.09 -0.09)">
       <use xlink:href="#DejaVuSans-14"/>
       <use xlink:href="#DejaVuSans-13" transform="translate(63.625 0)"/>
       <use xlink:href="#DejaVuSans-13" transform="translate(127.25 0)"/>
       <use xlink:href="#DejaVuSans-13" transform="translate(190.875 0)"/>
      </g>
     </g>
    </g>
    <g id="xtick_13">
     <g id="text_34">
      <!-- 1250 -->
      <g style="fill: #6f768a" transform="translate(867.542448 568.433891) scale(0.09 -0.09)">
       <use xlink:href="#DejaVuSans-14"/>
       <use xlink:href="#DejaVuSans-15" transform="translate(63.625 0)"/>
       <use xlink:href="#DejaVuSans-18" transform="translate(127.25 0)"/>
       <use xlink:href="#DejaVuSans-13" transform="translate(190.875 0)"/>
      </g>
     </g>
    </g>
    <g id="xtick_14">
     <g id="text_35">
      <!-- 1500 -->
      <g style="fill: #6f768a" transform="translate(914.644203 568.433891) scale(0.09 -0.09)">
       <use xlink:href="#DejaVuSans-14"/>
       <use xlink:href="#DejaVuSans-18" transform="translate(63.625 0)"/>
       <use xlink:href="#DejaVuSans-13" transform="translate(127.25 0)"/>
       <use xlink:href="#DejaVuSans-13" transform="translate(190.875 0)"/>
      </g>
     </g>
    </g>
    <g id="text_36">
     <!-- Average latency (ms) -->
     <g style="fill: #1f2430" transform="translate(735.748525 583.714125) scale(0.12 -0.12)">
      <use xlink:href="#DejaVuSans-24"/>
      <use xlink:href="#DejaVuSans-59" transform="translate(62.546875 0)"/>
      <use xlink:href="#DejaVuSans-48" transform="translate(121.734375 0)"/>
      <use xlink:href="#DejaVuSans-55" transform="translate(183.265625 0)"/>
      <use xlink:href="#DejaVuSans-44" transform="translate(224.375 0)"/>
      <use xlink:href="#DejaVuSans-4a" transform="translate(285.65625 0)"/>
      <use xlink:href="#DejaVuSans-48" transform="translate(349.140625 0)"/>
      <use xlink:href="#DejaVuSans-3" transform="translate(410.671875 0)"/>
      <use xlink:href="#DejaVuSans-4f" transform="translate(442.453125 0)"/>
      <use xlink:href="#DejaVuSans-44" transform="translate(470.234375 0)"/>
      <use xlink:href="#DejaVuSans-57" transform="translate(531.515625 0)"/>
      <use xlink:href="#DejaVuSans-48" transform="translate(570.71875 0)"/>
      <use xlink:href="#DejaVuSans-51" transform="translate(632.25 0)"/>
      <use xlink:href="#DejaVuSans-46" transform="translate(695.625 0)"/>
      <use xlink:href="#DejaVuSans-5c" transform="translate(750.609375 0)"/>
      <use xlink:href="#DejaVuSans-3" transform="translate(809.796875 0)"/>
      <use xlink:href="#DejaVuSans-b" transform="translate(841.578125 0)"/>
      <use xlink:href="#DejaVuSans-50" transform="translate(880.59375 0)"/>
      <use xlink:href="#DejaVuSans-56" transform="translate(978 0)"/>
      <use xlink:href="#DejaVuSans-c" transform="translate(1030.09375 0)"/>
     </g>
    </g>
   </g>
   <g id="matplotlib.axis_4"/>
   <g id="patch_22">
    <path d="M 643.486176 125.88 
L 746.720661 125.88 
L 746.720661 183.672 
L 643.486176 183.672 
z
" clip-path="url(#pa062943dcf)" style="fill: #a4c982; stroke: #386411; stroke-width: 0.8; stroke-linejoin: miter"/>
   </g>
   <g id="patch_23">
    <path d="M 643.486176 198.12 
L 866.195831 198.12 
L 866.195831 255.912 
L 643.486176 255.912 
z
" clip-path="url(#pa062943dcf)" style="fill: #a4c982; stroke: #386411; stroke-width: 0.8; stroke-linejoin: miter"/>
   </g>
   <g id="patch_24">
    <path d="M 643.486176 270.36 
L 858.973562 270.36 
L 858.973562 328.152 
L 643.486176 328.152 
z
" clip-path="url(#pa062943dcf)" style="fill: #a4c982; stroke: #386411; stroke-width: 0.8; stroke-linejoin: miter"/>
   </g>
   <g id="patch_25">
    <path d="M 643.486176 342.6 
L 941.407913 342.6 
L 941.407913 400.392 
L 643.486176 400.392 
z
" clip-path="url(#pa062943dcf)" style="fill: #a4c982; stroke: #386411; stroke-width: 0.8; stroke-linejoin: miter"/>
   </g>
   <g id="patch_26">
    <path d="M 643.486176 414.84 
L 846.588941 414.84 
L 846.588941 472.632 
L 643.486176 472.632 
z
" clip-path="url(#pa062943dcf)" style="fill: #a4c982; stroke: #386411; stroke-width: 0.8; stroke-linejoin: miter"/>
   </g>
   <g id="patch_27">
    <path d="M 643.486176 487.08 
L 830.913477 487.08 
L 830.913477 544.872 
L 643.486176 544.872 
z
" clip-path="url(#pa062943dcf)" style="fill: #a4c982; stroke: #386411; stroke-width: 0.8; stroke-linejoin: miter"/>
   </g>
   <g id="line2d_13">
    <path clip-path="url(#pa062943dcf)" style="fill: none; stroke: #424242; stroke-width: 2.25; stroke-linecap: round"/>
   </g>
   <g id="line2d_14">
    <path clip-path="url(#pa062943dcf)" style="fill: none; stroke: #424242; stroke-width: 2.25; stroke-linecap: round"/>
   </g>
   <g id="line2d_15">
    <path clip-path="url(#pa062943dcf)" style="fill: none; stroke: #424242; stroke-width: 2.25; stroke-linecap: round"/>
   </g>
   <g id="line2d_16">
    <path clip-path="url(#pa062943dcf)" style="fill: none; stroke: #424242; stroke-width: 2.25; stroke-linecap: round"/>
   </g>
   <g id="line2d_17">
    <path clip-path="url(#pa062943dcf)" style="fill: none; stroke: #424242; stroke-width: 2.25; stroke-linecap: round"/>
   </g>
   <g id="line2d_18">
    <path clip-path="url(#pa062943dcf)" style="fill: none; stroke: #424242; stroke-width: 2.25; stroke-linecap: round"/>
   </g>
   <g id="patch_28">
    <path d="M 643.486176 552.096 
L 643.486176 118.656 
" style="fill: none; stroke: #d7dbe7; stroke-width: 1.25; stroke-linejoin: miter; stroke-linecap: square"/>
   </g>
   <g id="patch_29">
    <path d="M 643.486176 552.096 
L 956.304 552.096 
" style="fill: none; stroke: #d7dbe7; stroke-width: 1.25; stroke-linejoin: miter; stroke-linecap: square"/>
   </g>
   <g id="text_37">
    <!-- 548 -->
    <g style="fill: #1f2430" transform="translate(751.430837 156.854125) scale(0.08 -0.08)">
     <defs>
      <path id="DejaVuSansMono-18" d="M 647 4666 
L 3009 4666 
L 3009 4134 
L 1222 4134 
L 1222 2988 
Q 1356 3038 1492 3061 
Q 1628 3084 1766 3084 
Q 2491 3084 2916 2656 
Q 3341 2228 3341 1497 
Q 3341 759 2895 334 
Q 2450 -91 1678 -91 
Q 1306 -91 998 -41 
Q 691 9 447 109 
L 447 750 
Q 734 594 1025 517 
Q 1316 441 1619 441 
Q 2141 441 2423 716 
Q 2706 991 2706 1497 
Q 2706 1997 2414 2275 
Q 2122 2553 1600 2553 
Q 1347 2553 1106 2495 
Q 866 2438 647 2322 
L 647 4666 
z
" transform="scale(0.015625)"/>
     </defs>
     <use xlink:href="#DejaVuSansMono-18"/>
     <use xlink:href="#DejaVuSansMono-17" transform="translate(60.203125 0)"/>
     <use xlink:href="#DejaVuSansMono-1b" transform="translate(120.40625 0)"/>
    </g>
   </g>
   <g id="text_38">
    <!-- 1182 -->
    <g style="fill: #1f2430" transform="translate(870.906007 229.094125) scale(0.08 -0.08)">
     <use xlink:href="#DejaVuSansMono-14"/>
     <use xlink:href="#DejaVuSansMono-14" transform="translate(60.203125 0)"/>
     <use xlink:href="#DejaVuSansMono-1b" transform="translate(120.40625 0)"/>
     <use xlink:href="#DejaVuSansMono-15" transform="translate(180.609375 0)"/>
    </g>
   </g>
   <g id="text_39">
    <!-- 1144 -->
    <g style="fill: #1f2430" transform="translate(863.683738 301.334125) scale(0.08 -0.08)">
     <use xlink:href="#DejaVuSansMono-14"/>
     <use xlink:href="#DejaVuSansMono-14" transform="translate(60.203125 0)"/>
     <use xlink:href="#DejaVuSansMono-17" transform="translate(120.40625 0)"/>
     <use xlink:href="#DejaVuSansMono-17" transform="translate(180.609375 0)"/>
    </g>
   </g>
   <g id="text_40">
    <!-- 1581 -->
    <g style="fill: #1f2430" transform="translate(946.118089 373.574125) scale(0.08 -0.08)">
     <use xlink:href="#DejaVuSansMono-14"/>
     <use xlink:href="#DejaVuSansMono-18" transform="translate(60.203125 0)"/>
     <use xlink:href="#DejaVuSansMono-1b" transform="translate(120.40625 0)"/>
     <use xlink:href="#DejaVuSansMono-14" transform="translate(180.609375 0)"/>
    </g>
   </g>
   <g id="text_41">
    <!-- 1078 -->
    <g style="fill: #1f2430" transform="translate(851.299117 445.814125) scale(0.08 -0.08)">
     <use xlink:href="#DejaVuSansMono-14"/>
     <use xlink:href="#DejaVuSansMono-13" transform="translate(60.203125 0)"/>
     <use xlink:href="#DejaVuSansMono-1a" transform="translate(120.40625 0)"/>
     <use xlink:href="#DejaVuSansMono-1b" transform="translate(180.609375 0)"/>
    </g>
   </g>
   <g id="text_42">
    <!-- 995 -->
    <g style="fill: #1f2430" transform="translate(835.623653 518.054125) scale(0.08 -0.08)">
     <use xlink:href="#DejaVuSansMono-1c"/>
     <use xlink:href="#DejaVuSansMono-1c" transform="translate(60.203125 0)"/>
     <use xlink:href="#DejaVuSansMono-18" transform="translate(120.40625 0)"/>
    </g>
   </g>
  </g>
  <g id="text_43">
   <!-- Average speed test by node -->
   <g style="fill: #1f2430" transform="translate(7.2 19.230469) scale(0.15 -0.15)">
    <defs>
     <path id="DejaVuSans-Bold-24" d="M 3419 850 
L 1538 850 
L 1241 0 
L 31 0 
L 1759 4666 
L 3194 4666 
L 4922 0 
L 3713 0 
L 3419 850 
z
M 1838 1716 
L 3116 1716 
L 2478 3572 
L 1838 1716 
z
" transform="scale(0.015625)"/>
     <path id="DejaVuSans-Bold-59" d="M 97 3500 
L 1216 3500 
L 2088 1081 
L 2956 3500 
L 4078 3500 
L 2700 0 
L 1472 0 
L 97 3500 
z
" transform="scale(0.015625)"/>
     <path id="DejaVuSans-Bold-48" d="M 4031 1759 
L 4031 1441 
L 1416 1441 
Q 1456 1047 1700 850 
Q 1944 653 2381 653 
Q 2734 653 3104 758 
Q 3475 863 3866 1075 
L 3866 213 
Q 3469 63 3072 -14 
Q 2675 -91 2278 -91 
Q 1328 -91 801 392 
Q 275 875 275 1747 
Q 275 2603 792 3093 
Q 1309 3584 2216 3584 
Q 3041 3584 3536 3087 
Q 4031 2591 4031 1759 
z
M 2881 2131 
Q 2881 2450 2695 2645 
Q 2509 2841 2209 2841 
Q 1884 2841 1681 2658 
Q 1478 2475 1428 2131 
L 2881 2131 
z
" transform="scale(0.015625)"/>
     <path id="DejaVuSans-Bold-55" d="M 3138 2547 
Q 2991 2616 2845 2648 
Q 2700 2681 2553 2681 
Q 2122 2681 1889 2404 
Q 1656 2128 1656 1613 
L 1656 0 
L 538 0 
L 538 3500 
L 1656 3500 
L 1656 2925 
Q 1872 3269 2151 3426 
Q 2431 3584 2822 3584 
Q 2878 3584 2943 3579 
Q 3009 3575 3134 3559 
L 3138 2547 
z
" transform="scale(0.015625)"/>
     <path id="DejaVuSans-Bold-44" d="M 2106 1575 
Q 1756 1575 1579 1456 
Q 1403 1338 1403 1106 
Q 1403 894 1545 773 
Q 1688 653 1941 653 
Q 2256 653 2472 879 
Q 2688 1106 2688 1447 
L 2688 1575 
L 2106 1575 
z
M 3816 1997 
L 3816 0 
L 2688 0 
L 2688 519 
Q 2463 200 2181 54 
Q 1900 -91 1497 -91 
Q 953 -91 614 226 
Q 275 544 275 1050 
Q 275 1666 698 1953 
Q 1122 2241 2028 2241 
L 2688 2241 
L 2688 2328 
Q 2688 2594 2478 2717 
Q 2269 2841 1825 2841 
Q 1466 2841 1156 2769 
Q 847 2697 581 2553 
L 581 3406 
Q 941 3494 1303 3539 
Q 1666 3584 2028 3584 
Q 2975 3584 3395 3211 
Q 3816 2838 3816 1997 
z
" transform="scale(0.015625)"/>
     <path id="DejaVuSans-Bold-4a" d="M 2919 594 
Q 2688 288 2409 144 
Q 2131 0 1766 0 
Q 1125 0 706 504 
Q 288 1009 288 1791 
Q 288 2575 706 3076 
Q 1125 3578 1766 3578 
Q 2131 3578 2409 3434 
Q 2688 3291 2919 2981 
L 2919 3500 
L 4044 3500 
L 4044 353 
Q 4044 -491 3511 -936 
Q 2978 -1381 1966 -1381 
Q 1638 -1381 1331 -1331 
Q 1025 -1281 716 -1178 
L 716 -306 
Q 1009 -475 1290 -558 
Q 1572 -641 1856 -641 
Q 2406 -641 2662 -400 
Q 2919 -159 2919 353 
L 2919 594 
z
M 2181 2772 
Q 1834 2772 1640 2515 
Q 1447 2259 1447 1791 
Q 1447 1309 1634 1061 
Q 1822 813 2181 813 
Q 2531 813 2725 1069 
Q 2919 1325 2919 1791 
Q 2919 2259 2725 2515 
Q 2531 2772 2181 2772 
z
" transform="scale(0.015625)"/>
     <path id="DejaVuSans-Bold-3" transform="scale(0.015625)"/>
     <path id="DejaVuSans-Bold-57" d="M 1759 4494 
L 1759 3500 
L 2913 3500 
L 2913 2700 
L 1759 2700 
L 1759 1216 
Q 1759 972 1856 886 
Q 1953 800 2241 800 
L 2816 800 
L 2816 0 
L 1856 0 
Q 1194 0 917 276 
Q 641 553 641 1216 
L 641 2700 
L 84 2700 
L 84 3500 
L 641 3500 
L 641 4494 
L 1759 4494 
z
" transform="scale(0.015625)"/>
     <path id="DejaVuSans-Bold-53" d="M 1656 506 
L 1656 -1331 
L 538 -1331 
L 538 3500 
L 1656 3500 
L 1656 2988 
Q 1888 3294 2169 3439 
Q 2450 3584 2816 3584 
Q 3463 3584 3878 3070 
Q 4294 2556 4294 1747 
Q 4294 938 3878 423 
Q 3463 -91 2816 -91 
Q 2450 -91 2169 54 
Q 1888 200 1656 506 
z
M 2400 2772 
Q 2041 2772 1848 2508 
Q 1656 2244 1656 1747 
Q 1656 1250 1848 986 
Q 2041 722 2400 722 
Q 2759 722 2948 984 
Q 3138 1247 3138 1747 
Q 3138 2247 2948 2509 
Q 2759 2772 2400 2772 
z
" transform="scale(0.015625)"/>
     <path id="DejaVuSans-Bold-42" d="M 3200 -916 
L 3200 -1509 
L 0 -1509 
L 0 -916 
L 3200 -916 
z
" transform="scale(0.015625)"/>
     <path id="DejaVuSans-Bold-5a" d="M 225 3500 
L 1313 3500 
L 1900 1088 
L 2491 3500 
L 3425 3500 
L 4013 1113 
L 4603 3500 
L 5691 3500 
L 4769 0 
L 3547 0 
L 2956 2406 
L 2369 0 
L 1147 0 
L 225 3500 
z
" transform="scale(0.015625)"/>
     <path id="DejaVuSans-Bold-56" d="M 3272 3391 
L 3272 2541 
Q 2913 2691 2578 2766 
Q 2244 2841 1947 2841 
Q 1628 2841 1473 2761 
Q 1319 2681 1319 2516 
Q 1319 2381 1436 2309 
Q 1553 2238 1856 2203 
L 2053 2175 
Q 2913 2066 3209 1816 
Q 3506 1566 3506 1031 
Q 3506 472 3093 190 
Q 2681 -91 1863 -91 
Q 1516 -91 1145 -36 
Q 775 19 384 128 
L 384 978 
Q 719 816 1070 734 
Q 1422 653 1784 653 
Q 2113 653 2278 743 
Q 2444 834 2444 1013 
Q 2444 1163 2330 1236 
Q 2216 1309 1875 1350 
L 1678 1375 
Q 931 1469 631 1722 
Q 331 1975 331 2491 
Q 331 3047 712 3315 
Q 1094 3584 1881 3584 
Q 2191 3584 2531 3537 
Q 2872 3491 3272 3391 
z
" transform="scale(0.015625)"/>
     <path id="DejaVuSans-Bold-47" d="M 2919 2988 
L 2919 4863 
L 4044 4863 
L 4044 0 
L 2919 0 
L 2919 506 
Q 2688 197 2409 53 
Q 2131 -91 1766 -91 
Q 1119 -91 703 423 
Q 288 938 288 1747 
Q 288 2556 703 3070 
Q 1119 3584 1766 3584 
Q 2128 3584 2408 3439 
Q 2688 3294 2919 2988 
z
M 2181 722 
Q 2541 722 2730 984 
Q 2919 1247 2919 1747 
Q 2919 2247 2730 2509 
Q 2541 2772 2181 2772 
Q 1825 2772 1636 2509 
Q 1447 2247 1447 1747 
Q 1447 1247 1636 984 
Q 1825 722 2181 722 
z
" transform="scale(0.015625)"/>
     <path id="DejaVuSans-Bold-45" d="M 2400 722 
Q 2759 722 2948 984 
Q 3138 1247 3138 1747 
Q 3138 2247 2948 2509 
Q 2759 2772 2400 2772 
Q 2041 2772 1848 2508 
Q 1656 2244 1656 1747 
Q 1656 1250 1848 986 
Q 2041 722 2400 722 
z
M 1656 2988 
Q 1888 3294 2169 3439 
Q 2450 3584 2816 3584 
Q 3463 3584 3878 3070 
Q 4294 2556 4294 1747 
Q 4294 938 3878 423 
Q 3463 -91 2816 -91 
Q 2450 -91 2169 54 
Q 1888 200 1656 506 
L 1656 0 
L 538 0 
L 538 4863 
L 1656 4863 
L 1656 2988 
z
" transform="scale(0.015625)"/>
     <path id="DejaVuSans-Bold-5c" d="M 78 3500 
L 1197 3500 
L 2138 1125 
L 2938 3500 
L 4056 3500 
L 2584 -331 
Q 2363 -916 2067 -1148 
Q 1772 -1381 1288 -1381 
L 641 -1381 
L 641 -647 
L 991 -647 
Q 1275 -647 1404 -556 
Q 1534 -466 1606 -231 
L 1638 -134 
L 78 3500 
z
" transform="scale(0.015625)"/>
     <path id="DejaVuSans-Bold-51" d="M 4056 2131 
L 4056 0 
L 2931 0 
L 2931 347 
L 2931 1631 
Q 2931 2084 2911 2256 
Q 2891 2428 2841 2509 
Q 2775 2619 2662 2680 
Q 2550 2741 2406 2741 
Q 2056 2741 1856 2470 
Q 1656 2200 1656 1722 
L 1656 0 
L 538 0 
L 538 3500 
L 1656 3500 
L 1656 2988 
Q 1909 3294 2193 3439 
Q 2478 3584 2822 3584 
Q 3428 3584 3742 3212 
Q 4056 2841 4056 2131 
z
" transform="scale(0.015625)"/>
     <path id="DejaVuSans-Bold-52" d="M 2203 2784 
Q 1831 2784 1636 2517 
Q 1441 2250 1441 1747 
Q 1441 1244 1636 976 
Q 1831 709 2203 709 
Q 2569 709 2762 976 
Q 2956 1244 2956 1747 
Q 2956 2250 2762 2517 
Q 2569 2784 2203 2784 
z
M 2203 3584 
Q 3106 3584 3614 3096 
Q 4122 2609 4122 1747 
Q 4122 884 3614 396 
Q 3106 -91 2203 -91 
Q 1297 -91 786 396 
Q 275 884 275 1747 
Q 275 2609 786 3096 
Q 1297 3584 2203 3584 
z
" transform="scale(0.015625)"/>
    </defs>
    <use xlink:href="#DejaVuSans-Bold-24"/>
    <use xlink:href="#DejaVuSans-Bold-59" transform="translate(73.828125 0)"/>
    <use xlink:href="#DejaVuSans-Bold-48" transform="translate(139.015625 0)"/>
    <use xlink:href="#DejaVuSans-Bold-55" transform="translate(206.84375 0)"/>
    <use xlink:href="#DejaVuSans-Bold-44" transform="translate(256.15625 0)"/>
    <use xlink:href="#DejaVuSans-Bold-4a" transform="translate(323.640625 0)"/>
    <use xlink:href="#DejaVuSans-Bold-48" transform="translate(395.21875 0)"/>
    <use xlink:href="#DejaVuSans-Bold-3" transform="translate(463.046875 0)"/>
    <use xlink:href="#DejaVuSans-Bold-57" transform="translate(497.859375 0)"/>
    <use xlink:href="#DejaVuSans-Bold-53" transform="translate(545.65625 0)"/>
    <use xlink:href="#DejaVuSans-Bold-42" transform="translate(617.234375 0)"/>
    <use xlink:href="#DejaVuSans-Bold-5a" transform="translate(667.234375 0)"/>
    <use xlink:href="#DejaVuSans-Bold-4a" transform="translate(759.625 0)"/>
    <use xlink:href="#DejaVuSans-Bold-3" transform="translate(831.203125 0)"/>
    <use xlink:href="#DejaVuSans-Bold-56" transform="translate(866.015625 0)"/>
    <use xlink:href="#DejaVuSans-Bold-53" transform="translate(925.53125 0)"/>
    <use xlink:href="#DejaVuSans-Bold-48" transform="translate(997.109375 0)"/>
    <use xlink:href="#DejaVuSans-Bold-48" transform="translate(1064.9375 0)"/>
    <use xlink:href="#DejaVuSans-Bold-47" transform="translate(1132.765625 0)"/>
    <use xlink:href="#DejaVuSans-Bold-3" transform="translate(1204.34375 0)"/>
    <use xlink:href="#DejaVuSans-Bold-57" transform="translate(1239.15625 0)"/>
    <use xlink:href="#DejaVuSans-Bold-48" transform="translate(1286.953125 0)"/>
    <use xlink:href="#DejaVuSans-Bold-56" transform="translate(1354.78125 0)"/>
    <use xlink:href="#DejaVuSans-Bold-57" transform="translate(1414.296875 0)"/>
    <use xlink:href="#DejaVuSans-Bold-3" transform="translate(1462.09375 0)"/>
    <use xlink:href="#DejaVuSans-Bold-45" transform="translate(1496.90625 0)"/>
    <use xlink:href="#DejaVuSans-Bold-5c" transform="translate(1568.484375 0)"/>
    <use xlink:href="#DejaVuSans-Bold-3" transform="translate(1633.671875 0)"/>
    <use xlink:href="#DejaVuSans-Bold-51" transform="translate(1668.484375 0)"/>
    <use xlink:href="#DejaVuSans-Bold-52" transform="translate(1739.671875 0)"/>
    <use xlink:href="#DejaVuSans-Bold-47" transform="translate(1808.375 0)"/>
    <use xlink:href="#DejaVuSans-Bold-48" transform="translate(1879.953125 0)"/>
   </g>
  </g>
  <g id="text_44">
   <!-- Each node ran 3 times from the test client with 8 MiB download/upload payloads and 5 latency samples per run. Bars show means; throughput -->
   <g style="fill: #6f768a" transform="translate(7.2 46.254297) scale(0.095 -0.095)">
    <defs>
     <path id="DejaVuSans-28" d="M 628 4666 
L 3578 4666 
L 3578 4134 
L 1259 4134 
L 1259 2753 
L 3481 2753 
L 3481 2222 
L 1259 2222 
L 1259 531 
L 3634 531 
L 3634 0 
L 628 0 
L 628 4666 
z
" transform="scale(0.015625)"/>
     <path id="DejaVuSans-49" d="M 2375 4863 
L 2375 4384 
L 1825 4384 
Q 1516 4384 1395 4259 
Q 1275 4134 1275 3809 
L 1275 3500 
L 2222 3500 
L 2222 3053 
L 1275 3053 
L 1275 0 
L 697 0 
L 697 3053 
L 147 3053 
L 147 3500 
L 697 3500 
L 697 3744 
Q 697 4328 969 4595 
Q 1241 4863 1831 4863 
L 2375 4863 
z
" transform="scale(0.015625)"/>
     <path id="DejaVuSans-42" d="M 3263 -1063 
L 3263 -1509 
L -63 -1509 
L -63 -1063 
L 3263 -1063 
z
" transform="scale(0.015625)"/>
     <path id="DejaVuSans-1b" d="M 2034 2216 
Q 1584 2216 1326 1975 
Q 1069 1734 1069 1313 
Q 1069 891 1326 650 
Q 1584 409 2034 409 
Q 2484 409 2743 651 
Q 3003 894 3003 1313 
Q 3003 1734 2745 1975 
Q 2488 2216 2034 2216 
z
M 1403 2484 
Q 997 2584 770 2862 
Q 544 3141 544 3541 
Q 544 4100 942 4425 
Q 1341 4750 2034 4750 
Q 2731 4750 3128 4425 
Q 3525 4100 3525 3541 
Q 3525 3141 3298 2862 
Q 3072 2584 2669 2484 
Q 3125 2378 3379 2068 
Q 3634 1759 3634 1313 
Q 3634 634 3220 271 
Q 2806 -91 2034 -91 
Q 1263 -91 848 271 
Q 434 634 434 1313 
Q 434 1759 690 2068 
Q 947 2378 1403 2484 
z
M 1172 3481 
Q 1172 3119 1398 2916 
Q 1625 2713 2034 2713 
Q 2441 2713 2670 2916 
Q 2900 3119 2900 3481 
Q 2900 3844 2670 4047 
Q 2441 4250 2034 4250 
Q 1625 4250 1398 4047 
Q 1172 3844 1172 3481 
z
" transform="scale(0.015625)"/>
     <path id="DejaVuSans-1e" d="M 750 3309 
L 1409 3309 
L 1409 2516 
L 750 2516 
L 750 3309 
z
M 750 794 
L 1409 794 
L 1409 256 
L 897 -744 
L 494 -744 
L 750 256 
L 750 794 
z
" transform="scale(0.015625)"/>
    </defs>
    <use xlink:href="#DejaVuSans-28"/>
    <use xlink:href="#DejaVuSans-44" transform="translate(63.1875 0)"/>
    <use xlink:href="#DejaVuSans-46" transform="translate(124.46875 0)"/>
    <use xlink:href="#DejaVuSans-4b" transform="translate(179.453125 0)"/>
    <use xlink:href="#DejaVuSans-3" transform="translate(242.828125 0)"/>
    <use xlink:href="#DejaVuSans-51" transform="translate(274.609375 0)"/>
    <use xlink:href="#DejaVuSans-52" transform="translate(337.984375 0)"/>
    <use xlink:href="#DejaVuSans-47" transform="translate(399.171875 0)"/>
    <use xlink:href="#DejaVuSans-48" transform="translate(462.65625 0)"/>
    <use xlink:href="#DejaVuSans-3" transform="translate(524.1875 0)"/>
    <use xlink:href="#DejaVuSans-55" transform="translate(555.96875 0)"/>
    <use xlink:href="#DejaVuSans-44" transform="translate(597.078125 0)"/>
    <use xlink:href="#DejaVuSans-51" transform="translate(658.359375 0)"/>
    <use xlink:href="#DejaVuSans-3" transform="translate(721.734375 0)"/>
    <use xlink:href="#DejaVuSans-16" transform="translate(753.515625 0)"/>
    <use xlink:href="#DejaVuSans-3" transform="translate(817.140625 0)"/>
    <use xlink:href="#DejaVuSans-57" transform="translate(848.921875 0)"/>
    <use xlink:href="#DejaVuSans-4c" transform="translate(888.125 0)"/>
    <use xlink:href="#DejaVuSans-50" transform="translate(915.90625 0)"/>
    <use xlink:href="#DejaVuSans-48" transform="translate(1013.3125 0)"/>
    <use xlink:href="#DejaVuSans-56" transform="translate(1074.84375 0)"/>
    <use xlink:href="#DejaVuSans-3" transform="translate(1126.9375 0)"/>
    <use xlink:href="#DejaVuSans-49" transform="translate(1158.71875 0)"/>
    <use xlink:href="#DejaVuSans-55" transform="translate(1193.921875 0)"/>
    <use xlink:href="#DejaVuSans-52" transform="translate(1232.828125 0)"/>
    <use xlink:href="#DejaVuSans-50" transform="translate(1294.015625 0)"/>
    <use xlink:href="#DejaVuSans-3" transform="translate(1391.421875 0)"/>
    <use xlink:href="#DejaVuSans-57" transform="translate(1423.203125 0)"/>
    <use xlink:href="#DejaVuSans-53" transform="translate(1462.40625 0)"/>
    <use xlink:href="#DejaVuSans-42" transform="translate(1525.890625 0)"/>
    <use xlink:href="#DejaVuSans-5a" transform="translate(1575.890625 0)"/>
    <use xlink:href="#DejaVuSans-4a" transform="translate(1657.671875 0)"/>
    <use xlink:href="#DejaVuSans-3" transform="translate(1721.15625 0)"/>
    <use xlink:href="#DejaVuSans-5a" transform="translate(1752.9375 0)"/>
    <use xlink:href="#DejaVuSans-4c" transform="translate(1834.71875 0)"/>
    <use xlink:href="#DejaVuSans-57" transform="translate(1862.5 0)"/>
    <use xlink:href="#DejaVuSans-4b" transform="translate(1901.703125 0)"/>
    <use xlink:href="#DejaVuSans-3" transform="translate(1965.078125 0)"/>
    <use xlink:href="#DejaVuSans-1b" transform="translate(1996.859375 0)"/>
    <use xlink:href="#DejaVuSans-3" transform="translate(2060.484375 0)"/>
    <use xlink:href="#DejaVuSans-30" transform="translate(2092.265625 0)"/>
    <use xlink:href="#DejaVuSans-4c" transform="translate(2178.546875 0)"/>
    <use xlink:href="#DejaVuSans-25" transform="translate(2206.328125 0)"/>
    <use xlink:href="#DejaVuSans-3" transform="translate(2274.9375 0)"/>
    <use xlink:href="#DejaVuSans-47" transform="translate(2306.71875 0)"/>
    <use xlink:href="#DejaVuSans-52" transform="translate(2370.203125 0)"/>
    <use xlink:href="#DejaVuSans-5a" transform="translate(2431.390625 0)"/>
    <use xlink:href="#DejaVuSans-51" transform="translate(2513.171875 0)"/>
    <use xlink:href="#DejaVuSans-4f" transform="translate(2576.546875 0)"/>
    <use xlink:href="#DejaVuSans-52" transform="translate(2604.328125 0)"/>
    <use xlink:href="#DejaVuSans-44" transform="translate(2665.515625 0)"/>
    <use xlink:href="#DejaVuSans-47" transform="translate(2726.796875 0)"/>
    <use xlink:href="#DejaVuSans-12" transform="translate(2790.28125 0)"/>
    <use xlink:href="#DejaVuSans-58" transform="translate(2823.96875 0)"/>
    <use xlink:href="#DejaVuSans-53" transform="translate(2887.34375 0)"/>
    <use xlink:href="#DejaVuSans-4f" transform="translate(2950.828125 0)"/>
    <use xlink:href="#DejaVuSans-52" transform="translate(2978.609375 0)"/>
    <use xlink:href="#DejaVuSans-44" transform="translate(3039.796875 0)"/>
    <use xlink:href="#DejaVuSans-47" transform="translate(3101.078125 0)"/>
    <use xlink:href="#DejaVuSans-3" transform="translate(3164.5625 0)"/>
    <use xlink:href="#DejaVuSans-53" transform="translate(3196.34375 0)"/>
    <use xlink:href="#DejaVuSans-44" transform="translate(3259.828125 0)"/>
    <use xlink:href="#DejaVuSans-5c" transform="translate(3321.109375 0)"/>
    <use xlink:href="#DejaVuSans-4f" transform="translate(3380.296875 0)"/>
    <use xlink:href="#DejaVuSans-52" transform="translate(3408.078125 0)"/>
    <use xlink:href="#DejaVuSans-44" transform="translate(3469.265625 0)"/>
    <use xlink:href="#DejaVuSans-47" transform="translate(3530.546875 0)"/>
    <use xlink:href="#DejaVuSans-56" transform="translate(3594.03125 0)"/>
    <use xlink:href="#DejaVuSans-3" transform="translate(3646.125 0)"/>
    <use xlink:href="#DejaVuSans-44" transform="translate(3677.90625 0)"/>
    <use xlink:href="#DejaVuSans-51" transform="translate(3739.1875 0)"/>
    <use xlink:href="#DejaVuSans-47" transform="translate(3802.5625 0)"/>
    <use xlink:href="#DejaVuSans-3" transform="translate(3866.046875 0)"/>
    <use xlink:href="#DejaVuSans-18" transform="translate(3897.828125 0)"/>
    <use xlink:href="#DejaVuSans-3" transform="translate(3961.453125 0)"/>
    <use xlink:href="#DejaVuSans-4f" transform="translate(3993.234375 0)"/>
    <use xlink:href="#DejaVuSans-44" transform="translate(4021.015625 0)"/>
    <use xlink:href="#DejaVuSans-57" transform="translate(4082.296875 0)"/>
    <use xlink:href="#DejaVuSans-48" transform="translate(4121.5 0)"/>
    <use xlink:href="#DejaVuSans-51" transform="translate(4183.03125 0)"/>
    <use xlink:href="#DejaVuSans-46" transform="translate(4246.40625 0)"/>
    <use xlink:href="#DejaVuSans-5c" transform="translate(4301.390625 0)"/>
    <use xlink:href="#DejaVuSans-3" transform="translate(4360.578125 0)"/>
    <use xlink:href="#DejaVuSans-56" transform="translate(4392.359375 0)"/>
    <use xlink:href="#DejaVuSans-44" transform="translate(4444.453125 0)"/>
    <use xlink:href="#DejaVuSans-50" transform="translate(4505.734375 0)"/>
    <use xlink:href="#DejaVuSans-53" transform="translate(4603.140625 0)"/>
    <use xlink:href="#DejaVuSans-4f" transform="translate(4666.625 0)"/>
    <use xlink:href="#DejaVuSans-48" transform="translate(4694.40625 0)"/>
    <use xlink:href="#DejaVuSans-56" transform="translate(4755.9375 0)"/>
    <use xlink:href="#DejaVuSans-3" transform="translate(4808.03125 0)"/>
    <use xlink:href="#DejaVuSans-53" transform="translate(4839.8125 0)"/>
    <use xlink:href="#DejaVuSans-48" transform="translate(4903.296875 0)"/>
    <use xlink:href="#DejaVuSans-55" transform="translate(4964.828125 0)"/>
    <use xlink:href="#DejaVuSans-3" transform="translate(5005.9375 0)"/>
    <use xlink:href="#DejaVuSans-55" transform="translate(5037.71875 0)"/>
    <use xlink:href="#DejaVuSans-58" transform="translate(5078.828125 0)"/>
    <use xlink:href="#DejaVuSans-51" transform="translate(5142.203125 0)"/>
    <use xlink:href="#DejaVuSans-11" transform="translate(5205.578125 0)"/>
    <use xlink:href="#DejaVuSans-3" transform="translate(5237.359375 0)"/>
    <use xlink:href="#DejaVuSans-25" transform="translate(5269.140625 0)"/>
    <use xlink:href="#DejaVuSans-44" transform="translate(5337.75 0)"/>
    <use xlink:href="#DejaVuSans-55" transform="translate(5399.03125 0)"/>
    <use xlink:href="#DejaVuSans-56" transform="translate(5440.140625 0)"/>
    <use xlink:href="#DejaVuSans-3" transform="translate(5492.234375 0)"/>
    <use xlink:href="#DejaVuSans-56" transform="translate(5524.015625 0)"/>
    <use xlink:href="#DejaVuSans-4b" transform="translate(5576.109375 0)"/>
    <use xlink:href="#DejaVuSans-52" transform="translate(5639.484375 0)"/>
    <use xlink:href="#DejaVuSans-5a" transform="translate(5700.671875 0)"/>
    <use xlink:href="#DejaVuSans-3" transform="translate(5782.453125 0)"/>
    <use xlink:href="#DejaVuSans-50" transform="translate(5814.234375 0)"/>
    <use xlink:href="#DejaVuSans-48" transform="translate(5911.640625 0)"/>
    <use xlink:href="#DejaVuSans-44" transform="translate(5973.171875 0)"/>
    <use xlink:href="#DejaVuSans-51" transform="translate(6034.453125 0)"/>
    <use xlink:href="#DejaVuSans-56" transform="translate(6097.828125 0)"/>
    <use xlink:href="#DejaVuSans-1e" transform="translate(6149.921875 0)"/>
    <use xlink:href="#DejaVuSans-3" transform="translate(6183.609375 0)"/>
    <use xlink:href="#DejaVuSans-57" transform="translate(6215.390625 0)"/>
    <use xlink:href="#DejaVuSans-4b" transform="translate(6254.59375 0)"/>
    <use xlink:href="#DejaVuSans-55" transform="translate(6317.96875 0)"/>
    <use xlink:href="#DejaVuSans-52" transform="translate(6356.875 0)"/>
    <use xlink:href="#DejaVuSans-58" transform="translate(6418.0625 0)"/>
    <use xlink:href="#DejaVuSans-4a" transform="translate(6481.4375 0)"/>
    <use xlink:href="#DejaVuSans-4b" transform="translate(6544.921875 0)"/>
    <use xlink:href="#DejaVuSans-53" transform="translate(6608.296875 0)"/>
    <use xlink:href="#DejaVuSans-58" transform="translate(6671.78125 0)"/>
    <use xlink:href="#DejaVuSans-57" transform="translate(6735.15625 0)"/>
   </g>
   <!-- uses MiB/s and latency uses milliseconds. -->
   <g style="fill: #6f768a" transform="translate(7.2 57.596406) scale(0.095 -0.095)">
    <use xlink:href="#DejaVuSans-58"/>
    <use xlink:href="#DejaVuSans-56" transform="translate(63.375 0)"/>
    <use xlink:href="#DejaVuSans-48" transform="translate(115.46875 0)"/>
    <use xlink:href="#DejaVuSans-56" transform="translate(177 0)"/>
    <use xlink:href="#DejaVuSans-3" transform="translate(229.09375 0)"/>
    <use xlink:href="#DejaVuSans-30" transform="translate(260.875 0)"/>
    <use xlink:href="#DejaVuSans-4c" transform="translate(347.15625 0)"/>
    <use xlink:href="#DejaVuSans-25" transform="translate(374.9375 0)"/>
    <use xlink:href="#DejaVuSans-12" transform="translate(443.546875 0)"/>
    <use xlink:href="#DejaVuSans-56" transform="translate(477.234375 0)"/>
    <use xlink:href="#DejaVuSans-3" transform="translate(529.328125 0)"/>
    <use xlink:href="#DejaVuSans-44" transform="translate(561.109375 0)"/>
    <use xlink:href="#DejaVuSans-51" transform="translate(622.390625 0)"/>
    <use xlink:href="#DejaVuSans-47" transform="translate(685.765625 0)"/>
    <use xlink:href="#DejaVuSans-3" transform="translate(749.25 0)"/>
    <use xlink:href="#DejaVuSans-4f" transform="translate(781.03125 0)"/>
    <use xlink:href="#DejaVuSans-44" transform="translate(808.8125 0)"/>
    <use xlink:href="#DejaVuSans-57" transform="translate(870.09375 0)"/>
    <use xlink:href="#DejaVuSans-48" transform="translate(909.296875 0)"/>
    <use xlink:href="#DejaVuSans-51" transform="translate(970.828125 0)"/>
    <use xlink:href="#DejaVuSans-46" transform="translate(1034.203125 0)"/>
    <use xlink:href="#DejaVuSans-5c" transform="translate(1089.1875 0)"/>
    <use xlink:href="#DejaVuSans-3" transform="translate(1148.375 0)"/>
    <use xlink:href="#DejaVuSans-58" transform="translate(1180.15625 0)"/>
    <use xlink:href="#DejaVuSans-56" transform="translate(1243.53125 0)"/>
    <use xlink:href="#DejaVuSans-48" transform="translate(1295.625 0)"/>
    <use xlink:href="#DejaVuSans-56" transform="translate(1357.15625 0)"/>
    <use xlink:href="#DejaVuSans-3" transform="translate(1409.25 0)"/>
    <use xlink:href="#DejaVuSans-50" transform="translate(1441.03125 0)"/>
    <use xlink:href="#DejaVuSans-4c" transform="translate(1538.4375 0)"/>
    <use xlink:href="#DejaVuSans-4f" transform="translate(1566.21875 0)"/>
    <use xlink:href="#DejaVuSans-4f" transform="translate(1594 0)"/>
    <use xlink:href="#DejaVuSans-4c" transform="translate(1621.78125 0)"/>
    <use xlink:href="#DejaVuSans-56" transform="translate(1649.5625 0)"/>
    <use xlink:href="#DejaVuSans-48" transform="translate(1701.65625 0)"/>
    <use xlink:href="#DejaVuSans-46" transform="translate(1763.1875 0)"/>
    <use xlink:href="#DejaVuSans-52" transform="translate(1818.171875 0)"/>
    <use xlink:href="#DejaVuSans-51" transform="translate(1879.359375 0)"/>
    <use xlink:href="#DejaVuSans-47" transform="translate(1942.734375 0)"/>
    <use xlink:href="#DejaVuSans-56" transform="translate(2006.21875 0)"/>
    <use xlink:href="#DejaVuSans-11" transform="translate(2058.3125 0)"/>
   </g>
  </g>
 </g>
 <defs>
  <clipPath id="pc92ef2cb02">
   <rect x="113.904" y="118.656" width="460.026212" height="433.44"/>
  </clipPath>
  <clipPath id="pa062943dcf">
   <rect x="643.486176" y="118.656" width="312.817824" height="433.44"/>
  </clipPath>
 </defs>
</svg>
