<?xml version="1.0" encoding="utf-8" standalone="no"?>
<!DOCTYPE svg PUBLIC "-//W3C//DTD SVG 1.1//EN"
  "http://www.w3.org/Graphics/SVG/1.1/DTD/svg11.dtd">
<svg xmlns:xlink="http://www.w3.org/1999/xlink" width="947.253pt" height="852.420938pt" viewBox="0 0 947.253 852.420938" xmlns="http://www.w3.org/2000/svg" version="1.1">
 <metadata>
  <rdf:RDF xmlns:dc="http://purl.org/dc/elements/1.1/" xmlns:cc="http://creativecommons.org/ns#" xmlns:rdf="http://www.w3.org/1999/02/22-rdf-syntax-ns#">
   <cc:Work>
    <dc:type rdf:resource="http://purl.org/dc/dcmitype/StillImage"/>
    <dc:date>2026-07-09T11:42:34.327382</dc:date>
    <dc:format>image/svg+xml</dc:format>
    <dc:creator>
     <cc:Agent>
      <dc:title>Matplotlib v3.11.0, https://matplotlib.org/</dc:title>
     </cc:Agent>
    </dc:creator>
   </cc:Work>
  </rdf:RDF>
 </metadata>
 <defs>
  <style type="text/css">*{stroke-linejoin: round; stroke-linecap: butt}</style>
 </defs>
 <g id="figure_1">
  <g id="patch_1">
   <path d="M 0 852.420938 
L 947.253 852.420938 
L 947.253 0 
L 0 0 
z
" style="fill: #fcfcfd"/>
  </g>
  <g id="axes_1">
   <g id="patch_2">
    <path d="M 55.605 329.578435 
L 940.053 329.578435 
L 940.053 150.048 
L 55.605 150.048 
z
" style="fill: #ffffff"/>
   </g>
   <g id="matplotlib.axis_1"/>
   <g id="matplotlib.axis_2">
    <g id="ytick_1">
     <g id="line2d_1">
      <path d="M 55.605 313.434875 
L 940.053 313.434875 
" clip-path="url(#pe8314dd667)" style="fill: none; stroke: #e6e8f0; stroke-width: 0.8; stroke-linecap: round"/>
     </g>
     <g id="text_1">
      <!-- 0.5 -->
      <g style="fill: #6f768a" transform="translate(31.792188 316.85382) scale(0.09 -0.09)">
       <defs>
        <path id="DejaVuSans-13" d="M 2034 4250 
Q 1547 4250 1301 3770 
Q 1056 3291 1056 2328 
Q 1056 1369 1301 889 
Q 1547 409 2034 409 
Q 2525 409 2770 889 
Q 3016 1369 3016 2328 
Q 3016 3291 2770 3770 
Q 2525 4250 2034 4250 
z
M 2034 4750 
Q 2819 4750 3233 4129 
Q 3647 3509 3647 2328 
Q 3647 1150 3233 529 
Q 2819 -91 2034 -91 
Q 1250 -91 836 529 
Q 422 1150 422 2328 
Q 422 3509 836 4129 
Q 1250 4750 2034 4750 
z
" transform="scale(0.015625)"/>
        <path id="DejaVuSans-11" d="M 684 794 
L 1344 794 
L 1344 0 
L 684 0 
L 684 794 
z
" transform="scale(0.015625)"/>
        <path id="DejaVuSans-18" d="M 691 4666 
L 3169 4666 
L 3169 4134 
L 1269 4134 
L 1269 2991 
Q 1406 3038 1543 3061 
Q 1681 3084 1819 3084 
Q 2600 3084 3056 2656 
Q 3513 2228 3513 1497 
Q 3513 744 3044 326 
Q 2575 -91 1722 -91 
Q 1428 -91 1123 -41 
Q 819 9 494 109 
L 494 744 
Q 775 591 1075 516 
Q 1375 441 1709 441 
Q 2250 441 2565 725 
Q 2881 1009 2881 1497 
Q 2881 1984 2565 2268 
Q 2250 2553 1709 2553 
Q 1456 2553 1204 2497 
Q 953 2441 691 2322 
L 691 4666 
z
" transform="scale(0.015625)"/>
       </defs>
       <use xlink:href="#DejaVuSans-13"/>
       <use xlink:href="#DejaVuSans-11" transform="translate(63.625 0)"/>
       <use xlink:href="#DejaVuSans-18" transform="translate(95.40625 0)"/>
      </g>
     </g>
    </g>
    <g id="ytick_2">
     <g id="line2d_2">
      <path d="M 55.605 291.259675 
L 940.053 291.259675 
" clip-path="url(#pe8314dd667)" style="fill: none; stroke: #e6e8f0; stroke-width: 0.8; stroke-linecap: round"/>
     </g>
     <g id="text_2">
      <!-- 1.0 -->
      <g style="fill: #6f768a" transform="translate(31.792188 294.67862) scale(0.09 -0.09)">
       <defs>
        <path id="DejaVuSans-14" d="M 794 531 
L 1825 531 
L 1825 4091 
L 703 3866 
L 703 4441 
L 1819 4666 
L 2450 4666 
L 2450 531 
L 3481 531 
L 3481 0 
L 794 0 
L 794 531 
z
" transform="scale(0.015625)"/>
       </defs>
       <use xlink:href="#DejaVuSans-14"/>
       <use xlink:href="#DejaVuSans-11" transform="translate(63.625 0)"/>
       <use xlink:href="#DejaVuSans-13" transform="translate(95.40625 0)"/>
      </g>
     </g>
    </g>
    <g id="ytick_3">
     <g id="line2d_3">
      <path d="M 55.605 269.084475 
L 940.053 269.084475 
" clip-path="url(#pe8314dd667)" style="fill: none; stroke: #e6e8f0; stroke-width: 0.8; stroke-linecap: round"/>
     </g>
     <g id="text_3">
      <!-- 1.5 -->
      <g style="fill: #6f768a" transform="translate(31.792188 272.50342) scale(0.09 -0.09)">
       <use xlink:href="#DejaVuSans-14"/>
       <use xlink:href="#DejaVuSans-11" transform="translate(63.625 0)"/>
       <use xlink:href="#DejaVuSans-18" transform="translate(95.40625 0)"/>
      </g>
     </g>
    </g>
    <g id="ytick_4">
     <g id="line2d_4">
      <path d="M 55.605 246.909275 
L 940.053 246.909275 
" clip-path="url(#pe8314dd667)" style="fill: none; stroke: #e6e8f0; stroke-width: 0.8; stroke-linecap: round"/>
     </g>
     <g id="text_4">
      <!-- 2.0 -->
      <g style="fill: #6f768a" transform="translate(31.792188 250.32822) scale(0.09 -0.09)">
       <defs>
        <path id="DejaVuSans-15" d="M 1228 531 
L 3431 531 
L 3431 0 
L 469 0 
L 469 531 
Q 828 903 1448 1529 
Q 2069 2156 2228 2338 
Q 2531 2678 2651 2914 
Q 2772 3150 2772 3378 
Q 2772 3750 2511 3984 
Q 2250 4219 1831 4219 
Q 1534 4219 1204 4116 
Q 875 4013 500 3803 
L 500 4441 
Q 881 4594 1212 4672 
Q 1544 4750 1819 4750 
Q 2544 4750 2975 4387 
Q 3406 4025 3406 3419 
Q 3406 3131 3298 2873 
Q 3191 2616 2906 2266 
Q 2828 2175 2409 1742 
Q 1991 1309 1228 531 
z
" transform="scale(0.015625)"/>
       </defs>
       <use xlink:href="#DejaVuSans-15"/>
       <use xlink:href="#DejaVuSans-11" transform="translate(63.625 0)"/>
       <use xlink:href="#DejaVuSans-13" transform="translate(95.40625 0)"/>
      </g>
     </g>
    </g>
    <g id="ytick_5">
     <g id="line2d_5">
      <path d="M 55.605 224.734075 
L 940.053 224.734075 
" clip-path="url(#pe8314dd667)" style="fill: none; stroke: #e6e8f0; stroke-width: 0.8; stroke-linecap: round"/>
     </g>
     <g id="text_5">
      <!-- 2.5 -->
      <g style="fill: #6f768a" transform="translate(31.792188 228.15302) scale(0.09 -0.09)">
       <use xlink:href="#DejaVuSans-15"/>
       <use xlink:href="#DejaVuSans-11" transform="translate(63.625 0)"/>
       <use xlink:href="#DejaVuSans-18" transform="translate(95.40625 0)"/>
      </g>
     </g>
    </g>
    <g id="ytick_6">
     <g id="line2d_6">
      <path d="M 55.605 202.558874 
L 940.053 202.558874 
" clip-path="url(#pe8314dd667)" style="fill: none; stroke: #e6e8f0; stroke-width: 0.8; stroke-linecap: round"/>
     </g>
     <g id="text_6">
      <!-- 3.0 -->
      <g style="fill: #6f768a" transform="translate(31.792188 205.97782) scale(0.09 -0.09)">
       <defs>
        <path id="DejaVuSans-16" d="M 2597 2516 
Q 3050 2419 3304 2112 
Q 3559 1806 3559 1356 
Q 3559 666 3084 287 
Q 2609 -91 1734 -91 
Q 1441 -91 1130 -33 
Q 819 25 488 141 
L 488 750 
Q 750 597 1062 519 
Q 1375 441 1716 441 
Q 2309 441 2620 675 
Q 2931 909 2931 1356 
Q 2931 1769 2642 2001 
Q 2353 2234 1838 2234 
L 1294 2234 
L 1294 2753 
L 1863 2753 
Q 2328 2753 2575 2939 
Q 2822 3125 2822 3475 
Q 2822 3834 2567 4026 
Q 2313 4219 1838 4219 
Q 1578 4219 1281 4162 
Q 984 4106 628 3988 
L 628 4550 
Q 988 4650 1302 4700 
Q 1616 4750 1894 4750 
Q 2613 4750 3031 4423 
Q 3450 4097 3450 3541 
Q 3450 3153 3228 2886 
Q 3006 2619 2597 2516 
z
" transform="scale(0.015625)"/>
       </defs>
       <use xlink:href="#DejaVuSans-16"/>
       <use xlink:href="#DejaVuSans-11" transform="translate(63.625 0)"/>
       <use xlink:href="#DejaVuSans-13" transform="translate(95.40625 0)"/>
      </g>
     </g>
    </g>
    <g id="ytick_7">
     <g id="line2d_7">
      <path d="M 55.605 180.383674 
L 940.053 180.383674 
" clip-path="url(#pe8314dd667)" style="fill: none; stroke: #e6e8f0; stroke-width: 0.8; stroke-linecap: round"/>
     </g>
     <g id="text_7">
      <!-- 3.5 -->
      <g style="fill: #6f768a" transform="translate(31.792188 183.80262) scale(0.09 -0.09)">
       <use xlink:href="#DejaVuSans-16"/>
       <use xlink:href="#DejaVuSans-11" transform="translate(63.625 0)"/>
       <use xlink:href="#DejaVuSans-18" transform="translate(95.40625 0)"/>
      </g>
     </g>
    </g>
    <g id="ytick_8">
     <g id="line2d_8">
      <path d="M 55.605 158.208474 
L 940.053 158.208474 
" clip-path="url(#pe8314dd667)" style="fill: none; stroke: #e6e8f0; stroke-width: 0.8; stroke-linecap: round"/>
     </g>
     <g id="text_8">
      <!-- 4.0 -->
      <g style="fill: #6f768a" transform="translate(31.792188 161.62742) scale(0.09 -0.09)">
       <defs>
        <path id="DejaVuSans-17" d="M 2419 4116 
L 825 1625 
L 2419 1625 
L 2419 4116 
z
M 2253 4666 
L 3047 4666 
L 3047 1625 
L 3713 1625 
L 3713 1100 
L 3047 1100 
L 3047 0 
L 2419 0 
L 2419 1100 
L 313 1100 
L 313 1709 
L 2253 4666 
z
" transform="scale(0.015625)"/>
       </defs>
       <use xlink:href="#DejaVuSans-17"/>
       <use xlink:href="#DejaVuSans-11" transform="translate(63.625 0)"/>
       <use xlink:href="#DejaVuSans-13" transform="translate(95.40625 0)"/>
      </g>
     </g>
    </g>
    <g id="text_9">
     <!-- Download (MiB/s) -->
     <g style="fill: #1f2430" transform="translate(24.909375 292.333842) rotate(-90) scale(0.12 -0.12)">
      <defs>
       <path id="DejaVuSans-27" d="M 1259 4147 
L 1259 519 
L 2022 519 
Q 2988 519 3436 956 
Q 3884 1394 3884 2338 
Q 3884 3275 3436 3711 
Q 2988 4147 2022 4147 
L 1259 4147 
z
M 628 4666 
L 1925 4666 
Q 3281 4666 3915 4102 
Q 4550 3538 4550 2338 
Q 4550 1131 3912 565 
Q 3275 0 1925 0 
L 628 0 
L 628 4666 
z
" transform="scale(0.015625)"/>
       <path id="DejaVuSans-52" d="M 1959 3097 
Q 1497 3097 1228 2736 
Q 959 2375 959 1747 
Q 959 1119 1226 758 
Q 1494 397 1959 397 
Q 2419 397 2687 759 
Q 2956 1122 2956 1747 
Q 2956 2369 2687 2733 
Q 2419 3097 1959 3097 
z
M 1959 3584 
Q 2709 3584 3137 3096 
Q 3566 2609 3566 1747 
Q 3566 888 3137 398 
Q 2709 -91 1959 -91 
Q 1206 -91 779 398 
Q 353 888 353 1747 
Q 353 2609 779 3096 
Q 1206 3584 1959 3584 
z
" transform="scale(0.015625)"/>
       <path id="DejaVuSans-5a" d="M 269 3500 
L 844 3500 
L 1563 769 
L 2278 3500 
L 2956 3500 
L 3675 769 
L 4391 3500 
L 4966 3500 
L 4050 0 
L 3372 0 
L 2619 2869 
L 1863 0 
L 1184 0 
L 269 3500 
z
" transform="scale(0.015625)"/>
       <path id="DejaVuSans-51" d="M 3513 2113 
L 3513 0 
L 2938 0 
L 2938 2094 
Q 2938 2591 2744 2837 
Q 2550 3084 2163 3084 
Q 1697 3084 1428 2787 
Q 1159 2491 1159 1978 
L 1159 0 
L 581 0 
L 581 3500 
L 1159 3500 
L 1159 2956 
Q 1366 3272 1645 3428 
Q 1925 3584 2291 3584 
Q 2894 3584 3203 3211 
Q 3513 2838 3513 2113 
z
" transform="scale(0.015625)"/>
       <path id="DejaVuSans-4f" d="M 603 4863 
L 1178 4863 
L 1178 0 
L 603 0 
L 603 4863 
z
" transform="scale(0.015625)"/>
       <path id="DejaVuSans-44" d="M 2194 1759 
Q 1497 1759 1228 1600 
Q 959 1441 959 1056 
Q 959 750 1161 570 
Q 1363 391 1709 391 
Q 2188 391 2477 730 
Q 2766 1069 2766 1631 
L 2766 1759 
L 2194 1759 
z
M 3341 1997 
L 3341 0 
L 2766 0 
L 2766 531 
Q 2569 213 2275 61 
Q 1981 -91 1556 -91 
Q 1019 -91 701 211 
Q 384 513 384 1019 
Q 384 1609 779 1909 
Q 1175 2209 1959 2209 
L 2766 2209 
L 2766 2266 
Q 2766 2663 2505 2880 
Q 2244 3097 1772 3097 
Q 1472 3097 1187 3025 
Q 903 2953 641 2809 
L 641 3341 
Q 956 3463 1253 3523 
Q 1550 3584 1831 3584 
Q 2591 3584 2966 3190 
Q 3341 2797 3341 1997 
z
" transform="scale(0.015625)"/>
       <path id="DejaVuSans-47" d="M 2906 2969 
L 2906 4863 
L 3481 4863 
L 3481 0 
L 2906 0 
L 2906 525 
Q 2725 213 2448 61 
Q 2172 -91 1784 -91 
Q 1150 -91 751 415 
Q 353 922 353 1747 
Q 353 2572 751 3078 
Q 1150 3584 1784 3584 
Q 2172 3584 2448 3432 
Q 2725 3281 2906 2969 
z
M 947 1747 
Q 947 1113 1208 752 
Q 1469 391 1925 391 
Q 2381 391 2643 752 
Q 2906 1113 2906 1747 
Q 2906 2381 2643 2742 
Q 2381 3103 1925 3103 
Q 1469 3103 1208 2742 
Q 947 2381 947 1747 
z
" transform="scale(0.015625)"/>
       <path id="DejaVuSans-3" transform="scale(0.015625)"/>
       <path id="DejaVuSans-b" d="M 1984 4856 
Q 1566 4138 1362 3434 
Q 1159 2731 1159 2009 
Q 1159 1288 1364 580 
Q 1569 -128 1984 -844 
L 1484 -844 
Q 1016 -109 783 600 
Q 550 1309 550 2009 
Q 550 2706 781 3412 
Q 1013 4119 1484 4856 
L 1984 4856 
z
" transform="scale(0.015625)"/>
       <path id="DejaVuSans-30" d="M 628 4666 
L 1569 4666 
L 2759 1491 
L 3956 4666 
L 4897 4666 
L 4897 0 
L 4281 0 
L 4281 4097 
L 3078 897 
L 2444 897 
L 1241 4097 
L 1241 0 
L 628 0 
L 628 4666 
z
" transform="scale(0.015625)"/>
       <path id="DejaVuSans-4c" d="M 603 3500 
L 1178 3500 
L 1178 0 
L 603 0 
L 603 3500 
z
M 603 4863 
L 1178 4863 
L 1178 4134 
L 603 4134 
L 603 4863 
z
" transform="scale(0.015625)"/>
       <path id="DejaVuSans-25" d="M 1259 2228 
L 1259 519 
L 2272 519 
Q 2781 519 3026 730 
Q 3272 941 3272 1375 
Q 3272 1813 3026 2020 
Q 2781 2228 2272 2228 
L 1259 2228 
z
M 1259 4147 
L 1259 2741 
L 2194 2741 
Q 2656 2741 2882 2914 
Q 3109 3088 3109 3444 
Q 3109 3797 2882 3972 
Q 2656 4147 2194 4147 
L 1259 4147 
z
M 628 4666 
L 2241 4666 
Q 2963 4666 3353 4366 
Q 3744 4066 3744 3513 
Q 3744 3084 3544 2831 
Q 3344 2578 2956 2516 
Q 3422 2416 3680 2098 
Q 3938 1781 3938 1306 
Q 3938 681 3513 340 
Q 3088 0 2303 0 
L 628 0 
L 628 4666 
z
" transform="scale(0.015625)"/>
       <path id="DejaVuSans-12" d="M 1625 4666 
L 2156 4666 
L 531 -594 
L 0 -594 
L 1625 4666 
z
" transform="scale(0.015625)"/>
       <path id="DejaVuSans-56" d="M 2834 3397 
L 2834 2853 
Q 2591 2978 2328 3040 
Q 2066 3103 1784 3103 
Q 1356 3103 1142 2972 
Q 928 2841 928 2578 
Q 928 2378 1081 2264 
Q 1234 2150 1697 2047 
L 1894 2003 
Q 2506 1872 2764 1633 
Q 3022 1394 3022 966 
Q 3022 478 2636 193 
Q 2250 -91 1575 -91 
Q 1294 -91 989 -36 
Q 684 19 347 128 
L 347 722 
Q 666 556 975 473 
Q 1284 391 1588 391 
Q 1994 391 2212 530 
Q 2431 669 2431 922 
Q 2431 1156 2273 1281 
Q 2116 1406 1581 1522 
L 1381 1569 
Q 847 1681 609 1914 
Q 372 2147 372 2553 
Q 372 3047 722 3315 
Q 1072 3584 1716 3584 
Q 2034 3584 2315 3537 
Q 2597 3491 2834 3397 
z
" transform="scale(0.015625)"/>
       <path id="DejaVuSans-c" d="M 513 4856 
L 1013 4856 
Q 1481 4119 1714 3412 
Q 1947 2706 1947 2009 
Q 1947 1309 1714 600 
Q 1481 -109 1013 -844 
L 513 -844 
Q 928 -128 1133 580 
Q 1338 1288 1338 2009 
Q 1338 2731 1133 3434 
Q 928 4138 513 4856 
z
" transform="scale(0.015625)"/>
      </defs>
      <use xlink:href="#DejaVuSans-27"/>
      <use xlink:href="#DejaVuSans-52" transform="translate(77 0)"/>
      <use xlink:href="#DejaVuSans-5a" transform="translate(138.1875 0)"/>
      <use xlink:href="#DejaVuSans-51" transform="translate(219.96875 0)"/>
      <use xlink:href="#DejaVuSans-4f" transform="translate(283.34375 0)"/>
      <use xlink:href="#DejaVuSans-52" transform="translate(311.125 0)"/>
      <use xlink:href="#DejaVuSans-44" transform="translate(372.3125 0)"/>
      <use xlink:href="#DejaVuSans-47" transform="translate(433.59375 0)"/>
      <use xlink:href="#DejaVuSans-3" transform="translate(497.078125 0)"/>
      <use xlink:href="#DejaVuSans-b" transform="translate(528.859375 0)"/>
      <use xlink:href="#DejaVuSans-30" transform="translate(567.875 0)"/>
      <use xlink:href="#DejaVuSans-4c" transform="translate(654.15625 0)"/>
      <use xlink:href="#DejaVuSans-25" transform="translate(681.9375 0)"/>
      <use xlink:href="#DejaVuSans-12" transform="translate(750.546875 0)"/>
      <use xlink:href="#DejaVuSans-56" transform="translate(784.234375 0)"/>
      <use xlink:href="#DejaVuSans-c" transform="translate(836.328125 0)"/>
     </g>
    </g>
   </g>
   <g id="line2d_9">
    <path d="M 95.807182 217.342369 
L 497.829 158.208474 
L 899.850818 217.342369 
" clip-path="url(#pe8314dd667)" style="fill: none; stroke: #5477c4; stroke-width: 1.5; stroke-linecap: round"/>
    <defs>
     <path id="m076c5b1db5" d="M 0 2.25 
C 0.596707 2.25 1.169055 2.012926 1.59099 1.59099 
C 2.012926 1.169055 2.25 0.596707 2.25 0 
C 2.25 -0.596707 2.012926 -1.169055 1.59099 -1.59099 
C 1.169055 -2.012926 0.596707 -2.25 0 -2.25 
C -0.596707 -2.25 -1.169055 -2.012926 -1.59099 -1.59099 
C -2.012926 -1.169055 -2.25 -0.596707 -2.25 0 
C -2.25 0.596707 -2.012926 1.169055 -1.59099 1.59099 
C -1.169055 2.012926 -0.596707 2.25 0 2.25 
z
" style="stroke: #5477c4"/>
    </defs>
    <g clip-path="url(#pe8314dd667)">
     <use xlink:href="#m076c5b1db5" x="95.807182" y="217.342369" style="fill: #5477c4; stroke: #5477c4"/>
     <use xlink:href="#m076c5b1db5" x="497.829" y="158.208474" style="fill: #5477c4; stroke: #5477c4"/>
     <use xlink:href="#m076c5b1db5" x="899.850818" y="217.342369" style="fill: #5477c4; stroke: #5477c4"/>
    </g>
   </g>
   <g id="line2d_10">
    <path d="M 95.807182 217.342369 
L 497.829 217.342369 
L 899.850818 217.342369 
" clip-path="url(#pe8314dd667)" style="fill: none; stroke: #cc6f47; stroke-width: 1.5; stroke-linecap: round"/>
    <defs>
     <path id="mf0558a227c" d="M 0 2.25 
C 0.596707 2.25 1.169055 2.012926 1.59099 1.59099 
C 2.012926 1.169055 2.25 0.596707 2.25 0 
C 2.25 -0.596707 2.012926 -1.169055 1.59099 -1.59099 
C 1.169055 -2.012926 0.596707 -2.25 0 -2.25 
C -0.596707 -2.25 -1.169055 -2.012926 -1.59099 -1.59099 
C -2.012926 -1.169055 -2.25 -0.596707 -2.25 0 
C -2.25 0.596707 -2.012926 1.169055 -1.59099 1.59099 
C -1.169055 2.012926 -0.596707 2.25 0 2.25 
z
" style="stroke: #cc6f47"/>
    </defs>
    <g clip-path="url(#pe8314dd667)">
     <use xlink:href="#mf0558a227c" x="95.807182" y="217.342369" style="fill: #cc6f47; stroke: #cc6f47"/>
     <use xlink:href="#mf0558a227c" x="497.829" y="217.342369" style="fill: #cc6f47; stroke: #cc6f47"/>
     <use xlink:href="#mf0558a227c" x="899.850818" y="217.342369" style="fill: #cc6f47; stroke: #cc6f47"/>
    </g>
   </g>
   <g id="line2d_11">
    <path d="M 95.807182 217.342369 
L 497.829 217.342369 
L 899.850818 246.909275 
" clip-path="url(#pe8314dd667)" style="fill: none; stroke: #b8a037; stroke-width: 1.5; stroke-linecap: round"/>
    <defs>
     <path id="m42c368fb5c" d="M 0 2.25 
C 0.596707 2.25 1.169055 2.012926 1.59099 1.59099 
C 2.012926 1.169055 2.25 0.596707 2.25 0 
C 2.25 -0.596707 2.012926 -1.169055 1.59099 -1.59099 
C 1.169055 -2.012926 0.596707 -2.25 0 -2.25 
C -0.596707 -2.25 -1.169055 -2.012926 -1.59099 -1.59099 
C -2.012926 -1.169055 -2.25 -0.596707 -2.25 0 
C -2.25 0.596707 -2.012926 1.169055 -1.59099 1.59099 
C -1.169055 2.012926 -0.596707 2.25 0 2.25 
z
" style="stroke: #b8a037"/>
    </defs>
    <g clip-path="url(#pe8314dd667)">
     <use xlink:href="#m42c368fb5c" x="95.807182" y="217.342369" style="fill: #b8a037; stroke: #b8a037"/>
     <use xlink:href="#m42c368fb5c" x="497.829" y="217.342369" style="fill: #b8a037; stroke: #b8a037"/>
     <use xlink:href="#m42c368fb5c" x="899.850818" y="246.909275" style="fill: #b8a037; stroke: #b8a037"/>
    </g>
   </g>
   <g id="line2d_12">
    <path d="M 95.807182 264.64946 
L 497.829 264.64946 
L 899.850818 264.64946 
" clip-path="url(#pe8314dd667)" style="fill: none; stroke: #71b436; stroke-width: 1.5; stroke-linecap: round"/>
    <defs>
     <path id="me51305df66" d="M 0 2.25 
C 0.596707 2.25 1.169055 2.012926 1.59099 1.59099 
C 2.012926 1.169055 2.25 0.596707 2.25 0 
C 2.25 -0.596707 2.012926 -1.169055 1.59099 -1.59099 
C 1.169055 -2.012926 0.596707 -2.25 0 -2.25 
C -0.596707 -2.25 -1.169055 -2.012926 -1.59099 -1.59099 
C -2.012926 -1.169055 -2.25 -0.596707 -2.25 0 
C -2.25 0.596707 -2.012926 1.169055 -1.59099 1.59099 
C -1.169055 2.012926 -0.596707 2.25 0 2.25 
z
" style="stroke: #71b436"/>
    </defs>
    <g clip-path="url(#pe8314dd667)">
     <use xlink:href="#me51305df66" x="95.807182" y="264.64946" style="fill: #71b436; stroke: #71b436"/>
     <use xlink:href="#me51305df66" x="497.829" y="264.64946" style="fill: #71b436; stroke: #71b436"/>
     <use xlink:href="#me51305df66" x="899.850818" y="264.64946" style="fill: #71b436; stroke: #71b436"/>
    </g>
   </g>
   <g id="line2d_13">
    <path d="M 95.807182 276.476222 
L 497.829 318.714707 
L 899.850818 296.187521 
" clip-path="url(#pe8314dd667)" style="fill: none; stroke: #bd569b; stroke-width: 1.5; stroke-linecap: round"/>
    <defs>
     <path id="m97a33e85e5" d="M 0 2.25 
C 0.596707 2.25 1.169055 2.012926 1.59099 1.59099 
C 2.012926 1.169055 2.25 0.596707 2.25 0 
C 2.25 -0.596707 2.012926 -1.169055 1.59099 -1.59099 
C 1.169055 -2.012926 0.596707 -2.25 0 -2.25 
C -0.596707 -2.25 -1.169055 -2.012926 -1.59099 -1.59099 
C -2.012926 -1.169055 -2.25 -0.596707 -2.25 0 
C -2.25 0.596707 -2.012926 1.169055 -1.59099 1.59099 
C -1.169055 2.012926 -0.596707 2.25 0 2.25 
z
" style="stroke: #bd569b"/>
    </defs>
    <g clip-path="url(#pe8314dd667)">
     <use xlink:href="#m97a33e85e5" x="95.807182" y="276.476222" style="fill: #bd569b; stroke: #bd569b"/>
     <use xlink:href="#m97a33e85e5" x="497.829" y="318.714707" style="fill: #bd569b; stroke: #bd569b"/>
     <use xlink:href="#m97a33e85e5" x="899.850818" y="296.187521" style="fill: #bd569b; stroke: #bd569b"/>
    </g>
   </g>
   <g id="line2d_14">
    <path d="M 95.807182 321.41796 
L 497.829 296.187521 
L 899.850818 296.187521 
" clip-path="url(#pe8314dd667)" style="fill: none; stroke: #7a828f; stroke-width: 1.5; stroke-linecap: round"/>
    <defs>
     <path id="m92e0c8cab0" d="M 0 2.25 
C 0.596707 2.25 1.169055 2.012926 1.59099 1.59099 
C 2.012926 1.169055 2.25 0.596707 2.25 0 
C 2.25 -0.596707 2.012926 -1.169055 1.59099 -1.59099 
C 1.169055 -2.012926 0.596707 -2.25 0 -2.25 
C -0.596707 -2.25 -1.169055 -2.012926 -1.59099 -1.59099 
C -2.012926 -1.169055 -2.25 -0.596707 -2.25 0 
C -2.25 0.596707 -2.012926 1.169055 -1.59099 1.59099 
C -1.169055 2.012926 -0.596707 2.25 0 2.25 
z
" style="stroke: #7a828f"/>
    </defs>
    <g clip-path="url(#pe8314dd667)">
     <use xlink:href="#m92e0c8cab0" x="95.807182" y="321.41796" style="fill: #7a828f; stroke: #7a828f"/>
     <use xlink:href="#m92e0c8cab0" x="497.829" y="296.187521" style="fill: #7a828f; stroke: #7a828f"/>
     <use xlink:href="#m92e0c8cab0" x="899.850818" y="296.187521" style="fill: #7a828f; stroke: #7a828f"/>
    </g>
   </g>
   <g id="patch_3">
    <path d="M 55.605 329.578435 
L 55.605 150.048 
" style="fill: none; stroke: #d7dbe7; stroke-width: 1.25; stroke-linejoin: miter; stroke-linecap: square"/>
   </g>
   <g id="patch_4">
    <path d="M 55.605 329.578435 
L 940.053 329.578435 
" style="fill: none; stroke: #d7dbe7; stroke-width: 1.25; stroke-linejoin: miter; stroke-linecap: square"/>
   </g>
  </g>
  <g id="axes_2">
   <g id="patch_5">
    <path d="M 55.605 570.149217 
L 940.053 570.149217 
L 940.053 390.618783 
L 55.605 390.618783 
z
" style="fill: #ffffff"/>
   </g>
   <g id="matplotlib.axis_3"/>
   <g id="matplotlib.axis_4">
    <g id="ytick_9">
     <g id="line2d_15">
      <path d="M 55.605 550.313601 
L 940.053 550.313601 
" clip-path="url(#paa522a0eb3)" style="fill: none; stroke: #e6e8f0; stroke-width: 0.8; stroke-linecap: round"/>
     </g>
     <g id="text_10">
      <!-- 0.2 -->
      <g style="fill: #6f768a" transform="translate(31.792188 553.732547) scale(0.09 -0.09)">
       <use xlink:href="#DejaVuSans-13"/>
       <use xlink:href="#DejaVuSans-11" transform="translate(63.625 0)"/>
       <use xlink:href="#DejaVuSans-15" transform="translate(95.40625 0)"/>
      </g>
     </g>
    </g>
    <g id="ytick_10">
     <g id="line2d_16">
      <path d="M 55.605 523.573004 
L 940.053 523.573004 
" clip-path="url(#paa522a0eb3)" style="fill: none; stroke: #e6e8f0; stroke-width: 0.8; stroke-linecap: round"/>
     </g>
     <g id="text_11">
      <!-- 0.4 -->
      <g style="fill: #6f768a" transform="translate(31.792188 526.991949) scale(0.09 -0.09)">
       <use xlink:href="#DejaVuSans-13"/>
       <use xlink:href="#DejaVuSans-11" transform="translate(63.625 0)"/>
       <use xlink:href="#DejaVuSans-17" transform="translate(95.40625 0)"/>
      </g>
     </g>
    </g>
    <g id="ytick_11">
     <g id="line2d_17">
      <path d="M 55.605 496.832407 
L 940.053 496.832407 
" clip-path="url(#paa522a0eb3)" style="fill: none; stroke: #e6e8f0; stroke-width: 0.8; stroke-linecap: round"/>
     </g>
     <g id="text_12">
      <!-- 0.6 -->
      <g style="fill: #6f768a" transform="translate(31.792188 500.251352) scale(0.09 -0.09)">
       <defs>
        <path id="DejaVuSans-19" d="M 2113 2584 
Q 1688 2584 1439 2293 
Q 1191 2003 1191 1497 
Q 1191 994 1439 701 
Q 1688 409 2113 409 
Q 2538 409 2786 701 
Q 3034 994 3034 1497 
Q 3034 2003 2786 2293 
Q 2538 2584 2113 2584 
z
M 3366 4563 
L 3366 3988 
Q 3128 4100 2886 4159 
Q 2644 4219 2406 4219 
Q 1781 4219 1451 3797 
Q 1122 3375 1075 2522 
Q 1259 2794 1537 2939 
Q 1816 3084 2150 3084 
Q 2853 3084 3261 2657 
Q 3669 2231 3669 1497 
Q 3669 778 3244 343 
Q 2819 -91 2113 -91 
Q 1303 -91 875 529 
Q 447 1150 447 2328 
Q 447 3434 972 4092 
Q 1497 4750 2381 4750 
Q 2619 4750 2861 4703 
Q 3103 4656 3366 4563 
z
" transform="scale(0.015625)"/>
       </defs>
       <use xlink:href="#DejaVuSans-13"/>
       <use xlink:href="#DejaVuSans-11" transform="translate(63.625 0)"/>
       <use xlink:href="#DejaVuSans-19" transform="translate(95.40625 0)"/>
      </g>
     </g>
    </g>
    <g id="ytick_12">
     <g id="line2d_18">
      <path d="M 55.605 470.091809 
L 940.053 470.091809 
" clip-path="url(#paa522a0eb3)" style="fill: none; stroke: #e6e8f0; stroke-width: 0.8; stroke-linecap: round"/>
     </g>
     <g id="text_13">
      <!-- 0.8 -->
      <g style="fill: #6f768a" transform="translate(31.792188 473.510755) scale(0.09 -0.09)">
       <defs>
        <path id="DejaVuSans-1b" d="M 2034 2216 
Q 1584 2216 1326 1975 
Q 1069 1734 1069 1313 
Q 1069 891 1326 650 
Q 1584 409 2034 409 
Q 2484 409 2743 651 
Q 3003 894 3003 1313 
Q 3003 1734 2745 1975 
Q 2488 2216 2034 2216 
z
M 1403 2484 
Q 997 2584 770 2862 
Q 544 3141 544 3541 
Q 544 4100 942 4425 
Q 1341 4750 2034 4750 
Q 2731 4750 3128 4425 
Q 3525 4100 3525 3541 
Q 3525 3141 3298 2862 
Q 3072 2584 2669 2484 
Q 3125 2378 3379 2068 
Q 3634 1759 3634 1313 
Q 3634 634 3220 271 
Q 2806 -91 2034 -91 
Q 1263 -91 848 271 
Q 434 634 434 1313 
Q 434 1759 690 2068 
Q 947 2378 1403 2484 
z
M 1172 3481 
Q 1172 3119 1398 2916 
Q 1625 2713 2034 2713 
Q 2441 2713 2670 2916 
Q 2900 3119 2900 3481 
Q 2900 3844 2670 4047 
Q 2441 4250 2034 4250 
Q 1625 4250 1398 4047 
Q 1172 3844 1172 3481 
z
" transform="scale(0.015625)"/>
       </defs>
       <use xlink:href="#DejaVuSans-13"/>
       <use xlink:href="#DejaVuSans-11" transform="translate(63.625 0)"/>
       <use xlink:href="#DejaVuSans-1b" transform="translate(95.40625 0)"/>
      </g>
     </g>
    </g>
    <g id="ytick_13">
     <g id="line2d_19">
      <path d="M 55.605 443.351212 
L 940.053 443.351212 
" clip-path="url(#paa522a0eb3)" style="fill: none; stroke: #e6e8f0; stroke-width: 0.8; stroke-linecap: round"/>
     </g>
     <g id="text_14">
      <!-- 1.0 -->
      <g style="fill: #6f768a" transform="translate(31.792188 446.770157) scale(0.09 -0.09)">
       <use xlink:href="#DejaVuSans-14"/>
       <use xlink:href="#DejaVuSans-11" transform="translate(63.625 0)"/>
       <use xlink:href="#DejaVuSans-13" transform="translate(95.40625 0)"/>
      </g>
     </g>
    </g>
    <g id="ytick_14">
     <g id="line2d_20">
      <path d="M 55.605 416.610615 
L 940.053 416.610615 
" clip-path="url(#paa522a0eb3)" style="fill: none; stroke: #e6e8f0; stroke-width: 0.8; stroke-linecap: round"/>
     </g>
     <g id="text_15">
      <!-- 1.2 -->
      <g style="fill: #6f768a" transform="translate(31.792188 420.02956) scale(0.09 -0.09)">
       <use xlink:href="#DejaVuSans-14"/>
       <use xlink:href="#DejaVuSans-11" transform="translate(63.625 0)"/>
       <use xlink:href="#DejaVuSans-15" transform="translate(95.40625 0)"/>
      </g>
     </g>
    </g>
    <g id="text_16">
     <!-- Upload (MiB/s) -->
     <g style="fill: #1f2430" transform="translate(24.909375 524.104313) rotate(-90) scale(0.12 -0.12)">
      <defs>
       <path id="DejaVuSans-38" d="M 556 4666 
L 1191 4666 
L 1191 1831 
Q 1191 1081 1462 751 
Q 1734 422 2344 422 
Q 2950 422 3222 751 
Q 3494 1081 3494 1831 
L 3494 4666 
L 4128 4666 
L 4128 1753 
Q 4128 841 3676 375 
Q 3225 -91 2344 -91 
Q 1459 -91 1007 375 
Q 556 841 556 1753 
L 556 4666 
z
" transform="scale(0.015625)"/>
       <path id="DejaVuSans-53" d="M 1159 525 
L 1159 -1331 
L 581 -1331 
L 581 3500 
L 1159 3500 
L 1159 2969 
Q 1341 3281 1617 3432 
Q 1894 3584 2278 3584 
Q 2916 3584 3314 3078 
Q 3713 2572 3713 1747 
Q 3713 922 3314 415 
Q 2916 -91 2278 -91 
Q 1894 -91 1617 61 
Q 1341 213 1159 525 
z
M 3116 1747 
Q 3116 2381 2855 2742 
Q 2594 3103 2138 3103 
Q 1681 3103 1420 2742 
Q 1159 2381 1159 1747 
Q 1159 1113 1420 752 
Q 1681 391 2138 391 
Q 2594 391 2855 752 
Q 3116 1113 3116 1747 
z
" transform="scale(0.015625)"/>
      </defs>
      <use xlink:href="#DejaVuSans-38"/>
      <use xlink:href="#DejaVuSans-53" transform="translate(73.1875 0)"/>
      <use xlink:href="#DejaVuSans-4f" transform="translate(136.671875 0)"/>
      <use xlink:href="#DejaVuSans-52" transform="translate(164.453125 0)"/>
      <use xlink:href="#DejaVuSans-44" transform="translate(225.640625 0)"/>
      <use xlink:href="#DejaVuSans-47" transform="translate(286.921875 0)"/>
      <use xlink:href="#DejaVuSans-3" transform="translate(350.40625 0)"/>
      <use xlink:href="#DejaVuSans-b" transform="translate(382.1875 0)"/>
      <use xlink:href="#DejaVuSans-30" transform="translate(421.203125 0)"/>
      <use xlink:href="#DejaVuSans-4c" transform="translate(507.484375 0)"/>
      <use xlink:href="#DejaVuSans-25" transform="translate(535.265625 0)"/>
      <use xlink:href="#DejaVuSans-12" transform="translate(603.875 0)"/>
      <use xlink:href="#DejaVuSans-56" transform="translate(637.5625 0)"/>
      <use xlink:href="#DejaVuSans-c" transform="translate(689.65625 0)"/>
     </g>
    </g>
   </g>
   <g id="line2d_21">
    <path d="M 95.807182 424.24716 
L 497.829 424.24716 
L 899.850818 517.629218 
" clip-path="url(#paa522a0eb3)" style="fill: none; stroke: #5477c4; stroke-width: 1.5; stroke-linecap: round"/>
    <g clip-path="url(#paa522a0eb3)">
     <use xlink:href="#m076c5b1db5" x="95.807182" y="424.24716" style="fill: #5477c4; stroke: #5477c4"/>
     <use xlink:href="#m076c5b1db5" x="497.829" y="424.24716" style="fill: #5477c4; stroke: #5477c4"/>
     <use xlink:href="#m076c5b1db5" x="899.850818" y="517.629218" style="fill: #5477c4; stroke: #5477c4"/>
    </g>
   </g>
   <g id="line2d_22">
    <path d="M 95.807182 443.348024 
L 497.829 398.779257 
L 899.850818 424.24716 
" clip-path="url(#paa522a0eb3)" style="fill: none; stroke: #cc6f47; stroke-width: 1.5; stroke-linecap: round"/>
    <g clip-path="url(#paa522a0eb3)">
     <use xlink:href="#mf0558a227c" x="95.807182" y="443.348024" style="fill: #cc6f47; stroke: #cc6f47"/>
     <use xlink:href="#mf0558a227c" x="497.829" y="398.779257" style="fill: #cc6f47; stroke: #cc6f47"/>
     <use xlink:href="#mf0558a227c" x="899.850818" y="424.24716" style="fill: #cc6f47; stroke: #cc6f47"/>
    </g>
   </g>
   <g id="line2d_23">
    <path d="M 95.807182 424.24716 
L 497.829 458.204238 
L 899.850818 424.24716 
" clip-path="url(#paa522a0eb3)" style="fill: none; stroke: #b8a037; stroke-width: 1.5; stroke-linecap: round"/>
    <g clip-path="url(#paa522a0eb3)">
     <use xlink:href="#m42c368fb5c" x="95.807182" y="424.24716" style="fill: #b8a037; stroke: #b8a037"/>
     <use xlink:href="#m42c368fb5c" x="497.829" y="458.204238" style="fill: #b8a037; stroke: #b8a037"/>
     <use xlink:href="#m42c368fb5c" x="899.850818" y="424.24716" style="fill: #b8a037; stroke: #b8a037"/>
    </g>
   </g>
   <g id="line2d_24">
    <path d="M 95.807182 505.744222 
L 497.829 458.204238 
L 899.850818 443.348024 
" clip-path="url(#paa522a0eb3)" style="fill: none; stroke: #71b436; stroke-width: 1.5; stroke-linecap: round"/>
    <g clip-path="url(#paa522a0eb3)">
     <use xlink:href="#me51305df66" x="95.807182" y="505.744222" style="fill: #71b436; stroke: #71b436"/>
     <use xlink:href="#me51305df66" x="497.829" y="458.204238" style="fill: #71b436; stroke: #71b436"/>
     <use xlink:href="#me51305df66" x="899.850818" y="443.348024" style="fill: #71b436; stroke: #71b436"/>
    </g>
   </g>
   <g id="line2d_25">
    <path d="M 95.807182 470.089234 
L 497.829 545.594005 
L 899.850818 561.988743 
" clip-path="url(#paa522a0eb3)" style="fill: none; stroke: #bd569b; stroke-width: 1.5; stroke-linecap: round"/>
    <g clip-path="url(#paa522a0eb3)">
     <use xlink:href="#m97a33e85e5" x="95.807182" y="470.089234" style="fill: #bd569b; stroke: #bd569b"/>
     <use xlink:href="#m97a33e85e5" x="497.829" y="545.594005" style="fill: #bd569b; stroke: #bd569b"/>
     <use xlink:href="#m97a33e85e5" x="899.850818" y="561.988743" style="fill: #bd569b; stroke: #bd569b"/>
    </g>
   </g>
   <g id="line2d_26">
    <path d="M 95.807182 530.547803 
L 497.829 544.640619 
L 899.850818 545.594005 
" clip-path="url(#paa522a0eb3)" style="fill: none; stroke: #7a828f; stroke-width: 1.5; stroke-linecap: round"/>
    <g clip-path="url(#paa522a0eb3)">
     <use xlink:href="#m92e0c8cab0" x="95.807182" y="530.547803" style="fill: #7a828f; stroke: #7a828f"/>
     <use xlink:href="#m92e0c8cab0" x="497.829" y="544.640619" style="fill: #7a828f; stroke: #7a828f"/>
     <use xlink:href="#m92e0c8cab0" x="899.850818" y="545.594005" style="fill: #7a828f; stroke: #7a828f"/>
    </g>
   </g>
   <g id="patch_6">
    <path d="M 55.605 570.149217 
L 55.605 390.618783 
" style="fill: none; stroke: #d7dbe7; stroke-width: 1.25; stroke-linejoin: miter; stroke-linecap: square"/>
   </g>
   <g id="patch_7">
    <path d="M 55.605 570.149217 
L 940.053 570.149217 
" style="fill: none; stroke: #d7dbe7; stroke-width: 1.25; stroke-linejoin: miter; stroke-linecap: square"/>
   </g>
  </g>
  <g id="axes_3">
   <g id="patch_8">
    <path d="M 55.605 810.72 
L 940.053 810.72 
L 940.053 631.189565 
L 55.605 631.189565 
z
" style="fill: #ffffff"/>
   </g>
   <g id="matplotlib.axis_5">
    <g id="xtick_1">
     <g id="text_17">
      <!-- 1 -->
      <g style="fill: #6f768a" transform="translate(92.944057 827.057891) scale(0.09 -0.09)">
       <use xlink:href="#DejaVuSans-14"/>
      </g>
     </g>
    </g>
    <g id="xtick_2">
     <g id="text_18">
      <!-- 2 -->
      <g style="fill: #6f768a" transform="translate(494.965875 827.057891) scale(0.09 -0.09)">
       <use xlink:href="#DejaVuSans-15"/>
      </g>
     </g>
    </g>
    <g id="xtick_3">
     <g id="text_19">
      <!-- 3 -->
      <g style="fill: #6f768a" transform="translate(896.987693 827.057891) scale(0.09 -0.09)">
       <use xlink:href="#DejaVuSans-16"/>
      </g>
     </g>
    </g>
    <g id="text_20">
     <!-- Run number -->
     <g style="fill: #1f2430" transform="translate(461.00025 842.338125) scale(0.12 -0.12)">
      <defs>
       <path id="DejaVuSans-35" d="M 2841 2188 
Q 3044 2119 3236 1894 
Q 3428 1669 3622 1275 
L 4263 0 
L 3584 0 
L 2988 1197 
Q 2756 1666 2539 1819 
Q 2322 1972 1947 1972 
L 1259 1972 
L 1259 0 
L 628 0 
L 628 4666 
L 2053 4666 
Q 2853 4666 3247 4331 
Q 3641 3997 3641 3322 
Q 3641 2881 3436 2590 
Q 3231 2300 2841 2188 
z
M 1259 4147 
L 1259 2491 
L 2053 2491 
Q 2509 2491 2742 2702 
Q 2975 2913 2975 3322 
Q 2975 3731 2742 3939 
Q 2509 4147 2053 4147 
L 1259 4147 
z
" transform="scale(0.015625)"/>
       <path id="DejaVuSans-58" d="M 544 1381 
L 544 3500 
L 1119 3500 
L 1119 1403 
Q 1119 906 1312 657 
Q 1506 409 1894 409 
Q 2359 409 2629 706 
Q 2900 1003 2900 1516 
L 2900 3500 
L 3475 3500 
L 3475 0 
L 2900 0 
L 2900 538 
Q 2691 219 2414 64 
Q 2138 -91 1772 -91 
Q 1169 -91 856 284 
Q 544 659 544 1381 
z
M 1991 3584 
L 1991 3584 
z
" transform="scale(0.015625)"/>
       <path id="DejaVuSans-50" d="M 3328 2828 
Q 3544 3216 3844 3400 
Q 4144 3584 4550 3584 
Q 5097 3584 5394 3201 
Q 5691 2819 5691 2113 
L 5691 0 
L 5113 0 
L 5113 2094 
Q 5113 2597 4934 2840 
Q 4756 3084 4391 3084 
Q 3944 3084 3684 2787 
Q 3425 2491 3425 1978 
L 3425 0 
L 2847 0 
L 2847 2094 
Q 2847 2600 2669 2842 
Q 2491 3084 2119 3084 
Q 1678 3084 1418 2786 
Q 1159 2488 1159 1978 
L 1159 0 
L 581 0 
L 581 3500 
L 1159 3500 
L 1159 2956 
Q 1356 3278 1631 3431 
Q 1906 3584 2284 3584 
Q 2666 3584 2933 3390 
Q 3200 3197 3328 2828 
z
" transform="scale(0.015625)"/>
       <path id="DejaVuSans-45" d="M 3116 1747 
Q 3116 2381 2855 2742 
Q 2594 3103 2138 3103 
Q 1681 3103 1420 2742 
Q 1159 2381 1159 1747 
Q 1159 1113 1420 752 
Q 1681 391 2138 391 
Q 2594 391 2855 752 
Q 3116 1113 3116 1747 
z
M 1159 2969 
Q 1341 3281 1617 3432 
Q 1894 3584 2278 3584 
Q 2916 3584 3314 3078 
Q 3713 2572 3713 1747 
Q 3713 922 3314 415 
Q 2916 -91 2278 -91 
Q 1894 -91 1617 61 
Q 1341 213 1159 525 
L 1159 0 
L 581 0 
L 581 4863 
L 1159 4863 
L 1159 2969 
z
" transform="scale(0.015625)"/>
       <path id="DejaVuSans-48" d="M 3597 1894 
L 3597 1613 
L 953 1613 
Q 991 1019 1311 708 
Q 1631 397 2203 397 
Q 2534 397 2845 478 
Q 3156 559 3463 722 
L 3463 178 
Q 3153 47 2828 -22 
Q 2503 -91 2169 -91 
Q 1331 -91 842 396 
Q 353 884 353 1716 
Q 353 2575 817 3079 
Q 1281 3584 2069 3584 
Q 2775 3584 3186 3129 
Q 3597 2675 3597 1894 
z
M 3022 2063 
Q 3016 2534 2758 2815 
Q 2500 3097 2075 3097 
Q 1594 3097 1305 2825 
Q 1016 2553 972 2059 
L 3022 2063 
z
" transform="scale(0.015625)"/>
       <path id="DejaVuSans-55" d="M 2631 2963 
Q 2534 3019 2420 3045 
Q 2306 3072 2169 3072 
Q 1681 3072 1420 2755 
Q 1159 2438 1159 1844 
L 1159 0 
L 581 0 
L 581 3500 
L 1159 3500 
L 1159 2956 
Q 1341 3275 1631 3429 
Q 1922 3584 2338 3584 
Q 2397 3584 2469 3576 
Q 2541 3569 2628 3553 
L 2631 2963 
z
" transform="scale(0.015625)"/>
      </defs>
      <use xlink:href="#DejaVuSans-35"/>
      <use xlink:href="#DejaVuSans-58" transform="translate(65 0)"/>
      <use xlink:href="#DejaVuSans-51" transform="translate(128.375 0)"/>
      <use xlink:href="#DejaVuSans-3" transform="translate(191.75 0)"/>
      <use xlink:href="#DejaVuSans-51" transform="translate(223.53125 0)"/>
      <use xlink:href="#DejaVuSans-58" transform="translate(286.90625 0)"/>
      <use xlink:href="#DejaVuSans-50" transform="translate(350.28125 0)"/>
      <use xlink:href="#DejaVuSans-45" transform="translate(447.6875 0)"/>
      <use xlink:href="#DejaVuSans-48" transform="translate(511.171875 0)"/>
      <use xlink:href="#DejaVuSans-55" transform="translate(572.703125 0)"/>
     </g>
    </g>
   </g>
   <g id="matplotlib.axis_6">
    <g id="ytick_15">
     <g id="line2d_27">
      <path d="M 55.605 791.968513 
L 940.053 791.968513 
" clip-path="url(#p5963a7e1f5)" style="fill: none; stroke: #e6e8f0; stroke-width: 0.8; stroke-linecap: round"/>
     </g>
     <g id="text_21">
      <!-- 600 -->
      <g style="fill: #6f768a" transform="translate(28.92625 795.387459) scale(0.09 -0.09)">
       <use xlink:href="#DejaVuSans-19"/>
       <use xlink:href="#DejaVuSans-13" transform="translate(63.625 0)"/>
       <use xlink:href="#DejaVuSans-13" transform="translate(127.25 0)"/>
      </g>
     </g>
    </g>
    <g id="ytick_16">
     <g id="line2d_28">
      <path d="M 55.605 763.574379 
L 940.053 763.574379 
" clip-path="url(#p5963a7e1f5)" style="fill: none; stroke: #e6e8f0; stroke-width: 0.8; stroke-linecap: round"/>
     </g>
     <g id="text_22">
      <!-- 800 -->
      <g style="fill: #6f768a" transform="translate(28.92625 766.993324) scale(0.09 -0.09)">
       <use xlink:href="#DejaVuSans-1b"/>
       <use xlink:href="#DejaVuSans-13" transform="translate(63.625 0)"/>
       <use xlink:href="#DejaVuSans-13" transform="translate(127.25 0)"/>
      </g>
     </g>
    </g>
    <g id="ytick_17">
     <g id="line2d_29">
      <path d="M 55.605 735.180244 
L 940.053 735.180244 
" clip-path="url(#p5963a7e1f5)" style="fill: none; stroke: #e6e8f0; stroke-width: 0.8; stroke-linecap: round"/>
     </g>
     <g id="text_23">
      <!-- 1000 -->
      <g style="fill: #6f768a" transform="translate(23.2 738.599189) scale(0.09 -0.09)">
       <use xlink:href="#DejaVuSans-14"/>
       <use xlink:href="#DejaVuSans-13" transform="translate(63.625 0)"/>
       <use xlink:href="#DejaVuSans-13" transform="translate(127.25 0)"/>
       <use xlink:href="#DejaVuSans-13" transform="translate(190.875 0)"/>
      </g>
     </g>
    </g>
    <g id="ytick_18">
     <g id="line2d_30">
      <path d="M 55.605 706.786109 
L 940.053 706.786109 
" clip-path="url(#p5963a7e1f5)" style="fill: none; stroke: #e6e8f0; stroke-width: 0.8; stroke-linecap: round"/>
     </g>
     <g id="text_24">
      <!-- 1200 -->
      <g style="fill: #6f768a" transform="translate(23.2 710.205055) scale(0.09 -0.09)">
       <use xlink:href="#DejaVuSans-14"/>
       <use xlink:href="#DejaVuSans-15" transform="translate(63.625 0)"/>
       <use xlink:href="#DejaVuSans-13" transform="translate(127.25 0)"/>
       <use xlink:href="#DejaVuSans-13" transform="translate(190.875 0)"/>
      </g>
     </g>
    </g>
    <g id="ytick_19">
     <g id="line2d_31">
      <path d="M 55.605 678.391975 
L 940.053 678.391975 
" clip-path="url(#p5963a7e1f5)" style="fill: none; stroke: #e6e8f0; stroke-width: 0.8; stroke-linecap: round"/>
     </g>
     <g id="text_25">
      <!-- 1400 -->
      <g style="fill: #6f768a" transform="translate(23.2 681.81092) scale(0.09 -0.09)">
       <use xlink:href="#DejaVuSans-14"/>
       <use xlink:href="#DejaVuSans-17" transform="translate(63.625 0)"/>
       <use xlink:href="#DejaVuSans-13" transform="translate(127.25 0)"/>
       <use xlink:href="#DejaVuSans-13" transform="translate(190.875 0)"/>
      </g>
     </g>
    </g>
    <g id="ytick_20">
     <g id="line2d_32">
      <path d="M 55.605 649.99784 
L 940.053 649.99784 
" clip-path="url(#p5963a7e1f5)" style="fill: none; stroke: #e6e8f0; stroke-width: 0.8; stroke-linecap: round"/>
     </g>
     <g id="text_26">
      <!-- 1600 -->
      <g style="fill: #6f768a" transform="translate(23.2 653.416785) scale(0.09 -0.09)">
       <use xlink:href="#DejaVuSans-14"/>
       <use xlink:href="#DejaVuSans-19" transform="translate(63.625 0)"/>
       <use xlink:href="#DejaVuSans-13" transform="translate(127.25 0)"/>
       <use xlink:href="#DejaVuSans-13" transform="translate(190.875 0)"/>
      </g>
     </g>
    </g>
    <g id="text_27">
     <!-- Latency average (ms) -->
     <g style="fill: #1f2430" transform="translate(16.317188 786.701658) rotate(-90) scale(0.12 -0.12)">
      <defs>
       <path id="DejaVuSans-2f" d="M 628 4666 
L 1259 4666 
L 1259 531 
L 3531 531 
L 3531 0 
L 628 0 
L 628 4666 
z
" transform="scale(0.015625)"/>
       <path id="DejaVuSans-57" d="M 1172 4494 
L 1172 3500 
L 2356 3500 
L 2356 3053 
L 1172 3053 
L 1172 1153 
Q 1172 725 1289 603 
Q 1406 481 1766 481 
L 2356 481 
L 2356 0 
L 1766 0 
Q 1100 0 847 248 
Q 594 497 594 1153 
L 594 3053 
L 172 3053 
L 172 3500 
L 594 3500 
L 594 4494 
L 1172 4494 
z
" transform="scale(0.015625)"/>
       <path id="DejaVuSans-46" d="M 3122 3366 
L 3122 2828 
Q 2878 2963 2633 3030 
Q 2388 3097 2138 3097 
Q 1578 3097 1268 2742 
Q 959 2388 959 1747 
Q 959 1106 1268 751 
Q 1578 397 2138 397 
Q 2388 397 2633 464 
Q 2878 531 3122 666 
L 3122 134 
Q 2881 22 2623 -34 
Q 2366 -91 2075 -91 
Q 1284 -91 818 406 
Q 353 903 353 1747 
Q 353 2603 823 3093 
Q 1294 3584 2113 3584 
Q 2378 3584 2631 3529 
Q 2884 3475 3122 3366 
z
" transform="scale(0.015625)"/>
       <path id="DejaVuSans-5c" d="M 2059 -325 
Q 1816 -950 1584 -1140 
Q 1353 -1331 966 -1331 
L 506 -1331 
L 506 -850 
L 844 -850 
Q 1081 -850 1212 -737 
Q 1344 -625 1503 -206 
L 1606 56 
L 191 3500 
L 800 3500 
L 1894 763 
L 2988 3500 
L 3597 3500 
L 2059 -325 
z
" transform="scale(0.015625)"/>
       <path id="DejaVuSans-59" d="M 191 3500 
L 800 3500 
L 1894 563 
L 2988 3500 
L 3597 3500 
L 2284 0 
L 1503 0 
L 191 3500 
z
" transform="scale(0.015625)"/>
       <path id="DejaVuSans-4a" d="M 2906 1791 
Q 2906 2416 2648 2759 
Q 2391 3103 1925 3103 
Q 1463 3103 1205 2759 
Q 947 2416 947 1791 
Q 947 1169 1205 825 
Q 1463 481 1925 481 
Q 2391 481 2648 825 
Q 2906 1169 2906 1791 
z
M 3481 434 
Q 3481 -459 3084 -895 
Q 2688 -1331 1869 -1331 
Q 1566 -1331 1297 -1286 
Q 1028 -1241 775 -1147 
L 775 -588 
Q 1028 -725 1275 -790 
Q 1522 -856 1778 -856 
Q 2344 -856 2625 -561 
Q 2906 -266 2906 331 
L 2906 616 
Q 2728 306 2450 153 
Q 2172 0 1784 0 
Q 1141 0 747 490 
Q 353 981 353 1791 
Q 353 2603 747 3093 
Q 1141 3584 1784 3584 
Q 2172 3584 2450 3431 
Q 2728 3278 2906 2969 
L 2906 3500 
L 3481 3500 
L 3481 434 
z
" transform="scale(0.015625)"/>
      </defs>
      <use xlink:href="#DejaVuSans-2f"/>
      <use xlink:href="#DejaVuSans-44" transform="translate(55.71875 0)"/>
      <use xlink:href="#DejaVuSans-57" transform="translate(117 0)"/>
      <use xlink:href="#DejaVuSans-48" transform="translate(156.203125 0)"/>
      <use xlink:href="#DejaVuSans-51" transform="translate(217.734375 0)"/>
      <use xlink:href="#DejaVuSans-46" transform="translate(281.109375 0)"/>
      <use xlink:href="#DejaVuSans-5c" transform="translate(336.09375 0)"/>
      <use xlink:href="#DejaVuSans-3" transform="translate(395.28125 0)"/>
      <use xlink:href="#DejaVuSans-44" transform="translate(427.0625 0)"/>
      <use xlink:href="#DejaVuSans-59" transform="translate(488.34375 0)"/>
      <use xlink:href="#DejaVuSans-48" transform="translate(547.53125 0)"/>
      <use xlink:href="#DejaVuSans-55" transform="translate(609.0625 0)"/>
      <use xlink:href="#DejaVuSans-44" transform="translate(650.171875 0)"/>
      <use xlink:href="#DejaVuSans-4a" transform="translate(711.453125 0)"/>
      <use xlink:href="#DejaVuSans-48" transform="translate(774.9375 0)"/>
      <use xlink:href="#DejaVuSans-3" transform="translate(836.46875 0)"/>
      <use xlink:href="#DejaVuSans-b" transform="translate(868.25 0)"/>
      <use xlink:href="#DejaVuSans-50" transform="translate(907.265625 0)"/>
      <use xlink:href="#DejaVuSans-56" transform="translate(1004.671875 0)"/>
      <use xlink:href="#DejaVuSans-c" transform="translate(1056.765625 0)"/>
     </g>
    </g>
   </g>
   <g id="line2d_33">
    <path d="M 95.807182 799.947265 
L 497.829 795.574569 
L 899.850818 802.559526 
" clip-path="url(#p5963a7e1f5)" style="fill: none; stroke: #5477c4; stroke-width: 1.5; stroke-linecap: round"/>
    <g clip-path="url(#p5963a7e1f5)">
     <use xlink:href="#m076c5b1db5" x="95.807182" y="799.947265" style="fill: #5477c4; stroke: #5477c4"/>
     <use xlink:href="#m076c5b1db5" x="497.829" y="795.574569" style="fill: #5477c4; stroke: #5477c4"/>
     <use xlink:href="#m076c5b1db5" x="899.850818" y="802.559526" style="fill: #5477c4; stroke: #5477c4"/>
    </g>
   </g>
   <g id="line2d_34">
    <path d="M 95.807182 704.599761 
L 497.829 703.719543 
L 899.850818 719.677047 
" clip-path="url(#p5963a7e1f5)" style="fill: none; stroke: #cc6f47; stroke-width: 1.5; stroke-linecap: round"/>
    <g clip-path="url(#p5963a7e1f5)">
     <use xlink:href="#mf0558a227c" x="95.807182" y="704.599761" style="fill: #cc6f47; stroke: #cc6f47"/>
     <use xlink:href="#mf0558a227c" x="497.829" y="703.719543" style="fill: #cc6f47; stroke: #cc6f47"/>
     <use xlink:href="#mf0558a227c" x="899.850818" y="719.677047" style="fill: #cc6f47; stroke: #cc6f47"/>
    </g>
   </g>
   <g id="line2d_35">
    <path d="M 95.807182 696.990133 
L 497.829 743.18739 
L 899.850818 704.145455 
" clip-path="url(#p5963a7e1f5)" style="fill: none; stroke: #b8a037; stroke-width: 1.5; stroke-linecap: round"/>
    <g clip-path="url(#p5963a7e1f5)">
     <use xlink:href="#m42c368fb5c" x="95.807182" y="696.990133" style="fill: #b8a037; stroke: #b8a037"/>
     <use xlink:href="#m42c368fb5c" x="497.829" y="743.18739" style="fill: #b8a037; stroke: #b8a037"/>
     <use xlink:href="#m42c368fb5c" x="899.850818" y="704.145455" style="fill: #b8a037; stroke: #b8a037"/>
    </g>
   </g>
   <g id="line2d_36">
    <path d="M 95.807182 639.35004 
L 497.829 657.522286 
L 899.850818 661.099947 
" clip-path="url(#p5963a7e1f5)" style="fill: none; stroke: #71b436; stroke-width: 1.5; stroke-linecap: round"/>
    <g clip-path="url(#p5963a7e1f5)">
     <use xlink:href="#me51305df66" x="95.807182" y="639.35004" style="fill: #71b436; stroke: #71b436"/>
     <use xlink:href="#me51305df66" x="497.829" y="657.522286" style="fill: #71b436; stroke: #71b436"/>
     <use xlink:href="#me51305df66" x="899.850818" y="661.099947" style="fill: #71b436; stroke: #71b436"/>
    </g>
   </g>
   <g id="line2d_37">
    <path d="M 95.807182 711.243989 
L 497.829 731.630977 
L 899.850818 729.444629 
" clip-path="url(#p5963a7e1f5)" style="fill: none; stroke: #bd569b; stroke-width: 1.5; stroke-linecap: round"/>
    <g clip-path="url(#p5963a7e1f5)">
     <use xlink:href="#m97a33e85e5" x="95.807182" y="711.243989" style="fill: #bd569b; stroke: #bd569b"/>
     <use xlink:href="#m97a33e85e5" x="497.829" y="731.630977" style="fill: #bd569b; stroke: #bd569b"/>
     <use xlink:href="#m97a33e85e5" x="899.850818" y="729.444629" style="fill: #bd569b; stroke: #bd569b"/>
    </g>
   </g>
   <g id="line2d_38">
    <path d="M 95.807182 708.149028 
L 497.829 746.679869 
L 899.850818 752.926578 
" clip-path="url(#p5963a7e1f5)" style="fill: none; stroke: #7a828f; stroke-width: 1.5; stroke-linecap: round"/>
    <g clip-path="url(#p5963a7e1f5)">
     <use xlink:href="#m92e0c8cab0" x="95.807182" y="708.149028" style="fill: #7a828f; stroke: #7a828f"/>
     <use xlink:href="#m92e0c8cab0" x="497.829" y="746.679869" style="fill: #7a828f; stroke: #7a828f"/>
     <use xlink:href="#m92e0c8cab0" x="899.850818" y="752.926578" style="fill: #7a828f; stroke: #7a828f"/>
    </g>
   </g>
   <g id="patch_9">
    <path d="M 55.605 810.72 
L 55.605 631.189565 
" style="fill: none; stroke: #d7dbe7; stroke-width: 1.25; stroke-linejoin: miter; stroke-linecap: square"/>
   </g>
   <g id="patch_10">
    <path d="M 55.605 810.72 
L 940.053 810.72 
" style="fill: none; stroke: #d7dbe7; stroke-width: 1.25; stroke-linejoin: miter; stroke-linecap: square"/>
   </g>
  </g>
  <g id="text_28">
   <!-- Run-to-run variability from larger test payloads -->
   <g style="fill: #1f2430" transform="translate(50.277 19.230469) scale(0.15 -0.15)">
    <defs>
     <path id="DejaVuSans-Bold-35" d="M 2297 2597 
Q 2675 2597 2839 2737 
Q 3003 2878 3003 3200 
Q 3003 3519 2839 3656 
Q 2675 3794 2297 3794 
L 1791 3794 
L 1791 2597 
L 2297 2597 
z
M 1791 1766 
L 1791 0 
L 588 0 
L 588 4666 
L 2425 4666 
Q 3347 4666 3776 4356 
Q 4206 4047 4206 3378 
Q 4206 2916 3982 2619 
Q 3759 2322 3309 2181 
Q 3556 2125 3751 1926 
Q 3947 1728 4147 1325 
L 4800 0 
L 3519 0 
L 2950 1159 
Q 2778 1509 2601 1637 
Q 2425 1766 2131 1766 
L 1791 1766 
z
" transform="scale(0.015625)"/>
     <path id="DejaVuSans-Bold-58" d="M 500 1363 
L 500 3500 
L 1625 3500 
L 1625 3150 
Q 1625 2866 1622 2436 
Q 1619 2006 1619 1863 
Q 1619 1441 1641 1255 
Q 1663 1069 1716 984 
Q 1784 875 1895 815 
Q 2006 756 2150 756 
Q 2500 756 2700 1025 
Q 2900 1294 2900 1772 
L 2900 3500 
L 4019 3500 
L 4019 0 
L 2900 0 
L 2900 506 
Q 2647 200 2364 54 
Q 2081 -91 1741 -91 
Q 1134 -91 817 281 
Q 500 653 500 1363 
z
" transform="scale(0.015625)"/>
     <path id="DejaVuSans-Bold-51" d="M 4056 2131 
L 4056 0 
L 2931 0 
L 2931 347 
L 2931 1631 
Q 2931 2084 2911 2256 
Q 2891 2428 2841 2509 
Q 2775 2619 2662 2680 
Q 2550 2741 2406 2741 
Q 2056 2741 1856 2470 
Q 1656 2200 1656 1722 
L 1656 0 
L 538 0 
L 538 3500 
L 1656 3500 
L 1656 2988 
Q 1909 3294 2193 3439 
Q 2478 3584 2822 3584 
Q 3428 3584 3742 3212 
Q 4056 2841 4056 2131 
z
" transform="scale(0.015625)"/>
     <path id="DejaVuSans-Bold-10" d="M 347 2297 
L 2309 2297 
L 2309 1388 
L 347 1388 
L 347 2297 
z
" transform="scale(0.015625)"/>
     <path id="DejaVuSans-Bold-57" d="M 1759 4494 
L 1759 3500 
L 2913 3500 
L 2913 2700 
L 1759 2700 
L 1759 1216 
Q 1759 972 1856 886 
Q 1953 800 2241 800 
L 2816 800 
L 2816 0 
L 1856 0 
Q 1194 0 917 276 
Q 641 553 641 1216 
L 641 2700 
L 84 2700 
L 84 3500 
L 641 3500 
L 641 4494 
L 1759 4494 
z
" transform="scale(0.015625)"/>
     <path id="DejaVuSans-Bold-52" d="M 2203 2784 
Q 1831 2784 1636 2517 
Q 1441 2250 1441 1747 
Q 1441 1244 1636 976 
Q 1831 709 2203 709 
Q 2569 709 2762 976 
Q 2956 1244 2956 1747 
Q 2956 2250 2762 2517 
Q 2569 2784 2203 2784 
z
M 2203 3584 
Q 3106 3584 3614 3096 
Q 4122 2609 4122 1747 
Q 4122 884 3614 396 
Q 3106 -91 2203 -91 
Q 1297 -91 786 396 
Q 275 884 275 1747 
Q 275 2609 786 3096 
Q 1297 3584 2203 3584 
z
" transform="scale(0.015625)"/>
     <path id="DejaVuSans-Bold-55" d="M 3138 2547 
Q 2991 2616 2845 2648 
Q 2700 2681 2553 2681 
Q 2122 2681 1889 2404 
Q 1656 2128 1656 1613 
L 1656 0 
L 538 0 
L 538 3500 
L 1656 3500 
L 1656 2925 
Q 1872 3269 2151 3426 
Q 2431 3584 2822 3584 
Q 2878 3584 2943 3579 
Q 3009 3575 3134 3559 
L 3138 2547 
z
" transform="scale(0.015625)"/>
     <path id="DejaVuSans-Bold-3" transform="scale(0.015625)"/>
     <path id="DejaVuSans-Bold-59" d="M 97 3500 
L 1216 3500 
L 2088 1081 
L 2956 3500 
L 4078 3500 
L 2700 0 
L 1472 0 
L 97 3500 
z
" transform="scale(0.015625)"/>
     <path id="DejaVuSans-Bold-44" d="M 2106 1575 
Q 1756 1575 1579 1456 
Q 1403 1338 1403 1106 
Q 1403 894 1545 773 
Q 1688 653 1941 653 
Q 2256 653 2472 879 
Q 2688 1106 2688 1447 
L 2688 1575 
L 2106 1575 
z
M 3816 1997 
L 3816 0 
L 2688 0 
L 2688 519 
Q 2463 200 2181 54 
Q 1900 -91 1497 -91 
Q 953 -91 614 226 
Q 275 544 275 1050 
Q 275 1666 698 1953 
Q 1122 2241 2028 2241 
L 2688 2241 
L 2688 2328 
Q 2688 2594 2478 2717 
Q 2269 2841 1825 2841 
Q 1466 2841 1156 2769 
Q 847 2697 581 2553 
L 581 3406 
Q 941 3494 1303 3539 
Q 1666 3584 2028 3584 
Q 2975 3584 3395 3211 
Q 3816 2838 3816 1997 
z
" transform="scale(0.015625)"/>
     <path id="DejaVuSans-Bold-4c" d="M 538 3500 
L 1656 3500 
L 1656 0 
L 538 0 
L 538 3500 
z
M 538 4863 
L 1656 4863 
L 1656 3950 
L 538 3950 
L 538 4863 
z
" transform="scale(0.015625)"/>
     <path id="DejaVuSans-Bold-45" d="M 2400 722 
Q 2759 722 2948 984 
Q 3138 1247 3138 1747 
Q 3138 2247 2948 2509 
Q 2759 2772 2400 2772 
Q 2041 2772 1848 2508 
Q 1656 2244 1656 1747 
Q 1656 1250 1848 986 
Q 2041 722 2400 722 
z
M 1656 2988 
Q 1888 3294 2169 3439 
Q 2450 3584 2816 3584 
Q 3463 3584 3878 3070 
Q 4294 2556 4294 1747 
Q 4294 938 3878 423 
Q 3463 -91 2816 -91 
Q 2450 -91 2169 54 
Q 1888 200 1656 506 
L 1656 0 
L 538 0 
L 538 4863 
L 1656 4863 
L 1656 2988 
z
" transform="scale(0.015625)"/>
     <path id="DejaVuSans-Bold-4f" d="M 538 4863 
L 1656 4863 
L 1656 0 
L 538 0 
L 538 4863 
z
" transform="scale(0.015625)"/>
     <path id="DejaVuSans-Bold-5c" d="M 78 3500 
L 1197 3500 
L 2138 1125 
L 2938 3500 
L 4056 3500 
L 2584 -331 
Q 2363 -916 2067 -1148 
Q 1772 -1381 1288 -1381 
L 641 -1381 
L 641 -647 
L 991 -647 
Q 1275 -647 1404 -556 
Q 1534 -466 1606 -231 
L 1638 -134 
L 78 3500 
z
" transform="scale(0.015625)"/>
     <path id="DejaVuSans-Bold-49" d="M 2841 4863 
L 2841 4128 
L 2222 4128 
Q 1984 4128 1890 4042 
Q 1797 3956 1797 3744 
L 1797 3500 
L 2753 3500 
L 2753 2700 
L 1797 2700 
L 1797 0 
L 678 0 
L 678 2700 
L 122 2700 
L 122 3500 
L 678 3500 
L 678 3744 
Q 678 4316 997 4589 
Q 1316 4863 1984 4863 
L 2841 4863 
z
" transform="scale(0.015625)"/>
     <path id="DejaVuSans-Bold-50" d="M 3781 2919 
Q 3994 3244 4286 3414 
Q 4578 3584 4928 3584 
Q 5531 3584 5847 3212 
Q 6163 2841 6163 2131 
L 6163 0 
L 5038 0 
L 5038 1825 
Q 5041 1866 5042 1909 
Q 5044 1953 5044 2034 
Q 5044 2406 4934 2573 
Q 4825 2741 4581 2741 
Q 4263 2741 4089 2478 
Q 3916 2216 3909 1719 
L 3909 0 
L 2784 0 
L 2784 1825 
Q 2784 2406 2684 2573 
Q 2584 2741 2328 2741 
Q 2006 2741 1831 2477 
Q 1656 2213 1656 1722 
L 1656 0 
L 531 0 
L 531 3500 
L 1656 3500 
L 1656 2988 
Q 1863 3284 2130 3434 
Q 2397 3584 2719 3584 
Q 3081 3584 3359 3409 
Q 3638 3234 3781 2919 
z
" transform="scale(0.015625)"/>
     <path id="DejaVuSans-Bold-4a" d="M 2919 594 
Q 2688 288 2409 144 
Q 2131 0 1766 0 
Q 1125 0 706 504 
Q 288 1009 288 1791 
Q 288 2575 706 3076 
Q 1125 3578 1766 3578 
Q 2131 3578 2409 3434 
Q 2688 3291 2919 2981 
L 2919 3500 
L 4044 3500 
L 4044 353 
Q 4044 -491 3511 -936 
Q 2978 -1381 1966 -1381 
Q 1638 -1381 1331 -1331 
Q 1025 -1281 716 -1178 
L 716 -306 
Q 1009 -475 1290 -558 
Q 1572 -641 1856 -641 
Q 2406 -641 2662 -400 
Q 2919 -159 2919 353 
L 2919 594 
z
M 2181 2772 
Q 1834 2772 1640 2515 
Q 1447 2259 1447 1791 
Q 1447 1309 1634 1061 
Q 1822 813 2181 813 
Q 2531 813 2725 1069 
Q 2919 1325 2919 1791 
Q 2919 2259 2725 2515 
Q 2531 2772 2181 2772 
z
" transform="scale(0.015625)"/>
     <path id="DejaVuSans-Bold-48" d="M 4031 1759 
L 4031 1441 
L 1416 1441 
Q 1456 1047 1700 850 
Q 1944 653 2381 653 
Q 2734 653 3104 758 
Q 3475 863 3866 1075 
L 3866 213 
Q 3469 63 3072 -14 
Q 2675 -91 2278 -91 
Q 1328 -91 801 392 
Q 275 875 275 1747 
Q 275 2603 792 3093 
Q 1309 3584 2216 3584 
Q 3041 3584 3536 3087 
Q 4031 2591 4031 1759 
z
M 2881 2131 
Q 2881 2450 2695 2645 
Q 2509 2841 2209 2841 
Q 1884 2841 1681 2658 
Q 1478 2475 1428 2131 
L 2881 2131 
z
" transform="scale(0.015625)"/>
     <path id="DejaVuSans-Bold-53" d="M 1656 506 
L 1656 -1331 
L 538 -1331 
L 538 3500 
L 1656 3500 
L 1656 2988 
Q 1888 3294 2169 3439 
Q 2450 3584 2816 3584 
Q 3463 3584 3878 3070 
Q 4294 2556 4294 1747 
Q 4294 938 3878 423 
Q 3463 -91 2816 -91 
Q 2450 -91 2169 54 
Q 1888 200 1656 506 
z
M 2400 2772 
Q 2041 2772 1848 2508 
Q 1656 2244 1656 1747 
Q 1656 1250 1848 986 
Q 2041 722 2400 722 
Q 2759 722 2948 984 
Q 3138 1247 3138 1747 
Q 3138 2247 2948 2509 
Q 2759 2772 2400 2772 
z
" transform="scale(0.015625)"/>
     <path id="DejaVuSans-Bold-42" d="M 3200 -916 
L 3200 -1509 
L 0 -1509 
L 0 -916 
L 3200 -916 
z
" transform="scale(0.015625)"/>
     <path id="DejaVuSans-Bold-5a" d="M 225 3500 
L 1313 3500 
L 1900 1088 
L 2491 3500 
L 3425 3500 
L 4013 1113 
L 4603 3500 
L 5691 3500 
L 4769 0 
L 3547 0 
L 2956 2406 
L 2369 0 
L 1147 0 
L 225 3500 
z
" transform="scale(0.015625)"/>
     <path id="DejaVuSans-Bold-47" d="M 2919 2988 
L 2919 4863 
L 4044 4863 
L 4044 0 
L 2919 0 
L 2919 506 
Q 2688 197 2409 53 
Q 2131 -91 1766 -91 
Q 1119 -91 703 423 
Q 288 938 288 1747 
Q 288 2556 703 3070 
Q 1119 3584 1766 3584 
Q 2128 3584 2408 3439 
Q 2688 3294 2919 2988 
z
M 2181 722 
Q 2541 722 2730 984 
Q 2919 1247 2919 1747 
Q 2919 2247 2730 2509 
Q 2541 2772 2181 2772 
Q 1825 2772 1636 2509 
Q 1447 2247 1447 1747 
Q 1447 1247 1636 984 
Q 1825 722 2181 722 
z
" transform="scale(0.015625)"/>
     <path id="DejaVuSans-Bold-56" d="M 3272 3391 
L 3272 2541 
Q 2913 2691 2578 2766 
Q 2244 2841 1947 2841 
Q 1628 2841 1473 2761 
Q 1319 2681 1319 2516 
Q 1319 2381 1436 2309 
Q 1553 2238 1856 2203 
L 2053 2175 
Q 2913 2066 3209 1816 
Q 3506 1566 3506 1031 
Q 3506 472 3093 190 
Q 2681 -91 1863 -91 
Q 1516 -91 1145 -36 
Q 775 19 384 128 
L 384 978 
Q 719 816 1070 734 
Q 1422 653 1784 653 
Q 2113 653 2278 743 
Q 2444 834 2444 1013 
Q 2444 1163 2330 1236 
Q 2216 1309 1875 1350 
L 1678 1375 
Q 931 1469 631 1722 
Q 331 1975 331 2491 
Q 331 3047 712 3315 
Q 1094 3584 1881 3584 
Q 2191 3584 2531 3537 
Q 2872 3491 3272 3391 
z
" transform="scale(0.015625)"/>
    </defs>
    <use xlink:href="#DejaVuSans-Bold-35"/>
    <use xlink:href="#DejaVuSans-Bold-58" transform="translate(77 0)"/>
    <use xlink:href="#DejaVuSans-Bold-51" transform="translate(148.1875 0)"/>
    <use xlink:href="#DejaVuSans-Bold-10" transform="translate(219.375 0)"/>
    <use xlink:href="#DejaVuSans-Bold-57" transform="translate(260.875 0)"/>
    <use xlink:href="#DejaVuSans-Bold-52" transform="translate(308.671875 0)"/>
    <use xlink:href="#DejaVuSans-Bold-10" transform="translate(377.375 0)"/>
    <use xlink:href="#DejaVuSans-Bold-55" transform="translate(418.875 0)"/>
    <use xlink:href="#DejaVuSans-Bold-58" transform="translate(468.1875 0)"/>
    <use xlink:href="#DejaVuSans-Bold-51" transform="translate(539.375 0)"/>
    <use xlink:href="#DejaVuSans-Bold-3" transform="translate(610.5625 0)"/>
    <use xlink:href="#DejaVuSans-Bold-59" transform="translate(645.375 0)"/>
    <use xlink:href="#DejaVuSans-Bold-44" transform="translate(710.5625 0)"/>
    <use xlink:href="#DejaVuSans-Bold-55" transform="translate(778.046875 0)"/>
    <use xlink:href="#DejaVuSans-Bold-4c" transform="translate(827.359375 0)"/>
    <use xlink:href="#DejaVuSans-Bold-44" transform="translate(861.640625 0)"/>
    <use xlink:href="#DejaVuSans-Bold-45" transform="translate(929.125 0)"/>
    <use xlink:href="#DejaVuSans-Bold-4c" transform="translate(1000.703125 0)"/>
    <use xlink:href="#DejaVuSans-Bold-4f" transform="translate(1034.984375 0)"/>
    <use xlink:href="#DejaVuSans-Bold-4c" transform="translate(1069.265625 0)"/>
    <use xlink:href="#DejaVuSans-Bold-57" transform="translate(1103.546875 0)"/>
    <use xlink:href="#DejaVuSans-Bold-5c" transform="translate(1151.34375 0)"/>
    <use xlink:href="#DejaVuSans-Bold-3" transform="translate(1216.53125 0)"/>
    <use xlink:href="#DejaVuSans-Bold-49" transform="translate(1251.34375 0)"/>
    <use xlink:href="#DejaVuSans-Bold-55" transform="translate(1294.84375 0)"/>
    <use xlink:href="#DejaVuSans-Bold-52" transform="translate(1344.15625 0)"/>
    <use xlink:href="#DejaVuSans-Bold-50" transform="translate(1412.859375 0)"/>
    <use xlink:href="#DejaVuSans-Bold-3" transform="translate(1517.0625 0)"/>
    <use xlink:href="#DejaVuSans-Bold-4f" transform="translate(1551.875 0)"/>
    <use xlink:href="#DejaVuSans-Bold-44" transform="translate(1586.15625 0)"/>
    <use xlink:href="#DejaVuSans-Bold-55" transform="translate(1653.640625 0)"/>
    <use xlink:href="#DejaVuSans-Bold-4a" transform="translate(1702.953125 0)"/>
    <use xlink:href="#DejaVuSans-Bold-48" transform="translate(1774.53125 0)"/>
    <use xlink:href="#DejaVuSans-Bold-55" transform="translate(1842.359375 0)"/>
    <use xlink:href="#DejaVuSans-Bold-3" transform="translate(1891.671875 0)"/>
    <use xlink:href="#DejaVuSans-Bold-57" transform="translate(1926.484375 0)"/>
    <use xlink:href="#DejaVuSans-Bold-53" transform="translate(1974.28125 0)"/>
    <use xlink:href="#DejaVuSans-Bold-42" transform="translate(2045.859375 0)"/>
    <use xlink:href="#DejaVuSans-Bold-5a" transform="translate(2095.859375 0)"/>
    <use xlink:href="#DejaVuSans-Bold-4a" transform="translate(2188.25 0)"/>
    <use xlink:href="#DejaVuSans-Bold-3" transform="translate(2259.828125 0)"/>
    <use xlink:href="#DejaVuSans-Bold-53" transform="translate(2294.640625 0)"/>
    <use xlink:href="#DejaVuSans-Bold-44" transform="translate(2366.21875 0)"/>
    <use xlink:href="#DejaVuSans-Bold-5c" transform="translate(2430.625 0)"/>
    <use xlink:href="#DejaVuSans-Bold-4f" transform="translate(2495.8125 0)"/>
    <use xlink:href="#DejaVuSans-Bold-52" transform="translate(2530.09375 0)"/>
    <use xlink:href="#DejaVuSans-Bold-44" transform="translate(2598.796875 0)"/>
    <use xlink:href="#DejaVuSans-Bold-47" transform="translate(2666.28125 0)"/>
    <use xlink:href="#DejaVuSans-Bold-56" transform="translate(2737.859375 0)"/>
   </g>
  </g>
  <g id="text_29">
   <!-- Line chart shows the 3 repeated runs per node. It is a repeatability view, not a long-term trend; each point used 8 MiB payloads -->
   <g style="fill: #6f768a" transform="translate(50.277 60.066406) scale(0.095 -0.095)">
    <defs>
     <path id="DejaVuSans-4b" d="M 3513 2113 
L 3513 0 
L 2938 0 
L 2938 2094 
Q 2938 2591 2744 2837 
Q 2550 3084 2163 3084 
Q 1697 3084 1428 2787 
Q 1159 2491 1159 1978 
L 1159 0 
L 581 0 
L 581 4863 
L 1159 4863 
L 1159 2956 
Q 1366 3272 1645 3428 
Q 1925 3584 2291 3584 
Q 2894 3584 3203 3211 
Q 3513 2838 3513 2113 
z
" transform="scale(0.015625)"/>
     <path id="DejaVuSans-2c" d="M 628 4666 
L 1259 4666 
L 1259 0 
L 628 0 
L 628 4666 
z
" transform="scale(0.015625)"/>
     <path id="DejaVuSans-f" d="M 750 794 
L 1409 794 
L 1409 256 
L 897 -744 
L 494 -744 
L 750 256 
L 750 794 
z
" transform="scale(0.015625)"/>
     <path id="DejaVuSans-10" d="M 313 2009 
L 1997 2009 
L 1997 1497 
L 313 1497 
L 313 2009 
z
" transform="scale(0.015625)"/>
     <path id="DejaVuSans-1e" d="M 750 3309 
L 1409 3309 
L 1409 2516 
L 750 2516 
L 750 3309 
z
M 750 794 
L 1409 794 
L 1409 256 
L 897 -744 
L 494 -744 
L 750 256 
L 750 794 
z
" transform="scale(0.015625)"/>
    </defs>
    <use xlink:href="#DejaVuSans-2f"/>
    <use xlink:href="#DejaVuSans-4c" transform="translate(55.71875 0)"/>
    <use xlink:href="#DejaVuSans-51" transform="translate(83.5 0)"/>
    <use xlink:href="#DejaVuSans-48" transform="translate(146.875 0)"/>
    <use xlink:href="#DejaVuSans-3" transform="translate(208.40625 0)"/>
    <use xlink:href="#DejaVuSans-46" transform="translate(240.1875 0)"/>
    <use xlink:href="#DejaVuSans-4b" transform="translate(295.171875 0)"/>
    <use xlink:href="#DejaVuSans-44" transform="translate(358.546875 0)"/>
    <use xlink:href="#DejaVuSans-55" transform="translate(419.828125 0)"/>
    <use xlink:href="#DejaVuSans-57" transform="translate(460.9375 0)"/>
    <use xlink:href="#DejaVuSans-3" transform="translate(500.140625 0)"/>
    <use xlink:href="#DejaVuSans-56" transform="translate(531.921875 0)"/>
    <use xlink:href="#DejaVuSans-4b" transform="translate(584.015625 0)"/>
    <use xlink:href="#DejaVuSans-52" transform="translate(647.390625 0)"/>
    <use xlink:href="#DejaVuSans-5a" transform="translate(708.578125 0)"/>
    <use xlink:href="#DejaVuSans-56" transform="translate(790.359375 0)"/>
    <use xlink:href="#DejaVuSans-3" transform="translate(842.453125 0)"/>
    <use xlink:href="#DejaVuSans-57" transform="translate(874.234375 0)"/>
    <use xlink:href="#DejaVuSans-4b" transform="translate(913.4375 0)"/>
    <use xlink:href="#DejaVuSans-48" transform="translate(976.8125 0)"/>
    <use xlink:href="#DejaVuSans-3" transform="translate(1038.34375 0)"/>
    <use xlink:href="#DejaVuSans-16" transform="translate(1070.125 0)"/>
    <use xlink:href="#DejaVuSans-3" transform="translate(1133.75 0)"/>
    <use xlink:href="#DejaVuSans-55" transform="translate(1165.53125 0)"/>
    <use xlink:href="#DejaVuSans-48" transform="translate(1204.4375 0)"/>
    <use xlink:href="#DejaVuSans-53" transform="translate(1265.96875 0)"/>
    <use xlink:href="#DejaVuSans-48" transform="translate(1329.453125 0)"/>
    <use xlink:href="#DejaVuSans-44" transform="translate(1390.984375 0)"/>
    <use xlink:href="#DejaVuSans-57" transform="translate(1452.265625 0)"/>
    <use xlink:href="#DejaVuSans-48" transform="translate(1491.46875 0)"/>
    <use xlink:href="#DejaVuSans-47" transform="translate(1553 0)"/>
    <use xlink:href="#DejaVuSans-3" transform="translate(1616.484375 0)"/>
    <use xlink:href="#DejaVuSans-55" transform="translate(1648.265625 0)"/>
    <use xlink:href="#DejaVuSans-58" transform="translate(1689.375 0)"/>
    <use xlink:href="#DejaVuSans-51" transform="translate(1752.75 0)"/>
    <use xlink:href="#DejaVuSans-56" transform="translate(1816.125 0)"/>
    <use xlink:href="#DejaVuSans-3" transform="translate(1868.21875 0)"/>
    <use xlink:href="#DejaVuSans-53" transform="translate(1900 0)"/>
    <use xlink:href="#DejaVuSans-48" transform="translate(1963.484375 0)"/>
    <use xlink:href="#DejaVuSans-55" transform="translate(2025.015625 0)"/>
    <use xlink:href="#DejaVuSans-3" transform="translate(2066.125 0)"/>
    <use xlink:href="#DejaVuSans-51" transform="translate(2097.90625 0)"/>
    <use xlink:href="#DejaVuSans-52" transform="translate(2161.28125 0)"/>
    <use xlink:href="#DejaVuSans-47" transform="translate(2222.46875 0)"/>
    <use xlink:href="#DejaVuSans-48" transform="translate(2285.953125 0)"/>
    <use xlink:href="#DejaVuSans-11" transform="translate(2347.484375 0)"/>
    <use xlink:href="#DejaVuSans-3" transform="translate(2379.265625 0)"/>
    <use xlink:href="#DejaVuSans-2c" transform="translate(2411.046875 0)"/>
    <use xlink:href="#DejaVuSans-57" transform="translate(2440.546875 0)"/>
    <use xlink:href="#DejaVuSans-3" transform="translate(2479.75 0)"/>
    <use xlink:href="#DejaVuSans-4c" transform="translate(2511.53125 0)"/>
    <use xlink:href="#DejaVuSans-56" transform="translate(2539.3125 0)"/>
    <use xlink:href="#DejaVuSans-3" transform="translate(2591.40625 0)"/>
    <use xlink:href="#DejaVuSans-44" transform="translate(2623.1875 0)"/>
    <use xlink:href="#DejaVuSans-3" transform="translate(2684.46875 0)"/>
    <use xlink:href="#DejaVuSans-55" transform="translate(2716.25 0)"/>
    <use xlink:href="#DejaVuSans-48" transform="translate(2755.15625 0)"/>
    <use xlink:href="#DejaVuSans-53" transform="translate(2816.6875 0)"/>
    <use xlink:href="#DejaVuSans-48" transform="translate(2880.171875 0)"/>
    <use xlink:href="#DejaVuSans-44" transform="translate(2941.703125 0)"/>
    <use xlink:href="#DejaVuSans-57" transform="translate(3002.984375 0)"/>
    <use xlink:href="#DejaVuSans-44" transform="translate(3042.1875 0)"/>
    <use xlink:href="#DejaVuSans-45" transform="translate(3103.46875 0)"/>
    <use xlink:href="#DejaVuSans-4c" transform="translate(3166.953125 0)"/>
    <use xlink:href="#DejaVuSans-4f" transform="translate(3194.734375 0)"/>
    <use xlink:href="#DejaVuSans-4c" transform="translate(3222.515625 0)"/>
    <use xlink:href="#DejaVuSans-57" transform="translate(3250.296875 0)"/>
    <use xlink:href="#DejaVuSans-5c" transform="translate(3289.5 0)"/>
    <use xlink:href="#DejaVuSans-3" transform="translate(3348.6875 0)"/>
    <use xlink:href="#DejaVuSans-59" transform="translate(3380.46875 0)"/>
    <use xlink:href="#DejaVuSans-4c" transform="translate(3439.65625 0)"/>
    <use xlink:href="#DejaVuSans-48" transform="translate(3467.4375 0)"/>
    <use xlink:href="#DejaVuSans-5a" transform="translate(3528.96875 0)"/>
    <use xlink:href="#DejaVuSans-f" transform="translate(3610.75 0)"/>
    <use xlink:href="#DejaVuSans-3" transform="translate(3642.53125 0)"/>
    <use xlink:href="#DejaVuSans-51" transform="translate(3674.3125 0)"/>
    <use xlink:href="#DejaVuSans-52" transform="translate(3737.6875 0)"/>
    <use xlink:href="#DejaVuSans-57" transform="translate(3798.875 0)"/>
    <use xlink:href="#DejaVuSans-3" transform="translate(3838.078125 0)"/>
    <use xlink:href="#DejaVuSans-44" transform="translate(3869.859375 0)"/>
    <use xlink:href="#DejaVuSans-3" transform="translate(3931.140625 0)"/>
    <use xlink:href="#DejaVuSans-4f" transform="translate(3962.921875 0)"/>
    <use xlink:href="#DejaVuSans-52" transform="translate(3990.703125 0)"/>
    <use xlink:href="#DejaVuSans-51" transform="translate(4051.890625 0)"/>
    <use xlink:href="#DejaVuSans-4a" transform="translate(4115.265625 0)"/>
    <use xlink:href="#DejaVuSans-10" transform="translate(4178.75 0)"/>
    <use xlink:href="#DejaVuSans-57" transform="translate(4214.828125 0)"/>
    <use xlink:href="#DejaVuSans-48" transform="translate(4254.03125 0)"/>
    <use xlink:href="#DejaVuSans-55" transform="translate(4315.5625 0)"/>
    <use xlink:href="#DejaVuSans-50" transform="translate(4354.921875 0)"/>
    <use xlink:href="#DejaVuSans-3" transform="translate(4452.328125 0)"/>
    <use xlink:href="#DejaVuSans-57" transform="translate(4484.109375 0)"/>
    <use xlink:href="#DejaVuSans-55" transform="translate(4523.3125 0)"/>
    <use xlink:href="#DejaVuSans-48" transform="translate(4562.21875 0)"/>
    <use xlink:href="#DejaVuSans-51" transform="translate(4623.75 0)"/>
    <use xlink:href="#DejaVuSans-47" transform="translate(4687.125 0)"/>
    <use xlink:href="#DejaVuSans-1e" transform="translate(4750.609375 0)"/>
    <use xlink:href="#DejaVuSans-3" transform="translate(4784.296875 0)"/>
    <use xlink:href="#DejaVuSans-48" transform="translate(4816.078125 0)"/>
    <use xlink:href="#DejaVuSans-44" transform="translate(4877.609375 0)"/>
    <use xlink:href="#DejaVuSans-46" transform="translate(4938.890625 0)"/>
    <use xlink:href="#DejaVuSans-4b" transform="translate(4993.875 0)"/>
    <use xlink:href="#DejaVuSans-3" transform="translate(5057.25 0)"/>
    <use xlink:href="#DejaVuSans-53" transform="translate(5089.03125 0)"/>
    <use xlink:href="#DejaVuSans-52" transform="translate(5152.515625 0)"/>
    <use xlink:href="#DejaVuSans-4c" transform="translate(5213.703125 0)"/>
    <use xlink:href="#DejaVuSans-51" transform="translate(5241.484375 0)"/>
    <use xlink:href="#DejaVuSans-57" transform="translate(5304.859375 0)"/>
    <use xlink:href="#DejaVuSans-3" transform="translate(5344.0625 0)"/>
    <use xlink:href="#DejaVuSans-58" transform="translate(5375.84375 0)"/>
    <use xlink:href="#DejaVuSans-56" transform="translate(5439.21875 0)"/>
    <use xlink:href="#DejaVuSans-48" transform="translate(5491.3125 0)"/>
    <use xlink:href="#DejaVuSans-47" transform="translate(5552.84375 0)"/>
    <use xlink:href="#DejaVuSans-3" transform="translate(5616.328125 0)"/>
    <use xlink:href="#DejaVuSans-1b" transform="translate(5648.109375 0)"/>
    <use xlink:href="#DejaVuSans-3" transform="translate(5711.734375 0)"/>
    <use xlink:href="#DejaVuSans-30" transform="translate(5743.515625 0)"/>
    <use xlink:href="#DejaVuSans-4c" transform="translate(5829.796875 0)"/>
    <use xlink:href="#DejaVuSans-25" transform="translate(5857.578125 0)"/>
    <use xlink:href="#DejaVuSans-3" transform="translate(5926.1875 0)"/>
    <use xlink:href="#DejaVuSans-53" transform="translate(5957.96875 0)"/>
    <use xlink:href="#DejaVuSans-44" transform="translate(6021.453125 0)"/>
    <use xlink:href="#DejaVuSans-5c" transform="translate(6082.734375 0)"/>
    <use xlink:href="#DejaVuSans-4f" transform="translate(6141.921875 0)"/>
    <use xlink:href="#DejaVuSans-52" transform="translate(6169.703125 0)"/>
    <use xlink:href="#DejaVuSans-44" transform="translate(6230.890625 0)"/>
    <use xlink:href="#DejaVuSans-47" transform="translate(6292.171875 0)"/>
    <use xlink:href="#DejaVuSans-56" transform="translate(6355.65625 0)"/>
   </g>
   <!-- and 5 latency samples. -->
   <g style="fill: #6f768a" transform="translate(50.277 71.276406) scale(0.095 -0.095)">
    <use xlink:href="#DejaVuSans-44"/>
    <use xlink:href="#DejaVuSans-51" transform="translate(61.28125 0)"/>
    <use xlink:href="#DejaVuSans-47" transform="translate(124.65625 0)"/>
    <use xlink:href="#DejaVuSans-3" transform="translate(188.140625 0)"/>
    <use xlink:href="#DejaVuSans-18" transform="translate(219.921875 0)"/>
    <use xlink:href="#DejaVuSans-3" transform="translate(283.546875 0)"/>
    <use xlink:href="#DejaVuSans-4f" transform="translate(315.328125 0)"/>
    <use xlink:href="#DejaVuSans-44" transform="translate(343.109375 0)"/>
    <use xlink:href="#DejaVuSans-57" transform="translate(404.390625 0)"/>
    <use xlink:href="#DejaVuSans-48" transform="translate(443.59375 0)"/>
    <use xlink:href="#DejaVuSans-51" transform="translate(505.125 0)"/>
    <use xlink:href="#DejaVuSans-46" transform="translate(568.5 0)"/>
    <use xlink:href="#DejaVuSans-5c" transform="translate(623.484375 0)"/>
    <use xlink:href="#DejaVuSans-3" transform="translate(682.671875 0)"/>
    <use xlink:href="#DejaVuSans-56" transform="translate(714.453125 0)"/>
    <use xlink:href="#DejaVuSans-44" transform="translate(766.546875 0)"/>
    <use xlink:href="#DejaVuSans-50" transform="translate(827.828125 0)"/>
    <use xlink:href="#DejaVuSans-53" transform="translate(925.234375 0)"/>
    <use xlink:href="#DejaVuSans-4f" transform="translate(988.71875 0)"/>
    <use xlink:href="#DejaVuSans-48" transform="translate(1016.5 0)"/>
    <use xlink:href="#DejaVuSans-56" transform="translate(1078.03125 0)"/>
    <use xlink:href="#DejaVuSans-11" transform="translate(1130.125 0)"/>
   </g>
  </g>
  <g id="legend_1">
   <g id="line2d_39">
    <path d="M 84.567 80.829672 
L 93.067 80.829672 
L 101.567 80.829672 
" style="fill: none; stroke: #5477c4; stroke-width: 1.5; stroke-linecap: round"/>
    <g>
     <use xlink:href="#m076c5b1db5" x="93.067" y="80.829672" style="fill: #5477c4; stroke: #5477c4"/>
    </g>
   </g>
   <g id="text_30">
    <!-- JP direct -->
    <g style="fill: #262626" transform="translate(108.367 83.804672) scale(0.085 -0.085)">
     <defs>
      <path id="DejaVuSans-2d" d="M 628 4666 
L 1259 4666 
L 1259 325 
Q 1259 -519 939 -900 
Q 619 -1281 -91 -1281 
L -331 -1281 
L -331 -750 
L -134 -750 
Q 284 -750 456 -515 
Q 628 -281 628 325 
L 628 4666 
z
" transform="scale(0.015625)"/>
      <path id="DejaVuSans-33" d="M 1259 4147 
L 1259 2394 
L 2053 2394 
Q 2494 2394 2734 2622 
Q 2975 2850 2975 3272 
Q 2975 3691 2734 3919 
Q 2494 4147 2053 4147 
L 1259 4147 
z
M 628 4666 
L 2053 4666 
Q 2838 4666 3239 4311 
Q 3641 3956 3641 3272 
Q 3641 2581 3239 2228 
Q 2838 1875 2053 1875 
L 1259 1875 
L 1259 0 
L 628 0 
L 628 4666 
z
" transform="scale(0.015625)"/>
     </defs>
     <use xlink:href="#DejaVuSans-2d"/>
     <use xlink:href="#DejaVuSans-33" transform="translate(29.5 0)"/>
     <use xlink:href="#DejaVuSans-3" transform="translate(89.796875 0)"/>
     <use xlink:href="#DejaVuSans-47" transform="translate(121.578125 0)"/>
     <use xlink:href="#DejaVuSans-4c" transform="translate(185.0625 0)"/>
     <use xlink:href="#DejaVuSans-55" transform="translate(212.84375 0)"/>
     <use xlink:href="#DejaVuSans-48" transform="translate(251.75 0)"/>
     <use xlink:href="#DejaVuSans-46" transform="translate(313.28125 0)"/>
     <use xlink:href="#DejaVuSans-57" transform="translate(368.265625 0)"/>
    </g>
   </g>
   <g id="line2d_40">
    <path d="M 84.567 93.580336 
L 93.067 93.580336 
L 101.567 93.580336 
" style="fill: none; stroke: #cc6f47; stroke-width: 1.5; stroke-linecap: round"/>
    <g>
     <use xlink:href="#mf0558a227c" x="93.067" y="93.580336" style="fill: #cc6f47; stroke: #cc6f47"/>
    </g>
   </g>
   <g id="text_31">
    <!-- Tokyo primary -->
    <g style="fill: #262626" transform="translate(108.367 96.555336) scale(0.085 -0.085)">
     <defs>
      <path id="DejaVuSans-37" d="M -19 4666 
L 3928 4666 
L 3928 4134 
L 2272 4134 
L 2272 0 
L 1638 0 
L 1638 4134 
L -19 4134 
L -19 4666 
z
" transform="scale(0.015625)"/>
      <path id="DejaVuSans-4e" d="M 581 4863 
L 1159 4863 
L 1159 1991 
L 2875 3500 
L 3609 3500 
L 1753 1863 
L 3688 0 
L 2938 0 
L 1159 1709 
L 1159 0 
L 581 0 
L 581 4863 
z
" transform="scale(0.015625)"/>
     </defs>
     <use xlink:href="#DejaVuSans-37"/>
     <use xlink:href="#DejaVuSans-52" transform="translate(44.09375 0)"/>
     <use xlink:href="#DejaVuSans-4e" transform="translate(105.28125 0)"/>
     <use xlink:href="#DejaVuSans-5c" transform="translate(159.625 0)"/>
     <use xlink:href="#DejaVuSans-52" transform="translate(218.8125 0)"/>
     <use xlink:href="#DejaVuSans-3" transform="translate(280 0)"/>
     <use xlink:href="#DejaVuSans-53" transform="translate(311.78125 0)"/>
     <use xlink:href="#DejaVuSans-55" transform="translate(375.265625 0)"/>
     <use xlink:href="#DejaVuSans-4c" transform="translate(416.375 0)"/>
     <use xlink:href="#DejaVuSans-50" transform="translate(444.15625 0)"/>
     <use xlink:href="#DejaVuSans-44" transform="translate(541.5625 0)"/>
     <use xlink:href="#DejaVuSans-55" transform="translate(602.84375 0)"/>
     <use xlink:href="#DejaVuSans-5c" transform="translate(643.953125 0)"/>
    </g>
   </g>
   <g id="line2d_41">
    <path d="M 185.133953 80.829672 
L 193.633953 80.829672 
L 202.133953 80.829672 
" style="fill: none; stroke: #b8a037; stroke-width: 1.5; stroke-linecap: round"/>
    <g>
     <use xlink:href="#m42c368fb5c" x="193.633953" y="80.829672" style="fill: #b8a037; stroke: #b8a037"/>
    </g>
   </g>
   <g id="text_32">
    <!-- Tokyo Windows pkg -->
    <g style="fill: #262626" transform="translate(208.933953 83.804672) scale(0.085 -0.085)">
     <defs>
      <path id="DejaVuSans-3a" d="M 213 4666 
L 850 4666 
L 1831 722 
L 2809 4666 
L 3519 4666 
L 4500 722 
L 5478 4666 
L 6119 4666 
L 4947 0 
L 4153 0 
L 3169 4050 
L 2175 0 
L 1381 0 
L 213 4666 
z
" transform="scale(0.015625)"/>
     </defs>
     <use xlink:href="#DejaVuSans-37"/>
     <use xlink:href="#DejaVuSans-52" transform="translate(44.09375 0)"/>
     <use xlink:href="#DejaVuSans-4e" transform="translate(105.28125 0)"/>
     <use xlink:href="#DejaVuSans-5c" transform="translate(159.625 0)"/>
     <use xlink:href="#DejaVuSans-52" transform="translate(218.8125 0)"/>
     <use xlink:href="#DejaVuSans-3" transform="translate(280 0)"/>
     <use xlink:href="#DejaVuSans-3a" transform="translate(311.78125 0)"/>
     <use xlink:href="#DejaVuSans-4c" transform="translate(408.453125 0)"/>
     <use xlink:href="#DejaVuSans-51" transform="translate(436.234375 0)"/>
     <use xlink:href="#DejaVuSans-47" transform="translate(499.609375 0)"/>
     <use xlink:href="#DejaVuSans-52" transform="translate(563.09375 0)"/>
     <use xlink:href="#DejaVuSans-5a" transform="translate(624.28125 0)"/>
     <use xlink:href="#DejaVuSans-56" transform="translate(706.0625 0)"/>
     <use xlink:href="#DejaVuSans-3" transform="translate(758.15625 0)"/>
     <use xlink:href="#DejaVuSans-53" transform="translate(789.9375 0)"/>
     <use xlink:href="#DejaVuSans-4e" transform="translate(853.421875 0)"/>
     <use xlink:href="#DejaVuSans-4a" transform="translate(911.328125 0)"/>
    </g>
   </g>
   <g id="line2d_42">
    <path d="M 185.133953 93.580336 
L 193.633953 93.580336 
L 202.133953 93.580336 
" style="fill: none; stroke: #71b436; stroke-width: 1.5; stroke-linecap: round"/>
    <g>
     <use xlink:href="#me51305df66" x="193.633953" y="93.580336" style="fill: #71b436; stroke: #71b436"/>
    </g>
   </g>
   <g id="text_33">
    <!-- JP relay -&gt; MY -->
    <g style="fill: #262626" transform="translate(208.933953 96.555336) scale(0.085 -0.085)">
     <defs>
      <path id="DejaVuSans-21" d="M 678 3150 
L 678 3719 
L 4684 2266 
L 4684 1747 
L 678 294 
L 678 863 
L 3897 2003 
L 678 3150 
z
" transform="scale(0.015625)"/>
      <path id="DejaVuSans-3c" d="M -13 4666 
L 666 4666 
L 1959 2747 
L 3244 4666 
L 3922 4666 
L 2272 2222 
L 2272 0 
L 1638 0 
L 1638 2222 
L -13 4666 
z
" transform="scale(0.015625)"/>
     </defs>
     <use xlink:href="#DejaVuSans-2d"/>
     <use xlink:href="#DejaVuSans-33" transform="translate(29.5 0)"/>
     <use xlink:href="#DejaVuSans-3" transform="translate(89.796875 0)"/>
     <use xlink:href="#DejaVuSans-55" transform="translate(121.578125 0)"/>
     <use xlink:href="#DejaVuSans-48" transform="translate(160.484375 0)"/>
     <use xlink:href="#DejaVuSans-4f" transform="translate(222.015625 0)"/>
     <use xlink:href="#DejaVuSans-44" transform="translate(249.796875 0)"/>
     <use xlink:href="#DejaVuSans-5c" transform="translate(311.078125 0)"/>
     <use xlink:href="#DejaVuSans-3" transform="translate(370.265625 0)"/>
     <use xlink:href="#DejaVuSans-10" transform="translate(402.046875 0)"/>
     <use xlink:href="#DejaVuSans-21" transform="translate(438.125 0)"/>
     <use xlink:href="#DejaVuSans-3" transform="translate(521.921875 0)"/>
     <use xlink:href="#DejaVuSans-30" transform="translate(553.703125 0)"/>
     <use xlink:href="#DejaVuSans-3c" transform="translate(639.984375 0)"/>
    </g>
   </g>
   <g id="line2d_43">
    <path d="M 308.793016 80.829672 
L 317.293016 80.829672 
L 325.793016 80.829672 
" style="fill: none; stroke: #bd569b; stroke-width: 1.5; stroke-linecap: round"/>
    <g>
     <use xlink:href="#m97a33e85e5" x="317.293016" y="80.829672" style="fill: #bd569b; stroke: #bd569b"/>
    </g>
   </g>
   <g id="text_34">
    <!-- Malaysia vps@my -->
    <g style="fill: #262626" transform="translate(332.593016 83.804672) scale(0.085 -0.085)">
     <defs>
      <path id="DejaVuSans-23" d="M 2381 1678 
Q 2381 1231 2603 976 
Q 2825 722 3213 722 
Q 3597 722 3817 978 
Q 4038 1234 4038 1678 
Q 4038 2116 3813 2373 
Q 3588 2631 3206 2631 
Q 2828 2631 2604 2375 
Q 2381 2119 2381 1678 
z
M 4084 744 
Q 3897 503 3655 389 
Q 3413 275 3091 275 
Q 2553 275 2217 664 
Q 1881 1053 1881 1678 
Q 1881 2303 2218 2693 
Q 2556 3084 3091 3084 
Q 3413 3084 3656 2967 
Q 3900 2850 4084 2613 
L 4084 3022 
L 4531 3022 
L 4531 722 
Q 4988 791 5245 1139 
Q 5503 1488 5503 2041 
Q 5503 2375 5404 2669 
Q 5306 2963 5106 3213 
Q 4781 3622 4314 3839 
Q 3847 4056 3297 4056 
Q 2913 4056 2559 3954 
Q 2206 3853 1906 3653 
Q 1416 3334 1139 2817 
Q 863 2300 863 1697 
Q 863 1200 1042 765 
Q 1222 331 1563 0 
Q 1891 -325 2322 -495 
Q 2753 -666 3244 -666 
Q 3647 -666 4036 -530 
Q 4425 -394 4750 -141 
L 5031 -488 
Q 4641 -791 4180 -952 
Q 3719 -1113 3244 -1113 
Q 2666 -1113 2153 -908 
Q 1641 -703 1241 -313 
Q 841 78 631 592 
Q 422 1106 422 1697 
Q 422 2266 634 2781 
Q 847 3297 1241 3688 
Q 1644 4084 2172 4295 
Q 2700 4506 3291 4506 
Q 3953 4506 4520 4234 
Q 5088 3963 5472 3463 
Q 5706 3156 5829 2797 
Q 5953 2438 5953 2053 
Q 5953 1231 5456 756 
Q 4959 281 4084 263 
L 4084 744 
z
" transform="scale(0.015625)"/>
     </defs>
     <use xlink:href="#DejaVuSans-30"/>
     <use xlink:href="#DejaVuSans-44" transform="translate(86.28125 0)"/>
     <use xlink:href="#DejaVuSans-4f" transform="translate(147.5625 0)"/>
     <use xlink:href="#DejaVuSans-44" transform="translate(175.34375 0)"/>
     <use xlink:href="#DejaVuSans-5c" transform="translate(236.625 0)"/>
     <use xlink:href="#DejaVuSans-56" transform="translate(295.8125 0)"/>
     <use xlink:href="#DejaVuSans-4c" transform="translate(347.90625 0)"/>
     <use xlink:href="#DejaVuSans-44" transform="translate(375.6875 0)"/>
     <use xlink:href="#DejaVuSans-3" transform="translate(436.96875 0)"/>
     <use xlink:href="#DejaVuSans-59" transform="translate(468.75 0)"/>
     <use xlink:href="#DejaVuSans-53" transform="translate(527.9375 0)"/>
     <use xlink:href="#DejaVuSans-56" transform="translate(591.421875 0)"/>
     <use xlink:href="#DejaVuSans-23" transform="translate(643.515625 0)"/>
     <use xlink:href="#DejaVuSans-50" transform="translate(743.515625 0)"/>
     <use xlink:href="#DejaVuSans-5c" transform="translate(840.921875 0)"/>
    </g>
   </g>
   <g id="line2d_44">
    <path d="M 308.793016 93.580336 
L 317.293016 93.580336 
L 325.793016 93.580336 
" style="fill: none; stroke: #7a828f; stroke-width: 1.5; stroke-linecap: round"/>
    <g>
     <use xlink:href="#m92e0c8cab0" x="317.293016" y="93.580336" style="fill: #7a828f; stroke: #7a828f"/>
    </g>
   </g>
   <g id="text_35">
    <!-- Malaysia shared -->
    <g style="fill: #262626" transform="translate(332.593016 96.555336) scale(0.085 -0.085)">
     <use xlink:href="#DejaVuSans-30"/>
     <use xlink:href="#DejaVuSans-44" transform="translate(86.28125 0)"/>
     <use xlink:href="#DejaVuSans-4f" transform="translate(147.5625 0)"/>
     <use xlink:href="#DejaVuSans-44" transform="translate(175.34375 0)"/>
     <use xlink:href="#DejaVuSans-5c" transform="translate(236.625 0)"/>
     <use xlink:href="#DejaVuSans-56" transform="translate(295.8125 0)"/>
     <use xlink:href="#DejaVuSans-4c" transform="translate(347.90625 0)"/>
     <use xlink:href="#DejaVuSans-44" transform="translate(375.6875 0)"/>
     <use xlink:href="#DejaVuSans-3" transform="translate(436.96875 0)"/>
     <use xlink:href="#DejaVuSans-56" transform="translate(468.75 0)"/>
     <use xlink:href="#DejaVuSans-4b" transform="translate(520.84375 0)"/>
     <use xlink:href="#DejaVuSans-44" transform="translate(584.21875 0)"/>
     <use xlink:href="#DejaVuSans-55" transform="translate(645.5 0)"/>
     <use xlink:href="#DejaVuSans-48" transform="translate(684.40625 0)"/>
     <use xlink:href="#DejaVuSans-47" transform="translate(745.9375 0)"/>
    </g>
   </g>
  </g>
 </g>
 <defs>
  <clipPath id="pe8314dd667">
   <rect x="55.605" y="150.048" width="884.448" height="179.530435"/>
  </clipPath>
  <clipPath id="paa522a0eb3">
   <rect x="55.605" y="390.618783" width="884.448" height="179.530435"/>
  </clipPath>
  <clipPath id="p5963a7e1f5">
   <rect x="55.605" y="631.189565" width="884.448" height="179.530435"/>
  </clipPath>
 </defs>
</svg>
