<svg viewBox="0 0 760 430" xmlns="http://www.w3.org/2000/svg" font-family="Helvetica, Arial, sans-serif">
<rect x="0" y="0" width="760" height="430" fill="#ffffff"/>
<text x="380.0" y="26" text-anchor="middle" font-size="16" font-weight="700" fill="#1a1a2e">Upload throughput across three real Speedtest runs (phone on 5G, Tokyo exit)</text>
<line x1="70" y1="330.0" x2="720" y2="330.0" stroke="#e5e7eb" stroke-width="1"/>
<text x="60" y="334.0" text-anchor="end" font-size="12" fill="#6b7280">0</text>
<line x1="70" y1="274.0" x2="720" y2="274.0" stroke="#e5e7eb" stroke-width="1"/>
<text x="60" y="278.0" text-anchor="end" font-size="12" fill="#6b7280">20</text>
<line x1="70" y1="218.0" x2="720" y2="218.0" stroke="#e5e7eb" stroke-width="1"/>
<text x="60" y="222.0" text-anchor="end" font-size="12" fill="#6b7280">40</text>
<line x1="70" y1="162.0" x2="720" y2="162.0" stroke="#e5e7eb" stroke-width="1"/>
<text x="60" y="166.0" text-anchor="end" font-size="12" fill="#6b7280">60</text>
<line x1="70" y1="106.0" x2="720" y2="106.0" stroke="#e5e7eb" stroke-width="1"/>
<text x="60" y="110.0" text-anchor="end" font-size="12" fill="#6b7280">80</text>
<line x1="70" y1="50.0" x2="720" y2="50.0" stroke="#e5e7eb" stroke-width="1"/>
<text x="60" y="54.0" text-anchor="end" font-size="12" fill="#6b7280">100</text>
<text x="20" y="190.0" text-anchor="middle" font-size="12" fill="#6b7280" transform="rotate(-90 20 190.0)">Mbps</text>
<line x1="70" y1="330" x2="720" y2="330" stroke="#9ca3af" stroke-width="1.5"/>
<rect x="127.3" y="94.8" width="46" height="235.2" fill="#14b8c4" rx="3"/>
<rect x="183.3" y="318.5" width="46" height="11.5" fill="#8b5cf6" rx="3"/>
<text x="150.3" y="88.8" text-anchor="middle" font-size="12" font-weight="600" fill="#0f766e">84.0</text>
<text x="206.3" y="312.5" text-anchor="middle" font-size="12" font-weight="600" fill="#6d28d9">4.1</text>
<text x="178.3" y="350" text-anchor="middle" font-size="12" font-weight="600" fill="#1a1a2e">07-07 19:11 GMT</text>
<text x="178.3" y="366" text-anchor="middle" font-size="10.5" fill="#6b7280">degraded steady state</text>
<rect x="344.0" y="82.5" width="46" height="247.5" fill="#14b8c4" rx="3"/>
<rect x="400.0" y="180.0" width="46" height="150.0" fill="#8b5cf6" rx="3"/>
<text x="367.0" y="76.5" text-anchor="middle" font-size="12" font-weight="600" fill="#0f766e">88.4</text>
<text x="423.0" y="174.0" text-anchor="middle" font-size="12" font-weight="600" fill="#6d28d9">53.6</text>
<text x="395.0" y="350" text-anchor="middle" font-size="12" font-weight="600" fill="#1a1a2e">07-07 23:07 GMT</text>
<text x="395.0" y="366" text-anchor="middle" font-size="10.5" fill="#6b7280">transient</text>
<text x="395.0" y="382" text-anchor="middle" font-size="10.5" fill="#6b7280">post-reboot spike</text>
<rect x="560.7" y="98.1" width="46" height="231.9" fill="#14b8c4" rx="3"/>
<rect x="616.7" y="201.5" width="46" height="128.5" fill="#8b5cf6" rx="3"/>
<text x="583.7" y="92.1" text-anchor="middle" font-size="12" font-weight="600" fill="#0f766e">82.8</text>
<text x="639.7" y="195.5" text-anchor="middle" font-size="12" font-weight="600" fill="#6d28d9">45.9</text>
<text x="611.7" y="350" text-anchor="middle" font-size="12" font-weight="600" fill="#1a1a2e">07-08 04:21 GMT</text>
<text x="611.7" y="366" text-anchor="middle" font-size="10.5" fill="#6b7280">sustained, post</text>
<text x="611.7" y="382" text-anchor="middle" font-size="10.5" fill="#6b7280">blue-green</text>
<rect x="70" y="404" width="12" height="12" fill="#14b8c4" rx="2"/>
<text x="88" y="414" font-size="12" fill="#1a1a2e">Download (Mbps)</text>
<rect x="220" y="404" width="12" height="12" fill="#8b5cf6" rx="2"/>
<text x="238" y="414" font-size="12" fill="#1a1a2e">Upload (Mbps)</text>
<text x="720" y="414" text-anchor="end" font-size="11" fill="#9ca3af">first blue-green flip validated 07-08 04:17:56 GMT</text>
</svg>